<svg width="230" height="256" viewBox="0 0 230 256" fill="none" xmlns="http://www.w3.org/2000/svg">
<path fill-rule="evenodd" clip-rule="evenodd" d="M101.801 21.4673C105.301 17.9667 110.049 16 115 16C119.951 16 124.699 17.9667 128.199 21.4673C131.7 24.968 133.667 29.716 133.667 34.6667C133.667 37.7602 135.45 40.5765 138.247 41.8989C152.246 48.5187 164.181 58.8233 172.771 71.7083C181.327 84.5424 186.244 99.4546 187 114.858V154.667C187 154.988 187.019 155.309 187.058 155.628C188.212 165.161 191.588 174.29 196.914 182.279C197.923 183.792 198.996 185.255 200.129 186.667H29.8707C31.0043 185.255 32.0772 183.792 33.0855 182.279C38.4119 174.29 41.788 165.161 42.9419 155.628C42.9806 155.309 42.9999 154.988 42.9999 154.667V114.859C43.7561 99.4547 48.6729 84.5424 57.229 71.7083C65.819 58.8233 77.7534 48.5187 91.753 41.8989C94.5497 40.5765 96.3333 37.7602 96.3333 34.6667C96.3333 29.716 98.2999 24.968 101.801 21.4673ZM115 0C105.806 0 96.9881 3.65237 90.4869 10.1536C85.2063 15.4342 81.8052 22.243 80.7142 29.5405C65.9003 37.405 53.2468 48.8371 43.9162 62.8331C33.7155 78.134 27.8709 95.9224 27.0087 114.292C27.0029 114.417 26.9999 114.542 26.9999 114.667V154.165C26.0958 161.044 23.624 167.627 19.7727 173.404C15.8357 179.309 10.5672 184.208 4.39123 187.705C1.22967 189.496 -0.328429 193.192 0.597273 196.705C1.52297 200.218 4.69999 202.667 8.33325 202.667H67V208C67 220.731 72.0571 232.94 81.0589 241.941C90.0606 250.943 102.27 256 115 256C127.73 256 139.939 250.943 148.941 241.941C157.943 232.94 163 220.731 163 208V202.667H221.667C225.3 202.667 228.477 200.218 229.403 196.705C230.328 193.192 228.77 189.496 225.609 187.705C219.433 184.208 214.164 179.309 210.227 173.404C206.376 167.627 203.904 161.044 203 154.165V114.667C203 114.542 202.997 114.417 202.991 114.292C202.129 95.9224 196.284 78.134 186.084 62.8331C176.753 48.8371 164.1 37.405 149.286 29.5405C148.195 22.243 144.794 15.4342 139.513 10.1536C133.012 3.65237 124.194 0 115 0ZM147 202.667H83V208C83 216.487 86.3714 224.627 92.3726 230.628C98.3737 236.629 106.513 240 115 240C123.487 240 131.626 236.629 137.627 230.628C143.629 224.627 147 216.487 147 208V202.667Z" fill="url(#paint0_linear_455_5809)"/>
<defs>
<linearGradient id="paint0_linear_455_5809" x1="115" y1="0" x2="115" y2="248" gradientUnits="userSpaceOnUse">
<stop stop-color="white" stop-opacity="0.1"/>
<stop offset="1" stop-color="white" stop-opacity="0.01"/>
</linearGradient>
</defs>
</svg>
