<svg width="110" height="69" viewBox="0 0 110 69" fill="none" xmlns="http://www.w3.org/2000/svg">
<path d="M18.0267 25.0637C17.5415 24.8251 17.0319 24.6453 16.5289 24.4499C15.6651 24.1144 14.7992 23.7843 13.9095 23.5215C13.7428 23.4723 13.5786 23.4107 13.4088 23.3777C13.0533 23.2861 12.6839 23.2614 12.3193 23.3047C11.7102 23.4084 11.0933 23.4685 10.4783 23.5354C9.55742 23.6543 8.62933 23.7087 7.70084 23.6984C7.3334 23.692 6.96769 23.6464 6.60995 23.5623C6.30617 23.4971 6.02287 23.3588 5.78464 23.1594C5.56347 22.967 5.42095 22.6999 5.38434 22.4091C5.34772 22.1183 5.41958 21.8243 5.58616 21.5831C5.69543 21.4232 5.8278 21.2803 5.97897 21.1592C6.23737 20.956 6.51899 20.7842 6.81791 20.6475C7.34447 20.4049 7.89442 20.2168 8.4592 20.0861C9.26466 19.8798 10.088 19.7508 10.9179 19.701C11.6133 19.6569 12.3111 19.7294 12.9826 19.9153C13.671 20.1101 14.3412 20.3546 15.0087 20.6094C16.0185 20.9945 17.0263 21.3866 18.0405 21.7603C18.9243 22.0994 19.833 22.3699 20.7584 22.5694C21.0803 22.6343 21.4045 22.6879 21.7289 22.7389C22.3969 22.8445 23.0657 22.9462 23.7344 23.0474C23.9828 23.0852 24.2316 23.1215 24.4809 23.1523C24.4996 23.1517 24.518 23.1468 24.5345 23.138C24.551 23.1292 24.5653 23.1167 24.5762 23.1015C24.5857 23.0851 24.5914 23.0667 24.5929 23.0478C24.5944 23.0288 24.5915 23.0098 24.5846 22.9921C24.4682 22.7916 24.3478 22.5935 24.2235 22.3978C23.8607 21.8266 23.4992 21.2552 23.1821 20.6566C22.6771 19.6979 22.3167 18.6697 22.1127 17.6054C22.0596 17.3006 22.025 16.9929 22.009 16.684C21.9739 16.2949 21.7961 15.9325 21.51 15.6666C21.3048 15.457 21.0296 15.3304 20.737 15.3111C20.4285 15.2837 20.1176 15.3111 19.8186 15.3918C19.3164 15.5337 18.832 15.7325 18.3749 15.9843C17.9846 16.1962 17.6016 16.4218 17.2152 16.6409C16.9296 16.8028 16.6492 16.9753 16.3561 17.1215C16.0978 17.2504 15.8266 17.3546 15.5573 17.4601C15.066 17.6439 14.538 17.7083 14.0169 17.6479C13.786 17.6252 13.5584 17.5771 13.338 17.5047C12.3735 17.2039 11.5004 16.6645 10.7998 15.9366C10.5743 15.697 10.3753 15.4338 10.2064 15.1516C10.1388 15.0332 10.1108 14.8965 10.1264 14.7611C10.135 14.6244 10.1972 14.4967 10.2996 14.4056C10.3705 14.3405 10.4543 14.2894 10.5262 14.2249C10.6987 14.0701 10.8751 13.9183 11.0358 13.7518C11.1553 13.6253 11.2639 13.4889 11.3605 13.3442C11.4902 13.1736 11.566 12.9682 11.5783 12.7543C11.5906 12.5404 11.5389 12.3276 11.4297 12.1433C11.3285 11.9567 11.236 11.7651 11.1438 11.5738C11.0022 11.2971 10.935 10.9883 10.9489 10.6778C10.9684 10.4657 11.022 10.258 11.1077 10.063C11.2328 9.75895 11.3875 9.46793 11.5695 9.19412C12.3369 8.02389 13.3811 7.06098 14.6095 6.3907C14.7942 6.28702 14.9848 6.1937 15.1723 6.0958C15.2688 5.94309 15.3584 5.79423 15.4548 5.64996C15.778 5.14307 16.1893 4.69817 16.6694 4.33631C16.9198 4.15508 17.1961 4.01272 17.489 3.91403C17.9148 3.77481 18.3743 3.77761 18.7984 3.92202C19.2225 4.06642 19.5882 4.34461 19.8405 4.71475C19.9462 4.87635 20.0497 5.03913 20.1554 5.20354C20.5049 5.23657 20.8509 5.27167 21.1972 5.30174C23.5271 5.52172 25.8212 6.02703 28.0279 6.80632C28.466 6.95695 28.9018 7.11603 29.3381 7.27066C29.3655 7.27364 29.393 7.26738 29.4163 7.25288C29.4397 7.23838 29.4575 7.21649 29.467 7.19068C29.4818 7.11499 29.4895 7.03753 29.5085 6.96288C29.5269 6.85662 29.5827 6.76043 29.6658 6.69165C29.7488 6.62287 29.8537 6.586 29.9616 6.5877C30.2319 6.58503 30.5022 6.60116 30.7703 6.63598C32.6115 6.86802 34.4307 7.24985 36.2099 7.77767C37.1355 8.05362 38.0392 8.39821 38.9135 8.80857C39.6295 9.14851 40.3111 9.55663 40.9489 10.0273C42.0386 10.8319 43.0888 11.6862 44.1157 12.5688C44.5261 12.9216 44.9333 13.2782 45.3428 13.6322C45.3551 13.646 45.3707 13.6563 45.3883 13.662C45.4058 13.6678 45.4245 13.6688 45.4426 13.665C45.4606 13.6612 45.4773 13.6527 45.491 13.6404C45.5047 13.628 45.5149 13.6123 45.5206 13.5947C45.5388 13.5199 45.5623 13.4465 45.5908 13.375C45.6301 13.2854 45.6968 13.2106 45.7814 13.1615C45.866 13.1123 45.964 13.0913 46.0613 13.1015C46.1956 13.1137 46.3282 13.1399 46.457 13.1798C47.3679 13.4393 48.2996 13.6196 49.2416 13.719C50.3571 13.842 51.4811 13.8683 52.6012 13.7976C54.4754 13.6915 56.3258 13.3255 58.0993 12.7103C58.8116 12.4644 59.5074 12.1793 60.1962 11.8737C61.6772 11.2102 63.2137 10.6781 64.7878 10.2834C65.7626 10.0399 66.7506 9.85234 67.7468 9.72157C68.5334 9.62244 69.3254 9.57115 70.1183 9.56797C70.892 9.55043 71.6658 9.59999 72.431 9.71609C72.9304 9.77896 73.4361 9.77468 73.9344 9.70335C74.512 9.64514 75.0897 9.58856 75.6634 9.50857C77.6016 9.23826 79.5027 8.82116 81.3111 8.04562C82.1845 7.67879 83.0108 7.20846 83.7722 6.64472C84.7726 5.88045 85.9007 5.29962 87.1039 4.92922C87.7328 4.73907 88.3754 4.59789 89.0261 4.50694C90.0228 4.37546 91.0267 4.30536 92.0321 4.29706C92.9413 4.28329 93.8513 4.30032 94.7597 4.26981C95.7444 4.23663 96.7297 4.19886 97.7111 4.09606C98.3843 4.02556 99.0542 3.93699 99.7255 3.84708C100.568 3.72754 101.392 3.50673 102.182 3.18944C102.991 2.87261 103.776 2.50054 104.566 2.1378C105.075 1.90363 105.588 1.6819 106.104 1.46342C106.427 1.33515 106.756 1.22342 107.091 1.12868C107.521 1.01163 107.968 0.97398 108.412 1.01759C108.567 1.02816 108.717 1.07255 108.853 1.14764C109.463 1.4735 109.819 1.96036 109.834 2.67251C109.835 3.08005 109.738 3.48178 109.551 3.84426C109.422 4.1042 109.267 4.35035 109.088 4.57893C108.697 5.08393 108.248 5.54195 107.752 5.94383C106.777 6.73856 105.709 7.41181 104.571 7.94875C103.177 8.61864 101.7 9.1 100.179 9.38015C99.1892 9.56307 98.1848 9.65288 97.1786 9.6484C96.7144 9.64691 96.249 9.65625 95.7863 9.62603C95.2086 9.58826 94.6299 9.53272 94.0564 9.45244C93.3104 9.34787 92.5698 9.20538 91.8249 9.09088C91.443 9.03163 91.0582 8.98202 90.673 8.95758C89.7808 8.89807 88.889 9.08033 88.0917 9.48517C87.9192 9.57152 87.7444 9.65432 87.5769 9.74956C85.9584 10.6566 84.2707 11.4343 82.5296 12.0753C81.5543 12.4419 80.5672 12.7777 79.5859 13.1289C79.4954 13.1608 79.4076 13.2005 79.3238 13.2474C79.312 13.2609 79.3036 13.2772 79.2995 13.2947C79.2954 13.3122 79.2956 13.3305 79.3001 13.3479C79.3209 13.4016 79.349 13.4522 79.3838 13.4981C80.1127 14.5954 80.6367 15.8158 80.9304 17.1C81.1623 18.0386 81.3288 18.9921 81.4288 19.9537C81.5396 21.0111 81.6477 22.0689 81.7733 23.1247C81.8322 23.7216 81.9467 24.3117 82.1154 24.8873C82.2133 25.2212 82.355 25.5407 82.5367 25.8375C82.666 26.0541 82.8436 26.238 83.0556 26.3747C83.2675 26.5115 83.5082 26.5975 83.7589 26.6261C84.0084 26.6573 84.2606 26.66 84.5107 26.6341C85.0494 26.5786 85.5801 26.462 86.0924 26.2867C86.8801 26.0247 87.6643 25.7526 88.4529 25.4937C88.8009 25.3794 89.1571 25.29 89.5079 25.1835C89.8611 25.0802 90.2256 25.0201 90.5933 25.0045C91.3817 24.9626 92.0924 25.1544 92.5978 25.8205C92.8095 26.0978 93.0619 26.3416 93.3464 26.5436C93.8017 26.8694 94.2583 27.1972 94.7338 27.4928C95.5703 28.0132 96.4196 28.5134 97.2666 29.0158C98.6964 29.8632 100.129 30.7043 101.503 31.6424C102.307 32.1796 103.075 32.7689 103.803 33.4066C104.256 33.8 104.668 34.2388 105.032 34.7159C105.332 35.096 105.563 35.5254 105.716 35.9849C105.994 36.9044 105.854 37.7415 105.247 38.4928C104.993 38.8109 104.688 39.0847 104.344 39.3028C103.98 39.5481 103.547 39.6712 103.108 39.6541C102.67 39.6371 102.248 39.4809 101.904 39.2082C101.393 38.8187 101.007 38.2884 100.793 37.6826C100.713 37.4656 100.649 37.2418 100.592 37.0175C100.445 36.4735 100.161 35.9763 99.7664 35.5735C99.4325 35.2233 99.0741 34.8974 98.6938 34.5983C98.07 34.1091 97.422 33.6515 96.7522 33.2274C95.9236 32.6934 95.0892 32.1687 94.249 31.6535C93.7712 31.3621 93.2776 31.0957 92.7826 30.8341C92.5073 30.6939 92.2251 30.5678 91.937 30.4561C91.4152 30.2469 90.8602 30.1327 90.2982 30.119C89.7751 30.1081 89.2541 30.1902 88.7596 30.3613C88.3027 30.5175 87.8597 30.7115 87.435 30.9412C87.2648 31.0321 87.0955 31.1262 86.9323 31.2291C85.6778 31.9958 84.3169 32.5726 82.8936 32.9409C81.8503 33.231 80.7835 33.4284 79.7055 33.5309C78.8572 33.6037 78.0048 33.6167 77.1547 33.5697C76.0918 33.5169 75.0417 33.3139 74.0357 32.9668C72.9299 32.6014 71.9287 31.9743 71.1173 31.1388C70.7044 30.7033 70.3508 30.2153 70.0657 29.6872C69.6644 28.9591 69.2416 28.2442 68.7855 27.549C68.2407 26.7028 67.6179 25.9094 66.9255 25.1791C66.4337 24.658 65.876 24.2033 65.2665 23.8265C64.5747 23.3963 63.7953 23.1266 62.9855 23.0372C62.078 22.9226 61.1569 23.0771 60.3365 23.4815C59.9203 23.6871 59.5237 23.93 59.1515 24.2073C58.5976 24.6288 58.049 25.0573 57.5058 25.4927C56.7948 26.0598 56.0913 26.6348 55.3484 27.1599C54.3458 27.8856 53.2622 28.4922 52.1195 28.9677C51.0435 29.4011 49.918 29.7 48.7688 29.8577C47.5803 30.0204 46.3798 30.0776 45.1812 30.0286C44.4294 29.9999 43.6746 29.979 42.9261 29.8769C42.5432 29.8248 42.158 29.789 41.7736 29.7476C40.4655 29.6071 39.1709 29.3785 37.883 29.118C36.1797 28.7733 34.488 28.3721 32.8207 27.8765C32.6912 27.838 32.5622 27.7972 32.4356 27.7497C32.3812 27.7281 32.3321 27.6954 32.2912 27.6535C32.2504 27.6117 32.2188 27.5618 32.1986 27.5069C32.1484 27.3812 32.1085 27.2517 32.0792 27.1196C31.9853 26.7049 31.8986 26.2891 31.8081 25.8739C31.7836 25.7606 31.7517 25.6486 31.7299 25.5347C31.7266 25.5067 31.7147 25.4804 31.6958 25.4594C31.6769 25.4384 31.6519 25.4239 31.6243 25.4177C31.5726 25.405 31.5163 25.4918 31.5175 25.5833C31.5198 25.738 31.5252 25.8924 31.5298 26.0471C31.5485 26.6655 31.5651 27.2839 31.587 27.9021C31.5877 28.2696 31.5555 28.6364 31.4906 28.9982C31.455 29.2282 31.3737 29.4488 31.2515 29.6469C31.1751 29.783 31.057 29.891 30.9146 29.955C30.7722 30.019 30.6131 30.0356 30.4606 30.0024C30.1548 29.956 29.8539 29.8822 29.5613 29.7819C28.7171 29.5031 27.8915 29.1775 27.0721 28.8349C25.5228 28.1871 23.9743 27.5374 22.4265 26.8859C22.356 26.8562 22.2817 26.8358 22.2092 26.8111C22.1824 26.7846 22.1605 26.7465 22.1282 26.7329C20.8184 26.1815 19.5078 25.632 18.1964 25.0846C18.1411 25.0701 18.084 25.063 18.0267 25.0637V25.0637ZM30.9107 8.58743C30.8483 8.54424 30.7835 8.50468 30.7165 8.46894C28.7865 7.57952 26.7707 6.88966 24.7004 6.4101C24.6245 6.39781 24.5479 6.39113 24.471 6.39011C24.4435 6.39528 24.418 6.40785 24.3971 6.42646C24.3762 6.44506 24.3608 6.46901 24.3525 6.49571C24.3488 6.55363 24.3432 6.61154 24.3432 6.66946C24.3424 7.63637 24.3421 8.60328 24.3424 9.57019C24.3402 9.62822 24.3413 9.68632 24.3457 9.74423C24.346 9.79251 24.3586 9.83992 24.3823 9.88199C24.406 9.92407 24.44 9.95944 24.4811 9.98477C24.5486 10.0224 24.6127 10.0658 24.6795 10.1044C25.6164 10.6454 26.5535 11.1859 27.4907 11.726C27.6071 11.7931 27.7277 11.854 27.8584 11.9248C27.9929 11.8545 28.1319 11.7884 28.2643 11.7115C29.1835 11.1783 30.1018 10.6438 31.0193 10.1082C31.1022 10.0596 31.1792 10.0008 31.2589 9.9467C31.3182 9.95263 31.3459 9.93189 31.3265 9.86939C31.384 9.52469 31.3889 9.17328 31.3413 8.82708C31.3843 8.32505 31.3902 7.82052 31.3589 7.31762C31.2899 7.2798 31.2168 7.25027 31.1409 7.22964C30.8356 7.18654 30.5288 7.15351 30.2225 7.11796C30.2032 7.11666 30.1838 7.12028 30.1663 7.12847C30.1519 7.13491 30.1404 7.14626 30.1337 7.16047C30.1247 7.17783 30.1227 7.19793 30.1279 7.21675C30.1649 7.28376 30.2065 7.3481 30.2525 7.4093C30.5154 7.74198 30.7817 8.07213 31.0444 8.4051C31.0754 8.44957 31.1004 8.49799 31.1185 8.54907C31.1216 8.55633 31.0951 8.58743 31.081 8.58847C31.0244 8.59172 30.9676 8.58817 30.9107 8.58743ZM32.8888 21.4667C32.971 21.4938 33.0885 21.456 33.1133 21.5886C33.0571 21.6415 32.9981 21.6923 32.9448 21.7477C32.4609 22.2313 32.1743 22.8777 32.141 23.5611C32.1297 23.792 32.1312 24.0245 32.1429 24.2556C32.2072 25.1427 32.353 26.0219 32.5785 26.8823C32.6093 27.0118 32.6603 27.1366 32.7026 27.2658C33.1071 27.4063 33.5189 27.5244 33.9363 27.6198C33.9548 27.6241 33.9829 27.63 33.9926 27.6207C34.0169 27.5974 34.0557 27.5477 34.0495 27.5401C33.967 27.4076 33.9354 27.2497 33.9606 27.0957C33.9598 25.7811 33.9598 24.4663 33.9606 23.1514C33.9543 23.0938 33.9568 23.0355 33.968 22.9787C33.9895 22.9067 34.0266 22.8403 34.0766 22.7842C34.1359 22.7349 34.2015 22.6935 34.2716 22.6613C35.4072 22.0012 36.5428 21.3415 37.6783 20.682C37.7451 20.6433 37.8116 20.6038 37.881 20.5697C37.9155 20.5523 37.9537 20.5434 37.9923 20.5438C38.031 20.5442 38.069 20.5539 38.1031 20.5721C38.1722 20.6067 38.2384 20.6461 38.3052 20.6852L41.6151 22.601C41.6987 22.6494 41.7812 22.6995 41.8649 22.7476C41.898 22.7675 41.926 22.7949 41.9466 22.8276C41.9671 22.8603 41.9798 22.8974 41.9834 22.9359C41.9893 22.9936 41.9909 23.0517 41.9881 23.1096C41.9881 24.4822 41.9881 25.8547 41.9881 27.2273C41.9881 27.3031 41.977 27.3789 41.9733 27.4333C41.8966 27.531 41.7975 27.6087 41.6845 27.6601C41.149 27.9687 40.6142 28.2786 40.0802 28.5898C39.9799 28.6473 39.8829 28.7105 39.7897 28.779C39.7669 28.796 39.7695 28.8468 39.7569 28.8952C40.5715 29.0614 41.3949 29.1633 42.2193 29.2534C42.4653 29.2802 42.7139 29.348 42.9652 29.2651C43.0215 29.2525 43.0805 29.2596 43.1322 29.2852C43.2368 29.3348 43.3491 29.366 43.4642 29.3776C44.6776 29.4885 45.8971 29.5185 47.1145 29.4674C47.1491 29.4624 47.1819 29.4488 47.2098 29.4277C47.2233 29.4191 47.2369 29.3824 47.2322 29.3779C47.1806 29.3229 47.123 29.2737 47.0605 29.2313C46.2264 28.7446 45.3913 28.2596 44.5553 27.7762C44.3888 27.6795 44.2239 27.5798 44.0735 27.4905C44.0568 27.4475 44.045 27.4028 44.0382 27.3572C44.0353 25.9074 44.0339 24.4574 44.0339 23.0071C44.0387 22.9472 44.0481 22.8878 44.062 22.8294C44.1388 22.7759 44.2133 22.7153 44.2955 22.6679C45.4828 21.9819 46.671 21.2974 47.8602 20.6144C47.9213 20.5835 47.9844 20.557 48.0492 20.535C48.7737 20.9013 51.6642 22.582 52.0214 22.8427C52.0645 23.3961 52.0758 25.1147 52.0488 27.1897C52.0475 27.2847 52.0373 27.3797 52.03 27.493C51.1447 28.0092 50.2584 28.5209 49.3712 29.0281C49.2791 29.0322 49.1922 29.0718 49.1286 29.1384C49.1049 29.1569 49.0989 29.1992 49.0894 29.232C49.0883 29.2362 49.1182 29.2547 49.1351 29.2571C49.2992 29.2799 49.4629 29.2974 49.5953 29.1633C51.1835 28.8385 52.6982 28.2235 54.0634 27.3492C54.1059 27.1715 54.1191 26.988 54.1026 26.806C54.1046 25.6451 54.1026 24.4841 54.1049 23.3232C54.0836 23.1408 54.1013 22.956 54.1568 22.7809C55.4274 22.0495 56.7166 21.3072 58.007 20.5667C58.05 20.5519 58.0949 20.5431 58.1403 20.5408C58.2776 20.6165 58.4306 20.6977 58.5807 20.784C59.4516 21.2855 60.3209 21.7899 61.1927 22.2899C61.646 22.5499 61.5198 22.5245 62.0074 22.49C62.6838 22.4384 63.3641 22.5035 64.0185 22.6826C64.0926 22.703 64.1657 22.7238 64.2482 22.7469C64.4184 22.6528 64.5889 22.5622 64.7548 22.4654C65.7768 21.877 66.7964 21.2855 67.8196 20.7C67.9361 20.6003 68.0859 20.5483 68.2391 20.5544L72.1159 22.7917C72.1254 22.8966 72.1414 22.992 72.1416 23.088C72.1431 24.481 72.1431 25.8741 72.1416 27.2673C72.1371 27.3418 72.1281 27.416 72.1146 27.4894C72.0047 27.5579 71.908 27.621 71.8086 27.6793C71.3083 27.9723 70.8073 28.2642 70.3058 28.555C70.27 28.5718 70.2388 28.5972 70.215 28.6288C70.1912 28.6605 70.1755 28.6975 70.1694 28.7366C70.3357 29.0343 70.5 29.3412 70.6771 29.6401C70.7956 29.8393 70.9289 30.0288 71.061 30.2198C71.0731 30.2409 71.0892 30.2593 71.1084 30.2741C71.1276 30.2888 71.1495 30.2997 71.1729 30.3059C71.1963 30.3122 71.2207 30.3138 71.2447 30.3106C71.2688 30.3074 71.2919 30.2994 71.3128 30.2872C71.5646 30.1446 71.8164 29.9987 72.0672 29.8546C72.4029 29.6624 72.7387 29.4708 73.0744 29.2797C73.1086 29.2613 73.1469 29.2518 73.1857 29.2521C73.2245 29.2523 73.2627 29.2624 73.2966 29.2814C73.3661 29.315 73.4318 29.3563 73.4988 29.395L76.7608 31.2827C76.861 31.3408 76.9617 31.3986 77.0602 31.4597C77.1017 31.4848 77.1357 31.5205 77.1587 31.5632C77.1817 31.6059 77.1928 31.6539 77.1909 31.7023C77.1922 31.8572 77.1931 32.012 77.1936 32.1667C77.1946 32.3795 77.1936 32.5924 77.1965 32.8051C77.1989 32.9532 77.2635 33.0341 77.3907 33.0421C77.9505 33.083 78.5127 33.0769 79.0714 33.0238C79.1086 33.016 79.1426 32.9973 79.1691 32.9701C79.1956 32.943 79.2135 32.9085 79.2204 32.8711C79.2236 32.581 79.2232 32.2908 79.2275 32.0007C79.2299 31.8476 79.2395 31.6946 79.2459 31.5427C79.3374 31.4781 79.4118 31.4163 79.4944 31.3688C80.733 30.6554 81.9749 29.9413 83.2203 29.2267C83.349 29.2922 83.4712 29.3477 83.5869 29.4142C84.391 29.8767 85.1943 30.3408 85.9969 30.8065C86.0886 30.8769 86.1976 30.9212 86.3124 30.9345C86.3491 30.923 86.3847 30.9086 86.419 30.8914C86.9628 30.5597 87.5279 30.2642 88.1105 30.0068C88.1265 29.9997 88.1362 29.9784 88.1488 29.9637C88.2597 29.9341 88.3724 29.9107 88.4813 29.8749C89.1045 29.6625 89.7608 29.564 90.4188 29.5841C90.8634 29.5974 91.3037 29.6762 91.7254 29.8178C91.8318 29.8615 91.9477 29.8773 92.062 29.8639C92.1763 29.8504 92.2853 29.8081 92.3787 29.741C92.5861 29.6003 92.8116 29.4874 93.0304 29.3646C93.1134 29.318 93.2 29.2778 93.2788 29.2378C93.3383 29.2586 93.3964 29.2829 93.453 29.3105C94.6577 30.0042 95.8618 30.6992 97.0653 31.3956C97.1178 31.4153 97.1656 31.446 97.2053 31.4856C97.245 31.5253 97.2758 31.573 97.2956 31.6255C97.3008 32.022 97.3064 32.465 97.3119 32.8901C97.3404 32.926 97.3718 32.9595 97.4058 32.9902C97.9992 33.4219 98.5937 33.8521 99.1894 34.2808C99.2117 34.2966 99.261 34.2808 99.2955 34.2707C99.306 34.2677 99.314 34.2369 99.3142 34.2187C99.3201 33.6973 99.325 33.176 99.329 32.6547C99.3316 32.3261 99.3316 31.9975 99.3347 31.669C99.3354 31.6302 99.3455 31.5921 99.3639 31.558C99.3824 31.5238 99.4088 31.4946 99.4409 31.4728C99.5346 31.4052 99.6376 31.3506 99.7299 31.2814C99.7518 31.265 99.7476 31.2133 99.7595 31.1605C99.6025 31.0608 99.4424 30.9542 99.2774 30.8556C98.2498 30.2413 97.2186 29.6328 96.1933 29.0148C95.4492 28.5663 94.7089 28.1111 93.9726 27.6493C93.5452 27.3847 93.1381 27.0888 92.7546 26.7638C92.6078 26.6384 92.4691 26.5037 92.3214 26.3787C92.3048 26.3639 92.2547 26.3903 92.205 26.4006C92.2024 26.7247 92.2001 27.0523 92.1971 27.3795C92.1963 27.4181 92.1863 27.4559 92.1679 27.4898C92.1495 27.5237 92.1232 27.5527 92.0912 27.5743C92.0444 27.6081 91.9956 27.639 91.945 27.6669C90.7916 28.3334 89.6368 28.9983 88.4863 29.6703C88.4195 29.7083 88.3452 29.7312 88.2685 29.7374C88.1919 29.7435 88.1149 29.7328 88.0429 29.7059C87.9793 29.5994 87.8625 29.5641 87.7648 29.5075C86.7957 28.9447 85.8252 28.3847 84.8534 27.8276C84.703 27.7406 84.5553 27.649 84.4054 27.561C84.3648 27.5357 84.3299 27.5024 84.3027 27.463C84.2756 27.4236 84.2569 27.3791 84.2478 27.3321C84.2402 27.2941 84.2198 27.2599 84.19 27.2352C84.1602 27.2105 84.1227 27.1968 84.084 27.1965C83.9874 27.1916 83.8914 27.1848 83.7946 27.1775C83.3476 27.1495 82.9205 26.9827 82.5727 26.7004C82.4976 26.6397 82.4274 26.5723 82.3483 26.5176C82.3255 26.5019 82.2792 26.5203 82.227 26.5242C82.2247 26.7334 82.2247 26.9442 82.2189 27.155C82.2393 27.2843 82.2102 27.4165 82.1376 27.5253C80.9048 28.2386 79.6344 28.9739 78.3634 29.7072C78.3074 29.7319 78.2492 29.7511 78.1895 29.7645C78.1086 29.7236 78.0208 29.6844 77.9377 29.6366C76.7663 28.9613 75.5954 28.2849 74.4249 27.6073C74.3329 27.5711 74.2575 27.502 74.2133 27.4135C74.2093 27.3622 74.201 27.3046 74.201 27.247C74.2002 25.8547 74.2002 24.4624 74.201 23.0701C74.1942 23.0164 74.1982 22.9619 74.2125 22.9097C74.2269 22.8575 74.2514 22.8087 74.2847 22.766C75.5437 22.0426 76.8323 21.3012 78.123 20.5618C78.1646 20.5484 78.2081 20.5413 78.2518 20.541C78.3407 20.5888 78.4444 20.6406 78.5445 20.6983C79.164 21.0551 79.7795 21.4186 80.4031 21.7678C80.6001 21.8782 80.7734 22.0492 81.0177 22.0572C81.0954 22.0598 81.1004 21.9497 81.0399 21.3415C80.9997 20.9376 80.9651 20.5327 80.9086 20.1308C80.8364 19.6154 80.8606 19.7241 80.4955 19.5056C80.1972 19.327 79.8927 19.159 79.592 18.9831C79.4759 18.9149 79.3651 18.8379 79.2398 18.757C79.2351 18.5839 79.2263 18.4118 79.2262 18.2397C79.2248 17.118 79.2245 15.9963 79.2254 14.8746C79.2254 14.7199 79.2254 14.5652 79.2223 14.4105C79.2227 14.3135 79.1941 14.2185 79.1403 14.1378C79.0637 14.0265 78.9997 13.906 78.9194 13.7972C78.77 13.5954 78.6134 13.3987 78.458 13.2013C78.3182 13.0235 78.3383 12.9655 78.574 12.8864C78.7021 12.8436 78.8313 12.8039 78.9591 12.7612C80.553 12.2316 82.137 11.6746 83.6864 11.0238C83.9888 10.8969 84.289 10.765 84.587 10.6279C84.6288 10.6085 84.6493 10.5433 84.6793 10.5002L84.1866 10.1678V7.43182C84.1866 7.37376 84.1866 7.31569 84.1851 7.25778C84.1834 7.16891 84.1508 7.11425 84.1083 7.12447C84.0716 7.12805 84.0359 7.13808 84.0028 7.1541C83.4549 7.55082 82.8775 7.90515 82.2756 8.21403C82.2293 8.24543 82.1866 8.2819 82.1484 8.32274C82.1063 8.94484 82.1721 9.56308 82.1106 10.1788C82.0029 10.2469 81.9072 10.3121 81.8076 10.3699C80.6893 11.0216 79.5706 11.6725 78.4515 12.3225C78.3849 12.3613 78.3182 12.4009 78.2492 12.4345C78.2158 12.454 78.1781 12.4647 78.1395 12.4658C78.1009 12.4669 78.0627 12.4582 78.0283 12.4406C77.9099 12.3755 77.7914 12.3105 77.6746 12.243C76.6872 11.6736 75.7 11.1039 74.713 10.534C74.596 10.4664 74.4777 10.4007 74.3626 10.33C74.2497 10.2535 74.1129 10.2205 73.9775 10.237C73.9011 10.248 73.8231 10.2486 73.7464 10.2585C73.2696 10.3457 72.7803 10.3386 72.3063 10.2375C72.2209 10.2203 72.1329 10.2209 72.0478 10.2392C71.9626 10.2575 71.8822 10.2932 71.8114 10.344C71.1955 10.7065 70.5752 11.0616 69.9564 11.4193C69.438 11.7189 68.9108 12.0046 68.4046 12.3237C68.3043 12.3959 68.1833 12.4337 68.0598 12.4312C67.9363 12.4288 67.8168 12.3863 67.7195 12.3102C67.0928 11.9282 66.4524 11.5696 65.8172 11.201C65.6333 11.0945 65.4443 10.9963 65.266 10.8813C65.201 10.8393 65.1275 10.8124 65.0508 10.8025C64.9741 10.7926 64.8961 10.8 64.8226 10.8242C64.7853 10.8344 64.7495 10.8493 64.7121 10.859C63.2548 11.2404 61.8315 11.7416 60.4567 12.3575C59.6656 12.7166 58.856 13.0335 58.0313 13.3069C57.5544 13.4615 57.0711 13.5959 56.5787 13.7428C56.6045 13.7932 56.6172 13.8585 56.6568 13.8878C56.7493 13.9565 56.8564 14.0051 56.954 14.0675C56.9869 14.0879 57.0146 14.1156 57.035 14.1485C57.0554 14.1813 57.0679 14.2184 57.0716 14.2569C57.0765 14.3147 57.0781 14.3728 57.0765 14.4308C57.0765 15.7845 57.0765 17.1382 57.0765 18.4919C57.0926 18.5966 57.0693 18.7036 57.0111 18.7921C56.9686 18.8218 56.9087 18.8706 56.8427 18.9088C55.6722 19.586 54.5014 20.2624 53.3301 20.9381C53.2967 20.9573 53.2652 20.9798 53.232 20.9992C53.1811 21.0277 53.1234 21.0418 53.0651 21.0399C53.0068 21.038 52.9501 21.0203 52.9011 20.9886C52.85 20.9615 52.802 20.9293 52.7518 20.8997C51.6476 20.2625 50.5433 19.6256 49.4389 18.989C49.3553 18.9407 49.2743 18.8881 49.1919 18.8379C49.1504 18.8133 49.1164 18.7777 49.0939 18.7349C49.0714 18.6922 49.0611 18.6441 49.0643 18.5959C49.0643 18.4605 49.0622 18.3251 49.0622 18.1897C49.0622 17.0294 49.0619 15.8691 49.0613 14.709C49.0618 14.5934 49.0561 14.4778 49.044 14.3628C49.0399 14.3443 49.0319 14.3268 49.0203 14.3117C49.0088 14.2966 48.9941 14.2843 48.9773 14.2754C48.9075 14.2423 48.8331 14.2198 48.7566 14.2086C48.1433 14.1298 47.5345 14.0197 46.9324 13.8786C46.9148 13.8716 46.8953 13.8708 46.8771 13.8765C46.859 13.8822 46.8434 13.8939 46.8329 13.9097C46.78 13.9767 46.8367 14.0185 46.8724 14.0447C46.9217 14.0751 46.9623 14.1177 46.9904 14.1684C47.0185 14.219 47.0332 14.276 47.033 14.3339C47.0317 14.508 47.0425 14.6825 47.0322 14.8559C47.0259 15.0497 47.0834 15.2402 47.1961 15.398C47.4251 15.7559 47.6484 16.1171 47.874 16.4771C47.8664 16.5092 47.8496 16.5385 47.8256 16.5613C47.8017 16.5841 47.7717 16.5995 47.7392 16.6056L47.1522 16.0628C47.0767 16.0737 47.0389 16.106 47.0388 16.1731C47.0374 16.8306 47.0358 17.4882 47.034 18.1459C47.0333 18.3384 47.0282 18.531 47.025 18.737C46.893 18.8229 46.7683 18.9114 46.6368 18.9888C45.5526 19.6226 44.4676 20.2551 43.3819 20.8864C43.3151 20.9253 43.2474 20.9626 43.181 21.0023C43.131 21.0319 43.0736 21.0466 43.0155 21.0448C42.9574 21.043 42.901 21.0246 42.853 20.992C42.8193 20.973 42.7875 20.9508 42.754 20.9314C41.5663 20.2453 40.3786 19.559 39.1909 18.8726C39.1261 18.8296 39.064 18.7825 39.0052 18.7316C39.0021 18.55 38.9964 18.3761 38.9964 18.2032C38.9957 17.0426 38.9932 15.8821 38.9972 14.7216C38.9994 14.073 38.9154 14.2109 39.4894 13.8758C40.4071 13.3399 41.3254 12.8048 42.2443 12.2704C42.3588 12.2034 42.4636 12.1194 42.5757 12.0414C42.0939 11.5872 41.5779 11.1707 41.0324 10.7954C40.9979 10.779 40.9584 10.7764 40.922 10.7882C40.8333 10.8258 40.7472 10.8691 40.6642 10.9179C39.8446 11.3911 39.0251 11.8651 38.2055 12.3398C38.1028 12.4189 37.9766 12.4612 37.847 12.4601C36.6218 11.764 35.369 11.0363 34.1145 10.3124C34.0451 10.2658 33.9787 10.2148 33.9157 10.1598V9.76171C33.9157 9.29751 33.9184 8.8333 33.9157 8.3694C33.9105 7.61637 34.0025 7.76316 33.2901 7.60645C32.8941 7.51921 32.4918 7.461 32.0924 7.39064C32.0545 7.38557 32.0165 7.3825 31.9783 7.38146C31.9502 7.38284 31.9235 7.39393 31.9027 7.41284C31.8818 7.43175 31.8682 7.45731 31.8641 7.48514C31.8586 7.71665 31.8518 7.9483 31.8512 8.17996C31.8496 8.83716 31.8512 9.4942 31.8512 10.1578C31.7649 10.2206 31.6925 10.2834 31.6111 10.3308C30.4262 11.022 29.2406 11.712 28.0542 12.4007C27.9893 12.4314 27.9215 12.4556 27.8518 12.4731C27.2286 12.1621 24.1958 10.3995 23.8646 10.1553C23.8607 10.0144 23.853 9.86139 23.8529 9.70823C23.8517 8.76028 23.8515 7.81233 23.8522 6.86438C23.8522 6.7096 23.8514 6.55481 23.8477 6.40018C23.8477 6.35171 23.8307 6.30479 23.7998 6.26747C23.7689 6.23016 23.7259 6.20481 23.6783 6.19578C23.1061 6.10395 22.5344 6.00752 21.9601 5.92635C21.3276 5.84009 20.6908 5.78921 20.0526 5.77394C19.9764 5.77172 19.9005 5.75617 19.8115 5.74506C19.7455 5.62878 19.6813 5.51103 19.6124 5.39594C19.5285 5.24372 19.4363 5.09613 19.3365 4.95381C19.1141 4.65659 18.7882 4.45371 18.4234 4.38534C18.118 4.32694 17.8021 4.36092 17.5161 4.48295C17.1942 4.61764 16.9011 4.81266 16.6525 5.05749C16.3361 5.34366 16.0677 5.67871 15.8574 6.04988C15.7794 6.21535 15.6694 6.36376 15.5338 6.48656C15.3982 6.60936 15.2397 6.70414 15.0673 6.76544C13.9252 7.34999 12.9407 8.20121 12.1974 9.247C11.9734 9.56213 11.7813 9.89878 11.624 10.252C11.5397 10.4268 11.4982 10.6191 11.5029 10.8131C11.5076 11.0071 11.5583 11.1972 11.651 11.3677C11.7578 11.5735 11.8758 11.7745 11.9677 11.9867C12.0932 12.2503 12.1461 12.5426 12.1208 12.8335C12.0956 13.1243 11.9932 13.4032 11.8241 13.6412C11.6165 13.9449 11.371 14.2208 11.0935 14.4624C10.9643 14.5777 10.8309 14.6882 10.698 14.802C10.7037 14.8623 10.719 14.9212 10.7433 14.9766C10.8503 15.1376 10.9663 15.2923 11.0908 15.4401C11.7777 16.2099 12.6738 16.7631 13.6698 17.0322C14.0243 17.1351 14.3973 17.1578 14.7616 17.0986C15.201 17.0271 15.626 16.8857 16.0206 16.6797C16.3984 16.4859 16.7646 16.2691 17.1315 16.0561C17.6432 15.7448 18.1715 15.4615 18.714 15.2075C18.7505 15.1957 18.7845 15.1773 18.8144 15.1532C18.8578 15.1171 18.8901 15.0695 18.9077 15.0159C18.9192 14.9006 18.9241 14.7847 18.9225 14.6688C18.9133 14.4334 18.9213 14.1975 18.9467 13.9632C19.0229 13.9109 19.0983 13.8514 19.1805 13.8038C20.335 13.1369 21.49 12.471 22.6457 11.8062C22.7103 11.7642 22.7792 11.7294 22.8513 11.7025C22.906 11.6889 22.9632 11.6901 23.0172 11.706C23.072 11.7248 23.1242 11.7506 23.1723 11.7828C24.3433 12.4596 25.514 13.1369 26.6843 13.8148C26.7673 13.8628 26.8424 13.9243 26.9186 13.9777C26.9285 14.0374 26.9351 14.0975 26.9385 14.1578C26.9393 15.5896 26.9386 17.0209 26.9366 18.4518C26.929 18.5149 26.9152 18.5771 26.8954 18.6375C25.8618 19.2605 24.7974 19.8492 23.7603 20.4762C24.0471 21.1199 24.4166 21.7234 24.8594 22.2716C25.8874 21.7106 26.8858 21.0866 27.9328 20.5221C28.0569 20.587 28.1773 20.6449 28.2927 20.7113C29.2812 21.2793 30.2691 21.848 31.2567 22.4176C31.2981 22.4528 31.3468 22.4785 31.3993 22.4927C31.4518 22.507 31.5068 22.5094 31.5603 22.5C31.9042 22.0443 32.3626 21.6879 32.8888 21.4667ZM44.5193 23.1489C44.5193 24.4474 44.5193 25.7436 44.5193 27.0375C44.5202 27.0859 44.534 27.1332 44.5593 27.1744C44.5846 27.2156 44.6204 27.2494 44.6631 27.2722C44.7118 27.3034 44.7619 27.3329 44.812 27.3619C45.7984 27.9328 46.7851 28.5033 47.7719 29.0736C47.8555 29.1217 47.9442 29.1609 48.0285 29.2033C48.4559 29.0115 51.161 27.4446 51.5321 27.1741C51.5423 27.1578 51.5504 27.1402 51.5559 27.1218C51.5624 27.0836 51.5657 27.045 51.566 27.0063C51.566 25.7493 51.5651 24.4922 51.5633 23.2352C51.5629 23.2158 51.5599 23.1966 51.5544 23.178C51.5472 23.1574 51.539 23.1371 51.5297 23.1173C51.4926 23.077 51.4513 23.0407 51.4066 23.009C50.3183 22.383 49.2292 21.7586 48.1391 21.1359C48.0939 21.1195 48.0469 21.1086 47.9992 21.1034C46.8899 21.7255 45.7786 22.3869 44.6556 23.0289C44.6063 23.0644 44.5606 23.1047 44.5193 23.1492V23.1489ZM74.683 23.1318V26.8173C74.683 26.8753 74.6849 26.9333 74.683 26.9912C74.6755 27.049 74.6862 27.1077 74.7135 27.1591C74.7408 27.2106 74.7835 27.2523 74.8355 27.2785C74.8868 27.3049 74.9339 27.3394 74.9836 27.3684C75.9361 27.919 76.889 28.4692 77.8423 29.019C77.9589 29.0861 78.0806 29.1445 78.2085 29.2116C78.3284 29.1485 78.4487 29.09 78.5639 29.0233C79.5004 28.4836 80.4364 27.9429 81.3719 27.4013C81.4553 27.353 81.5408 27.3074 81.62 27.2532C81.6531 27.233 81.6805 27.2047 81.6997 27.171C81.7189 27.1374 81.7293 27.0994 81.7299 27.0606C81.7311 26.5776 81.7348 26.0945 81.7299 25.6115C81.726 25.5155 81.7079 25.4207 81.676 25.33C81.4713 24.6855 81.3303 24.0225 81.2552 23.3504C81.233 23.16 81.1881 22.972 81.1561 22.7972C81.1092 22.7623 81.0802 22.7359 81.047 22.7167C80.1449 22.1947 79.2424 21.6737 78.3394 21.1537C78.2827 21.1307 78.2234 21.1146 78.1628 21.1056C77.0715 21.7146 75.9935 22.3549 74.9065 22.9797C74.8423 23.0166 74.7818 23.0644 74.683 23.1321V23.1318ZM41.4709 23.1022C41.3953 23.0493 41.3509 23.0133 41.3016 22.9837C40.2828 22.3945 39.2637 21.8058 38.2441 21.2176C38.1941 21.1888 38.1439 21.1601 38.0919 21.1351C38.0564 21.1195 38.0179 21.112 37.9792 21.1133C37.9405 21.1146 37.9026 21.1246 37.8682 21.1425C37.8166 21.1685 37.7664 21.1974 37.718 21.2291L34.764 22.9428C34.7139 22.9724 34.6635 23.0003 34.6145 23.0308C34.5721 23.054 34.5364 23.0877 34.5109 23.1288C34.4855 23.1699 34.4711 23.2168 34.4692 23.2651C34.4656 23.3616 34.4637 23.4581 34.4637 23.5547C34.4637 24.6172 34.4637 25.6796 34.4637 26.742C34.4637 26.8386 34.4609 26.9355 34.4677 27.0318C34.4674 27.0799 34.4797 27.1273 34.5036 27.1691C34.5274 27.211 34.5618 27.2458 34.6034 27.2701C34.9885 27.4912 35.3755 27.7087 35.7537 27.9408C36.064 28.1368 36.4109 28.2678 36.7733 28.3259C36.8684 28.3407 36.9609 28.3703 37.0548 28.3895C37.5656 28.491 38.0768 28.587 38.5872 28.6939C38.6716 28.7115 38.7587 28.7123 38.8435 28.696C38.9282 28.6798 39.0089 28.647 39.0809 28.5994C39.8126 28.1687 40.5496 27.7475 41.2843 27.3219C41.3487 27.2846 41.4094 27.2405 41.4728 27.1988C41.4815 27.1073 41.4935 27.0316 41.4952 26.9556C41.5181 25.8409 41.5039 23.583 41.4715 23.1022H41.4709ZM43.0557 20.5063C44.1695 19.8568 45.2853 19.2059 46.4032 18.5538C46.4518 18.5221 46.4906 18.4773 46.5152 18.4246C46.5397 18.372 46.549 18.3135 46.542 18.2558C46.5426 17.4059 46.5426 16.5559 46.542 15.7058C46.542 15.6866 46.5406 15.6671 46.5401 15.6479C46.539 15.5899 46.5255 15.5328 46.5006 15.4805C46.4758 15.4281 46.44 15.3816 46.3958 15.3441C46.3662 15.3186 46.3425 15.288 46.3136 15.2623C45.3312 14.3908 44.3482 13.5198 43.3646 12.6493C43.2646 12.5604 43.1499 12.4896 43.016 12.3911C41.8459 13.0675 40.6787 13.7419 39.5157 14.432C39.5021 14.5097 39.4929 14.5881 39.4882 14.6669C39.4865 15.8647 39.4882 17.0624 39.4861 18.2602C39.4814 18.327 39.4967 18.3937 39.5301 18.4518C39.5634 18.5098 39.6134 18.5566 39.6735 18.5861C40.7278 19.1912 41.7781 19.8032 42.8307 20.4111C42.9036 20.4473 42.9785 20.4791 43.0551 20.5063H43.0557ZM24.4492 23.7625C24.4336 23.815 24.4226 23.8687 24.4163 23.9231C24.3894 24.7353 24.4082 26.7201 24.446 27.12C24.508 27.159 24.5723 27.1943 24.6385 27.2258C25.8674 27.736 27.0968 28.2457 28.3266 28.7548C28.4147 28.7926 28.511 28.8071 28.6062 28.7967C28.7015 28.7863 28.7924 28.7515 28.8702 28.6956C29.4999 28.3196 30.1403 27.9619 30.7743 27.5934C30.8782 27.5536 30.9642 27.4777 31.0167 27.3797C31.0167 27.2665 31.0193 27.1131 31.0167 26.9595C31.0031 26.264 30.9883 25.5686 30.9723 24.8732C30.9329 24.2621 31.0226 23.6495 31.2355 23.0752C31.2189 23.0264 31.1921 22.9816 31.1568 22.944C31.1215 22.9063 31.0785 22.8766 31.0308 22.8569C30.0611 22.298 29.0917 21.7385 28.1224 21.1785C28.0591 21.1482 27.9933 21.1234 27.9257 21.1044C27.8516 21.1373 27.7959 21.1558 27.7465 21.1842C26.9432 21.6458 26.1405 22.1082 25.3384 22.5715C25.2885 22.6004 25.2406 22.633 25.192 22.6644C25.1698 22.6821 25.153 22.7057 25.1436 22.7325C25.1342 22.7593 25.1326 22.7882 25.1389 22.8159C25.1833 22.9014 25.2338 22.9841 25.2753 23.0712C25.3335 23.1927 25.3908 23.3152 25.4391 23.4408C25.4499 23.4727 25.4536 23.5066 25.4501 23.5402C25.4466 23.5737 25.4359 23.6061 25.4188 23.6351C25.4016 23.6641 25.3784 23.6891 25.3507 23.7084C25.3231 23.7276 25.2916 23.7407 25.2584 23.7467C25.1251 23.7628 24.9909 23.7696 24.8567 23.767C24.7231 23.7662 24.5913 23.7016 24.4492 23.7625ZM49.5859 18.5069C50.7002 19.15 51.7705 19.7682 52.8414 20.3854C52.917 20.4444 53.0099 20.477 53.1058 20.4782C53.1437 20.4673 53.1806 20.4535 53.2163 20.4367C54.3025 19.8083 55.3887 19.1793 56.4749 18.5497C56.4923 18.5414 56.5084 18.5306 56.5227 18.5177C56.5414 18.4881 56.5576 18.4569 56.571 18.4245C56.5746 18.3143 56.5836 18.1613 56.5839 18.0081C56.5852 17.0415 56.5912 16.0746 56.5826 15.108C56.575 14.2617 56.7095 14.5135 55.951 14.054C55.9344 14.0441 55.916 14.0368 55.9005 14.0256C55.8449 13.9868 55.7813 13.961 55.7144 13.9502C55.6475 13.9395 55.579 13.9439 55.514 13.9634C54.4737 14.183 53.4171 14.317 52.3548 14.3642C51.5634 14.4162 50.7691 14.4063 49.9792 14.3345C49.9215 14.3292 49.8636 14.327 49.8057 14.328C49.7488 14.334 49.6953 14.3579 49.653 14.3964C49.6106 14.4349 49.5816 14.4858 49.5702 14.5419C49.5662 14.5997 49.5616 14.6574 49.5616 14.7152C49.5611 15.8753 49.5611 17.0355 49.5616 18.196C49.5622 18.2902 49.5763 18.385 49.5859 18.5072V18.5069ZM19.4639 14.8974C19.6236 14.8678 19.776 14.8503 19.923 14.8109C20.1863 14.746 20.4586 14.7259 20.7285 14.7516C21.6689 14.8196 22.5172 15.6735 22.557 16.6179C22.5821 17.1385 22.6627 17.6549 22.7973 18.1583C22.9479 18.7581 23.1602 19.3406 23.4308 19.8966C23.4372 19.9146 23.4473 19.9309 23.4605 19.9447C23.4737 19.9585 23.4896 19.9693 23.5072 19.9765C23.5248 19.9837 23.5438 19.9872 23.5628 19.9866C23.5818 19.986 23.6005 19.9815 23.6177 19.9732C23.6861 19.938 23.7545 19.9026 23.8212 19.8639C24.5893 19.4196 25.3572 18.9744 26.1249 18.5285C26.1749 18.4989 26.2234 18.4678 26.2739 18.4396C26.3342 18.4081 26.3834 18.359 26.415 18.2988C26.4466 18.2386 26.4591 18.1701 26.4507 18.1026C26.4488 18.0641 26.4507 18.0255 26.4507 17.9868C26.4507 16.8665 26.4507 15.7461 26.4507 14.6257C26.4541 14.5485 26.4525 14.4712 26.446 14.3942C26.443 14.346 26.4279 14.2993 26.402 14.2585C26.3761 14.2178 26.3403 14.1842 26.2979 14.1611C26.2299 14.125 26.166 14.081 26.0992 14.0426C25.1474 13.4916 24.1954 12.941 23.2431 12.3908C23.1442 12.3335 23.0418 12.2821 22.9378 12.2262C22.6388 12.3658 22.3489 12.5241 22.0699 12.7002C21.7656 12.8676 21.4688 13.0483 21.168 13.2217C20.8839 13.3857 20.5955 13.5424 20.3151 13.7124C20.008 13.8752 19.7106 14.0559 19.4246 14.2535C19.4251 14.4699 19.374 14.6789 19.4639 14.8974ZM101.649 8.44627C101.666 8.40481 101.677 8.36157 101.684 8.31741C101.687 7.52528 101.688 6.73315 101.688 5.94102C101.69 5.89253 101.679 5.8445 101.655 5.80204C101.632 5.75958 101.597 5.72427 101.555 5.69988C101.374 5.58938 101.189 5.48555 101.005 5.37921C100.537 5.10815 100.07 4.83729 99.6021 4.56663C99.4684 4.48933 99.3124 4.45987 99.1597 4.4831C98.5657 4.55552 97.9732 4.64602 97.3741 4.67298C97.1622 4.68246 96.9511 4.71416 96.7396 4.73445C96.624 4.74422 96.5121 4.77964 96.4119 4.83813C95.9121 5.13012 95.4108 5.41964 94.908 5.70669C94.8403 5.74361 94.785 5.79973 94.7491 5.868C94.7132 5.93626 94.6984 6.01362 94.7064 6.09032C94.7107 6.92116 94.7107 7.752 94.7064 8.58284C94.7047 8.96232 94.7392 9.0146 95.1245 9.03712C96.0701 9.09236 97.0154 9.11117 97.963 9.07237C99.0825 9.02296 100.194 8.85691 101.279 8.57691C101.409 8.54403 101.533 8.48804 101.649 8.44627ZM69.9041 28.1843C70.0672 28.1321 70.2213 28.055 70.3607 27.9557C70.4978 27.8846 70.629 27.8024 70.7624 27.7248C70.9129 27.6374 71.0653 27.5533 71.2127 27.4613C71.3706 27.3856 71.5168 27.2879 71.6471 27.171C71.6507 27.0718 71.6572 26.9762 71.6574 26.8805C71.658 25.7395 71.658 24.5986 71.6574 23.4577C71.6574 23.3804 71.6559 23.303 71.6531 23.2257C71.6523 23.1871 71.6418 23.1492 71.6226 23.1157C71.6033 23.0822 71.5758 23.0541 71.5427 23.0341C71.4451 22.9719 71.3444 22.9147 71.2441 22.8563C70.3074 22.3154 69.3685 21.7782 68.4355 21.2307C68.3597 21.1732 68.2678 21.1406 68.1727 21.1374C68.0775 21.1343 67.9838 21.1606 67.9042 21.213C67.0057 21.7426 66.0972 22.2559 65.1937 22.7765C65.1122 22.8233 65.0362 22.8802 64.967 22.9258C64.9678 23.0358 65.0316 23.0723 65.1023 23.1086C66.0275 23.5984 66.8549 24.254 67.5434 25.0425C67.8919 25.4302 68.2191 25.8381 68.5404 26.2491C68.9492 26.7881 69.3299 27.3478 69.6809 27.9261C69.7407 28.021 69.7803 28.1349 69.9041 28.1843ZM84.7047 6.66486C84.691 6.71478 84.6811 6.76569 84.6751 6.81713C84.674 7.8031 84.6746 8.78922 84.6769 9.77548C84.6848 9.83157 84.7002 9.88636 84.7225 9.93841C84.8771 10.0273 85.0282 10.1139 85.1777 10.2026C85.2272 10.2334 85.284 10.2502 85.3423 10.2513C85.4005 10.2523 85.458 10.2376 85.5086 10.2087C86.0067 9.95307 86.504 9.69599 87.0004 9.43747C87.2399 9.31246 87.4735 9.17546 87.7148 9.054C88.7137 8.52807 89.8477 8.31487 90.9694 8.44213C91.1228 8.46049 91.2776 8.47071 91.4321 8.47634C91.4819 8.47217 91.531 8.46116 91.5778 8.44361C91.5954 8.40344 91.6079 8.36125 91.615 8.318C91.6159 7.50602 91.615 6.69394 91.6123 5.88177C91.6043 5.83439 91.5908 5.78811 91.5721 5.74387C91.1791 5.50585 90.7596 5.26989 90.3434 5.02817C90.2246 4.96236 90.0881 4.93543 89.9531 4.95115C89.317 4.99761 88.6852 5.09168 88.0631 5.23257C86.8659 5.5019 85.7278 5.98727 84.7047 6.66486V6.66486ZM100.317 4.31187C100.31 4.41644 100.382 4.45391 100.444 4.48961C100.927 4.77103 101.413 5.0495 101.898 5.32899C102.014 5.37958 102.112 5.46515 102.178 5.57383V6.00545C102.178 6.62389 102.178 7.24223 102.179 7.86047C102.179 7.91838 102.179 7.97645 102.179 8.03436C102.182 8.21358 102.225 8.29771 102.419 8.23076C103.046 8.02334 103.658 7.77328 104.251 7.48232C104.261 7.36798 104.278 7.25437 104.279 7.14062C104.282 6.69627 104.279 6.25191 104.281 5.80756C104.286 5.71828 104.295 5.62928 104.309 5.54095C105.005 5.09497 107.881 3.43961 108.302 3.24291C108.397 3.29075 108.501 3.34007 108.602 3.39473C108.703 3.44938 108.803 3.51144 108.904 3.56788C108.938 3.58338 108.978 3.58493 109.014 3.57218C109.05 3.55944 109.079 3.5334 109.096 3.49945C109.229 3.24055 109.293 2.95175 109.282 2.66095C109.28 2.50627 109.246 2.35367 109.181 2.21334C109.093 2.01848 108.952 1.85175 108.776 1.73152C108.599 1.61129 108.392 1.54225 108.178 1.532C108.005 1.51882 107.831 1.52778 107.66 1.55866C107.433 1.59925 107.21 1.66635 106.988 1.72885C106.599 1.84404 106.22 1.98761 105.852 2.15839C105.2 2.45018 104.551 2.74558 103.903 3.04458C102.746 3.57928 101.57 4.06289 100.317 4.31187ZM103.353 37.9225C103.607 37.799 105.037 36.9916 105.212 36.8681C105.251 36.8393 105.281 36.7995 105.298 36.7539C105.315 36.7082 105.318 36.6587 105.306 36.6114C105.247 36.2284 105.115 35.8604 104.916 35.5276C104.689 35.1452 104.418 34.7899 104.11 34.4686C103.765 34.1032 103.396 33.7598 103.008 33.4404C102.229 32.8051 101.414 32.2147 100.568 31.672C100.522 31.6372 100.471 31.609 100.417 31.5883C100.363 31.569 100.305 31.5663 100.25 31.5804C100.161 31.619 100.076 31.6638 99.994 31.7145C99.9419 31.7405 99.8985 31.7812 99.8692 31.8315C99.8399 31.8818 99.8258 31.9395 99.8289 31.9977C99.828 32.8291 99.8343 33.6606 99.8219 34.492C99.8163 34.6062 99.8362 34.7203 99.8802 34.8258C99.9241 34.9314 99.991 35.0259 100.076 35.1024C100.426 35.4379 100.71 35.8356 100.915 36.2752C100.97 36.3975 101.022 36.5215 101.065 36.6201C101.777 37.0678 102.941 37.73 103.353 37.9225ZM54.6006 23.1295C54.5959 23.2231 54.5885 23.3001 54.5885 23.377C54.5877 24.4783 54.5877 25.5793 54.5885 26.68C54.5885 26.7377 54.5951 26.7955 54.5993 26.8531C54.6024 26.895 54.6967 26.9313 54.7373 26.9053C54.8182 26.8536 54.902 26.8054 54.9783 26.7474C55.593 26.2799 56.2096 25.8142 56.8191 25.3403C57.3671 24.9132 57.903 24.4692 58.4528 24.0436C59.1464 23.4813 59.9233 23.0304 60.7555 22.7069C60.7219 22.6484 60.7065 22.5793 60.6648 22.5551C59.865 22.0879 59.0618 21.6267 58.2601 21.1628C58.2008 21.1304 58.1333 21.1163 58.066 21.1219C57.9987 21.1276 57.9345 21.1529 57.8814 21.1947C56.8643 21.7866 55.8461 22.3773 54.8266 22.9668C54.7486 23.0171 54.6731 23.0714 54.6006 23.1295ZM8.42395 23.1718C9.21119 23.0978 9.99977 23.0355 10.7855 22.9474C11.475 22.8702 12.1592 22.7445 12.8549 22.7241C12.8925 22.7189 12.9271 22.7005 12.9525 22.6723C12.9779 22.644 12.9924 22.6076 12.9934 22.5696C12.9957 21.9328 12.9969 21.2959 12.9969 20.6589C12.9969 20.5281 12.9393 20.4734 12.7884 20.4279C12.1578 20.2396 11.4965 20.1765 10.8417 20.2422C10.1687 20.2967 9.50045 20.3992 8.84208 20.549C8.24021 20.6838 7.65288 20.8768 7.08837 21.1253C6.84101 21.2339 6.60669 21.37 6.38985 21.5311C6.03096 21.8071 5.96401 21.962 5.9966 22.4268C6.00111 22.5041 6.02417 22.5791 6.06382 22.6456C6.10347 22.7121 6.15855 22.7681 6.2244 22.8088C6.46774 22.9677 6.74603 23.0651 7.03534 23.0926C7.49585 23.1508 7.95981 23.1773 8.42395 23.1718ZM91.7114 27.2065C91.7114 26.777 91.7129 26.3712 91.7105 25.9656C91.7204 25.8981 91.7045 25.8294 91.6661 25.7731C91.6277 25.7167 91.5696 25.6768 91.5032 25.6612C91.2841 25.585 91.0538 25.5455 90.8218 25.5442C90.3965 25.5516 89.9738 25.6137 89.5643 25.7291C88.8316 25.9089 88.1276 26.1768 87.4166 26.4225C86.8144 26.6299 86.2124 26.8394 85.593 26.9919C85.3682 27.0472 85.142 27.0971 84.9176 27.1548C84.8939 27.1609 84.8786 27.2003 84.8536 27.2317C84.8966 27.2703 84.9422 27.3058 84.9902 27.3381C86.044 27.9462 87.0985 28.5532 88.1537 29.159C88.1887 29.1736 88.2255 29.1836 88.2631 29.1886C88.6515 29.0189 91.1683 27.5767 91.7114 27.2065ZM40.4726 10.3746C40.3837 10.3065 40.2959 10.2321 40.2012 10.1672C39.658 9.80033 39.0842 9.48071 38.4863 9.21189C37.2544 8.66321 35.9749 8.2284 34.6637 7.9129C34.5866 7.90302 34.5087 7.90223 34.4314 7.91053C34.3951 8.14114 34.3845 8.37507 34.3999 8.60802C34.395 8.81997 34.3937 9.03252 34.3999 9.24492C34.407 9.47332 34.3651 9.70601 34.4427 9.93782C35.5959 10.6003 36.7413 11.2741 37.8903 11.917C38.2621 11.7472 39.6755 10.9518 40.3194 10.5491C40.3656 10.5156 40.4079 10.4771 40.4456 10.4343C40.4575 10.4159 40.4666 10.3957 40.4726 10.3746V10.3746ZM20.7707 23.1517C20.7223 23.1326 20.6728 23.1162 20.6226 23.1026C19.7187 22.8965 18.8291 22.632 17.9593 22.311C17.488 22.1383 17.0166 21.9654 16.5452 21.7925C16.4365 21.7529 16.3272 21.7149 16.2169 21.6801C16.1988 21.6745 16.1797 21.6732 16.1611 21.6766C16.1425 21.6799 16.125 21.6877 16.1101 21.6992C16.0951 21.7108 16.0832 21.7258 16.0753 21.7429C16.0674 21.7601 16.0638 21.7789 16.0647 21.7977C16.0663 22.397 16.0691 22.9963 16.073 23.5956C16.0771 23.6192 16.0839 23.6423 16.0933 23.6643C16.1731 23.7109 16.2556 23.7527 16.3402 23.7896C17.6595 24.2877 18.9607 24.83 20.2618 25.3731C20.3686 25.4176 20.4776 25.457 20.5869 25.4949C20.6348 25.5001 20.6831 25.4895 20.7245 25.4648C20.7659 25.44 20.798 25.4024 20.816 25.3577C20.8204 25.3389 20.8233 25.3197 20.8248 25.3004C20.8237 24.6236 20.8216 23.9468 20.8186 23.27C20.8091 23.2282 20.793 23.1883 20.7707 23.1517V23.1517ZM79.7185 32.3449C79.7185 32.4994 79.7161 32.6539 79.7194 32.8082C79.7215 32.9132 79.7981 32.9689 79.9173 32.9597C79.9751 32.9553 80.0333 32.9539 80.0904 32.9449C80.7201 32.8507 81.3494 32.7583 81.9715 32.6137C83.1574 32.3464 84.3113 31.9535 85.4138 31.4415C85.5008 31.4003 85.5845 31.3527 85.6644 31.299C85.6771 31.2904 85.6705 31.225 85.6519 31.2039C85.6125 31.1623 85.5669 31.127 85.5167 31.0994C85.0003 30.7978 84.4832 30.4973 83.9656 30.1979C83.7654 30.0819 83.5648 29.9663 83.3621 29.8547C83.3197 29.8311 83.2717 29.8195 83.2233 29.8211C83.1748 29.8227 83.1277 29.8375 83.087 29.8639C83.0537 29.8832 83.0215 29.9046 82.9881 29.9232C82.002 30.4915 81.0159 31.0598 80.0299 31.628C79.9617 31.6638 79.8958 31.7039 79.8327 31.7481C79.7998 31.7683 79.7722 31.7962 79.7524 31.8293C79.7325 31.8625 79.721 31.8999 79.7187 31.9384C79.7182 32.0747 79.7185 32.2098 79.7185 32.3449V32.3449ZM78.103 11.9291C78.1783 11.9022 78.2519 11.8706 78.3232 11.8345C79.4181 11.189 80.5263 10.5657 81.6097 9.91471C81.6273 9.85403 81.6395 9.79193 81.6463 9.72912C81.6491 9.40089 81.6479 9.07266 81.6463 8.74458C81.6488 8.70615 81.6411 8.66773 81.624 8.6332C81.6146 8.61866 81.6019 8.60652 81.5869 8.59773C81.5719 8.58894 81.5551 8.58374 81.5378 8.58254C81.4446 8.60108 81.3532 8.62774 81.2646 8.66223C80.6542 8.90129 80.0341 9.11172 79.4042 9.29351C78.0297 9.67416 76.6285 9.95098 75.2125 10.1216C75.2102 10.1575 75.2107 10.1935 75.2141 10.2293C75.2203 10.248 75.2335 10.2635 75.2508 10.2727C76.2004 10.8251 77.1511 11.3772 78.103 11.9291ZM92.1222 8.55514C92.4136 8.64812 92.714 8.71023 93.0184 8.74043C93.3606 8.79687 93.7026 8.85478 94.0447 8.91166C94.0634 8.91429 94.0825 8.91304 94.1007 8.90801C94.1189 8.90298 94.1358 8.89426 94.1505 8.8824C94.1652 8.87055 94.1773 8.8558 94.1861 8.83907C94.1948 8.82234 94.2001 8.804 94.2014 8.78517C94.2062 8.68889 94.2124 8.59261 94.2124 8.49634C94.2133 7.68599 94.2106 6.87564 94.2134 6.06528C94.2154 5.51873 94.1526 5.58035 94.644 5.29893C94.8435 5.18473 95.0353 5.05661 95.2289 4.93234C95.2374 4.927 95.2307 4.89531 95.2277 4.87635C95.2254 4.85991 95.22 4.83117 95.2129 4.83013C95.1193 4.81226 95.0243 4.80181 94.929 4.79888C93.8873 4.81764 92.8456 4.83863 91.8037 4.86183C91.6306 4.86553 91.4574 4.87131 91.2853 4.87664C91.2812 4.91975 91.2641 4.97366 91.2767 4.98181C91.4545 5.09719 91.6368 5.20472 91.816 5.31759C91.9114 5.37787 92.0028 5.44453 92.105 5.51459V6.1032C92.105 6.31551 92.105 6.52781 92.105 6.74011C92.105 6.93315 92.105 7.1261 92.105 7.31895C92.105 7.5312 92.1034 7.74346 92.105 7.95586C92.0969 8.15578 92.1026 8.35602 92.1222 8.55514ZM76.7017 32.4229H76.6919C76.6919 32.2687 76.695 32.1144 76.6907 31.9604C76.6899 31.912 76.6761 31.8647 76.6507 31.8235C76.6253 31.7823 76.5893 31.7488 76.5464 31.7263C76.2632 31.562 75.98 31.3978 75.6968 31.2337C74.9132 30.7806 74.1295 30.3274 73.3458 29.8743C73.2968 29.8432 73.24 29.8267 73.182 29.8267C73.124 29.8267 73.0672 29.8432 73.0183 29.8743C72.5681 30.1347 72.118 30.3951 71.6679 30.6555C71.6513 30.6649 71.6368 30.6778 71.6209 30.6883C71.6097 30.6969 71.6003 30.7076 71.5933 30.7199C71.5862 30.7321 71.5816 30.7456 71.5798 30.7596C71.578 30.7736 71.579 30.7878 71.5827 30.8014C71.5864 30.8151 71.5927 30.8278 71.6014 30.839C72.0694 31.3268 72.6192 31.7289 73.2259 32.027C74.2287 32.5253 75.312 32.8418 76.4253 32.9618C76.4825 32.9702 76.5408 32.9686 76.5975 32.957C76.6295 32.9498 76.6759 32.9126 76.6784 32.8846C76.692 32.731 76.6948 32.5768 76.7017 32.4229ZM23.9308 26.7945V26.5156C23.9308 25.6843 23.9308 24.8531 23.9308 24.0219C23.9308 23.9447 23.9296 23.8674 23.9261 23.7902C23.9244 23.7419 23.9056 23.6957 23.8731 23.6599C23.8405 23.6241 23.7963 23.6011 23.7483 23.5948C23.0234 23.4813 22.2984 23.3683 21.5732 23.2558C21.3887 23.2262 21.3244 23.2767 21.3214 23.4632C21.318 23.6557 21.3201 23.8497 21.3189 24.043C21.3158 24.5649 21.3139 25.0867 21.3068 25.6083C21.2989 25.6488 21.3004 25.6905 21.311 25.7303C21.3217 25.7701 21.3412 25.807 21.3682 25.8381C22.113 26.1558 22.8758 26.4819 23.6396 26.8059C23.6929 26.829 23.7498 26.8428 23.8077 26.8468C23.84 26.8481 23.8751 26.8191 23.9308 26.7946V26.7945ZM68.0914 11.914C68.1431 11.894 68.1936 11.8713 68.2428 11.846C69.1279 11.3361 70.0123 10.8252 70.896 10.3134C70.93 10.2964 70.9584 10.2699 70.9777 10.2372C70.9907 10.2092 70.9769 10.1689 70.9747 10.1264C70.0127 10.0779 69.0484 10.1111 68.092 10.2256C67.3823 10.2968 66.6775 10.4114 65.9818 10.5688C65.9554 10.5749 65.9351 10.6066 65.9123 10.626C65.9347 10.6609 65.9474 10.7031 65.9757 10.7215C66.4654 11.0385 67.7548 11.7634 68.0914 11.914ZM104.765 5.86236C104.765 6.27146 104.765 6.65805 104.765 7.04464C104.765 7.15943 104.847 7.19439 104.966 7.13484C104.983 7.12625 104.999 7.11514 105.017 7.10625C105.84 6.67609 106.617 6.16413 107.338 5.57813C107.775 5.22553 108.175 4.83039 108.534 4.39852C108.594 4.32368 108.649 4.24391 108.696 4.16005C108.704 4.14356 108.708 4.12545 108.707 4.10719C108.707 4.08892 108.702 4.071 108.693 4.05489C108.598 3.93242 108.461 3.85021 108.308 3.82457C108.231 3.82483 108.156 3.84884 108.094 3.89329C107.039 4.50077 105.985 5.11037 104.932 5.7221C104.873 5.76469 104.817 5.81158 104.765 5.86236H104.765ZM15.5445 21.4174C14.5068 20.9606 13.8716 20.7374 13.5202 20.7064C13.5054 20.7604 13.4955 20.8155 13.4906 20.8713C13.4906 21.4862 13.4927 22.1012 13.4968 22.7162C13.5036 22.7542 13.5162 22.791 13.5343 22.8251C14.1512 23.0283 14.7686 23.2333 15.3878 23.4324C15.4424 23.4382 15.4977 23.434 15.5508 23.4201C15.5867 22.7529 15.5846 22.0843 15.5445 21.4174V21.4174ZM92.7028 30.1267C92.7521 30.1781 92.8067 30.2241 92.8657 30.264C93.7441 30.7053 94.5964 31.1965 95.4187 31.7352C95.7777 31.9608 96.1342 32.1905 96.4936 32.4157C96.5583 32.4566 96.628 32.4893 96.7009 32.5128C96.7268 32.5211 96.7911 32.493 96.7954 32.4724C96.8325 32.2623 96.834 32.0475 96.7999 31.837C96.7406 31.7871 96.6787 31.7404 96.6146 31.697C95.5049 31.0223 93.7057 30.002 93.2927 29.8119C93.0796 29.8825 92.8801 29.989 92.7028 30.1268V30.1267ZM103.227 39.1115C103.471 39.1061 103.71 39.0388 103.921 38.9161C104.455 38.6364 104.882 38.1874 105.134 37.6393C105.142 37.6217 105.154 37.6019 105.152 37.5854C105.149 37.5767 105.144 37.5688 105.138 37.5624C105.131 37.556 105.123 37.5513 105.115 37.5487C105.079 37.5408 105.043 37.5429 105.009 37.5549C104.525 37.8347 104.04 38.1138 103.561 38.4021C103.497 38.4459 103.422 38.4687 103.344 38.4674C103.267 38.4661 103.192 38.4408 103.13 38.3949C102.999 38.3125 102.864 38.2389 102.73 38.1619C102.296 37.9114 101.862 37.6602 101.426 37.4135C101.404 37.4009 101.358 37.4235 101.326 37.4364C101.32 37.4416 101.314 37.4484 101.311 37.4562C101.308 37.464 101.306 37.4725 101.307 37.4809C101.481 37.9963 101.806 38.4476 102.24 38.7763C102.518 39.0021 102.868 39.121 103.227 39.1116V39.1115ZM79.7994 15.4755C79.7762 15.4756 79.7533 15.4793 79.7313 15.4864C79.725 15.4914 79.7199 15.4976 79.7163 15.5047C79.7127 15.5118 79.7107 15.5197 79.7105 15.5276C79.7085 16.4536 79.7074 17.3793 79.707 18.305C79.7045 18.3242 79.7063 18.3437 79.7123 18.3621C79.747 18.4285 79.769 18.5194 79.8249 18.5534C80.087 18.713 80.3581 18.858 80.6291 19.003C80.6453 19.0118 80.7103 18.9762 80.7109 18.9601C80.7197 18.8458 80.7164 18.7309 80.7008 18.6174C80.6312 18.2383 80.5597 17.8593 80.4723 17.4841C80.326 16.8454 80.131 16.2188 79.889 15.6098C79.8641 15.5619 79.834 15.5169 79.7994 15.4755ZM29.2962 29.0725C29.5006 29.2418 29.7524 29.2671 29.9804 29.3476C30.1628 29.4046 30.3498 29.446 30.5392 29.4715C30.5869 29.4789 30.6357 29.4717 30.6792 29.4509C30.7227 29.4301 30.7589 29.3967 30.7832 29.355C30.9007 29.1564 30.9731 28.9344 30.9951 28.7047C31.0147 28.5528 31.0241 28.3997 31.0234 28.2465C31.0277 28.1263 30.9419 28.064 30.8474 28.1179C30.3653 28.3926 29.8841 28.6691 29.404 28.9474C29.3598 28.9739 29.3324 29.0302 29.2962 29.0725Z" fill="#FED136" stroke="#FED136" stroke-width="0.117161" stroke-miterlimit="10"/>
<path d="M92.0344 21.3218C92.502 21.3123 92.9628 21.4345 93.3642 21.6746C94.1002 22.1013 94.7955 22.5946 95.4414 23.1484C96.0299 23.6499 96.6047 24.1676 97.177 24.6875C97.7629 25.2215 98.3752 25.7257 99.0116 26.1983C100.317 27.1647 101.584 28.1807 102.791 29.2682C103.338 29.7601 103.867 30.2688 104.371 30.8046C104.503 30.9453 104.628 31.0931 104.756 31.2386C104.826 31.3192 104.873 31.4168 104.894 31.5216C104.914 31.6264 104.907 31.7347 104.873 31.8358C104.846 31.9188 104.798 31.993 104.733 32.0506C104.668 32.1082 104.588 32.147 104.502 32.1627C104.349 32.1888 104.191 32.167 104.05 32.1005C103.828 31.984 103.602 31.8734 103.387 31.745C102.459 31.1903 101.53 30.6369 100.609 30.0702C98.8985 29.0177 97.2011 27.9443 95.5169 26.8501C95.0784 26.567 94.6651 26.2465 94.2816 25.8924C94.1258 25.7477 93.9666 25.6066 93.8143 25.4583C93.1798 24.8402 92.4044 24.6042 91.5392 24.6333C91.0759 24.6547 90.6146 24.7084 90.1586 24.7938C89.1149 24.9889 88.0874 25.2625 87.0849 25.6123C86.5764 25.7951 86.058 25.9489 85.5322 26.0731C85.1937 26.1647 84.8354 26.1505 84.5053 26.0322C83.9571 25.8257 83.5052 25.4227 83.2377 24.9015C83.2191 24.8679 83.2024 24.8333 83.1876 24.7978C83.1563 24.7268 83.14 24.65 83.1397 24.5724C83.1393 24.4948 83.155 24.4179 83.1857 24.3466C83.2164 24.2752 83.2614 24.211 83.318 24.1579C83.3746 24.1047 83.4416 24.0638 83.5147 24.0377C84.0292 23.8185 84.5454 23.6024 85.0649 23.3949C86.4629 22.8363 87.8724 22.3095 89.3184 21.8855C89.9269 21.6964 90.5474 21.548 91.1756 21.4412C91.4607 21.3963 91.7478 21.3611 92.0344 21.3218ZM84.7766 24.1021C84.7454 24.5575 84.7461 25.0145 84.7787 25.4698C84.7809 25.4978 84.8251 25.535 84.8569 25.5454C84.9125 25.5613 84.9701 25.5691 85.028 25.5685C85.3764 25.5599 85.7212 25.4948 86.0488 25.3759C86.5089 25.2309 86.9661 25.0769 87.4263 24.9308C88.7545 24.5087 90.097 24.155 91.4995 24.0978C91.5375 24.0967 91.5746 24.0865 91.6078 24.0682C91.6383 24.0498 91.6773 24.0183 91.6819 23.9879C91.7254 23.68 91.7263 23.3675 91.6847 23.0592C91.1861 22.7553 90.6938 22.4557 90.1905 22.205C88.3363 22.7008 86.5709 23.3725 84.7768 24.1021H84.7766ZM100.351 28.048C100.356 28.0064 100.348 27.9645 100.33 27.9269C100.312 27.8894 100.283 27.8578 100.248 27.8357C99.6807 27.4003 99.1211 26.9552 98.5465 26.5302C97.9726 26.1038 97.4205 25.6486 96.8925 25.1665C96.449 24.7638 96.0041 24.3626 95.5578 23.9627C95.385 23.8084 95.2063 23.66 95.0256 23.5148C94.9833 23.479 94.9294 23.4596 94.8739 23.4603C94.8147 23.4677 94.796 23.5328 94.796 23.5936C94.796 24.212 94.798 24.8306 94.794 25.449C94.7928 25.5069 94.8055 25.5643 94.831 25.6164C94.8565 25.6685 94.8941 25.7137 94.9406 25.7483C95.1674 25.9281 95.3916 26.114 95.6341 26.2709C96.7696 27.0046 97.9083 27.7331 99.05 28.4562C99.1459 28.5174 99.2516 28.5633 99.3484 28.6141C99.6929 28.4439 100.028 28.255 100.351 28.048H100.351ZM94.2667 22.9142C94.088 22.7901 93.9018 22.6526 93.7074 22.5278C93.48 22.3816 93.2444 22.2481 93.0142 22.1059C92.7664 21.9502 92.4771 21.8736 92.1847 21.8863C91.838 21.9011 91.4927 21.9507 91.1479 21.9913C91.1229 21.9943 91.0996 22.0433 91.0836 22.0751C91.0783 22.0859 91.0927 22.1171 91.1064 22.1256C91.2686 22.228 91.4338 22.3257 91.5952 22.4288C91.8103 22.5343 92.0108 22.6672 92.1917 22.8242C92.1939 23.1742 92.1933 23.5414 92.2009 23.9082C92.2101 23.9816 92.2273 24.0538 92.2521 24.1235C92.916 24.2034 93.5393 24.4852 94.0378 24.9308C94.0799 24.9708 94.1278 25.0042 94.1797 25.0301C94.2064 25.0419 94.2479 25.0203 94.2834 25.0138C94.3199 24.3142 94.3143 23.6131 94.2668 22.9142H94.2667ZM99.8893 28.987C100.36 29.2772 100.837 29.5663 101.309 29.8636C101.817 30.1835 101.715 30.1489 102.228 29.8577C102.262 29.8387 102.295 29.8199 102.328 29.7996C102.345 29.7906 102.359 29.7778 102.37 29.7621C102.38 29.7464 102.387 29.7283 102.39 29.7094C102.392 29.6905 102.39 29.6714 102.383 29.6536C102.376 29.6357 102.365 29.6198 102.351 29.6071C101.884 29.2057 101.415 28.8054 100.945 28.4064C100.909 28.3836 100.871 28.365 100.831 28.351C100.524 28.5299 100.184 28.6677 99.9126 28.9185C99.9012 28.9291 99.9009 28.9516 99.8895 28.9876L99.8893 28.987ZM102.326 30.457C102.991 30.9296 103.94 31.4713 104.21 31.5298C104.219 31.5315 104.232 31.5105 104.253 31.4905C103.849 31.0248 103.417 30.5831 102.962 30.1677C102.918 30.1359 102.87 30.11 102.819 30.0907C102.409 30.3091 102.409 30.3091 102.326 30.4572L102.326 30.457Z" fill="#FED136" stroke="#FED136" stroke-width="0.117161" stroke-miterlimit="10"/>
<path d="M21.876 26.9874C21.8798 27.0258 21.8821 27.0644 21.8878 27.1027C21.9146 27.2272 21.8973 27.3571 21.8389 27.4703C21.7806 27.5835 21.6847 27.6729 21.5678 27.7233C21.3444 27.8364 21.1207 27.9521 20.8882 28.0436C18.7161 28.8977 16.5233 29.6931 14.2834 30.3543C13.3238 30.6471 12.3482 30.8848 11.3614 31.0661C10.8879 31.1636 10.405 31.2077 9.92173 31.1977C9.0141 31.1673 8.11402 31.0216 7.24318 30.764C7.0405 30.7016 6.84341 30.6223 6.65397 30.527C6.48281 30.4384 6.32103 30.3327 6.1711 30.2116C6.03171 30.1055 5.92397 29.9633 5.85949 29.8004C5.79501 29.6375 5.77626 29.46 5.80525 29.2872C5.82166 29.1331 5.8778 28.9859 5.96818 28.8599C6.09617 28.69 6.25001 28.5412 6.42409 28.419C6.90178 28.0884 7.44317 27.8611 8.01368 27.7516C8.82734 27.5764 9.66463 27.539 10.4907 27.6411C10.7206 27.6708 10.9482 27.716 11.172 27.7764C11.3213 27.8147 11.4769 27.821 11.6288 27.7948C12.0652 27.7135 12.494 27.5959 12.9107 27.4432C14.0609 27.0483 15.1759 26.5663 16.2895 26.0805C16.7137 25.8955 17.1324 25.6978 17.5544 25.5079C17.7126 25.4366 17.8733 25.3709 18.0326 25.3027C18.2399 25.335 18.4421 25.3944 18.6339 25.4794C19.5818 25.8777 20.5272 26.2837 21.4785 26.6749C21.636 26.7425 21.7731 26.8502 21.876 26.9874ZM11.1452 28.6346C11.1193 29.235 11.1262 29.8135 11.1388 30.3922C11.1398 30.4112 11.1447 30.4298 11.1532 30.4468C11.1617 30.4638 11.1737 30.4788 11.1884 30.4909C11.2031 30.503 11.2201 30.5119 11.2384 30.5171C11.2568 30.5222 11.276 30.5235 11.2948 30.5208C11.579 30.4679 11.8641 30.418 12.1463 30.3552C13.3718 30.0825 14.5707 29.7144 15.7632 29.326C16.4235 29.1111 17.0774 28.877 17.7345 28.6521C17.7738 28.6402 17.81 28.62 17.8407 28.5928C17.8714 28.5655 17.8958 28.532 17.9122 28.4944C17.247 28.0715 16.5469 27.7033 15.8695 27.2971C15.7214 27.2083 15.5655 27.1342 15.4307 27.0618C14.7772 27.3165 14.1505 27.5673 13.5188 27.8053C12.9628 28.0267 12.3882 28.1981 11.8018 28.3175C11.5575 28.3602 11.3299 28.47 11.1444 28.6346H11.1452ZM19.5803 26.678C19.4011 26.5776 19.216 26.4748 19.0316 26.3705C18.7629 26.2187 18.4955 26.0647 18.2258 25.9145C18.1922 25.8947 18.1544 25.8831 18.1155 25.8807C18.0766 25.8784 18.0377 25.8853 18.002 25.9008C17.3869 26.1783 16.7725 26.4576 16.1587 26.7387C16.1477 26.7471 16.1388 26.7579 16.1326 26.7702C16.1264 26.7825 16.123 26.796 16.1228 26.8098C16.1225 26.8236 16.1254 26.8372 16.1311 26.8497C16.1369 26.8623 16.1454 26.8733 16.156 26.8821C16.2354 26.9359 16.3136 26.9919 16.3964 27.04C17.0472 27.418 17.6989 27.7948 18.3515 28.1703C18.4506 28.2273 18.5555 28.274 18.6544 28.3239C19.3525 28.0531 20.0353 27.7879 20.7188 27.5241C20.9237 27.4594 21.1149 27.3572 21.2825 27.2226C21.2445 27.179 21.2005 27.1411 21.1517 27.1101C20.7629 26.9406 20.3717 26.7764 19.9816 26.6112C19.9089 26.5832 19.8282 26.5841 19.7561 26.6139C19.7006 26.6324 19.6476 26.653 19.5802 26.678H19.5803ZM10.6536 28.2332C9.96212 28.0817 9.24642 28.0784 8.55357 28.2235C8.53863 28.279 8.52848 28.3357 8.52321 28.3929C8.52143 28.7011 8.52321 29.0094 8.52513 29.3176C8.52711 29.6642 8.52978 30.0108 8.53313 30.3575C8.53477 30.3955 8.54865 30.4318 8.57268 30.4612C8.59671 30.4906 8.6296 30.5114 8.66644 30.5205C9.23502 30.6262 9.81382 30.6665 10.3916 30.6406C10.4107 30.6397 10.4298 30.6359 10.4489 30.6344C10.4967 30.6313 10.5416 30.6102 10.5745 30.5755C10.6075 30.5407 10.6261 30.4948 10.6266 30.4469C10.6293 29.9268 10.6277 29.4066 10.6317 28.8866C10.6324 28.6792 10.6444 28.4711 10.6528 28.2335L10.6536 28.2332ZM8.02553 30.3931C8.03279 30.217 8.04242 30.084 8.04286 29.9508C8.04405 29.5482 8.03931 29.1456 8.04168 28.7431C8.03971 28.6858 8.02146 28.6303 7.98906 28.5831C7.95666 28.5359 7.91145 28.4989 7.85876 28.4764C7.81805 28.4507 7.77215 28.4342 7.72435 28.4282C7.67654 28.4223 7.62801 28.427 7.58222 28.4419C7.19443 28.5546 6.83833 28.7562 6.54229 29.0309C6.48859 29.0853 6.44091 29.1454 6.40009 29.2101C6.35092 29.2817 6.32676 29.3675 6.33136 29.4543C6.33597 29.541 6.36908 29.6238 6.42557 29.6898C6.54678 29.8396 6.70216 29.9582 6.87866 30.0355C7.23987 30.2134 7.62653 30.3342 8.02479 30.3934L8.02553 30.3931Z" fill="#FED136" stroke="#FED136" stroke-width="0.117161" stroke-miterlimit="10"/>
<path d="M32.8888 21.4663C33.0221 21.3149 33.2147 21.2965 33.3924 21.2531C33.422 21.246 33.459 21.2734 33.5026 21.2884C33.4074 21.4268 33.271 21.5317 33.1127 21.5882C33.088 21.4559 32.971 21.4937 32.8888 21.4663Z" fill="#FED136" stroke="#FED136" stroke-width="0.117161" stroke-miterlimit="10"/>
<path d="M49.3706 29.0283C49.3982 29.0634 49.4192 29.1095 49.4549 29.1304C49.4996 29.1484 49.5468 29.1596 49.5949 29.1636C49.4623 29.2969 49.2986 29.2801 49.1345 29.2573C49.1176 29.2549 49.0877 29.2364 49.0889 29.2323C49.0979 29.1994 49.1037 29.1572 49.128 29.1387C49.1916 29.072 49.2785 29.0325 49.3706 29.0283Z" fill="#FED136" stroke="#FED136" stroke-width="0.117161" stroke-miterlimit="10"/>
<path d="M77.1946 18.7506C77.0732 18.8282 76.9944 18.8831 76.9117 18.9313C75.7761 19.5903 74.6405 20.2487 73.5049 20.9066C73.4381 20.9452 73.3716 20.9851 73.3028 21.0187C73.2681 21.0361 73.23 21.0453 73.1912 21.0456C73.1524 21.0459 73.1141 21.0372 73.0793 21.0202C73.0271 20.9957 72.9778 20.9652 72.9279 20.9365C71.7733 20.2717 70.619 19.6067 69.465 18.9414C69.3662 18.8845 69.2744 18.8155 69.1768 18.7501C69.1707 18.6222 69.1608 18.5074 69.1607 18.3926C69.1596 17.0975 69.1596 15.8026 69.1607 14.5078C69.1537 14.4308 69.1568 14.3532 69.1697 14.277C69.1916 14.2049 69.2294 14.1387 69.2802 14.0831C69.3249 14.0466 69.3748 14.017 69.4283 13.9953C70.614 13.3074 71.7998 12.6195 72.9855 11.9315C73.0351 11.9028 73.0873 11.8779 73.1273 11.8575C73.2084 11.8489 73.2898 11.8717 73.3548 11.9212C74.5575 12.6185 75.7603 13.3155 76.9633 14.012C76.9801 14.0216 76.9964 14.032 77.0136 14.0416C77.0743 14.0711 77.1247 14.1185 77.1578 14.1773C77.191 14.2362 77.2053 14.3038 77.199 14.371C77.1962 15.5693 77.198 16.7676 77.1978 17.966C77.1974 18.2153 77.1957 18.466 77.1946 18.7506ZM73.1895 12.399C73.0858 12.4534 73.0168 12.4861 72.9511 12.5242C71.9332 13.1135 70.9156 13.7033 69.8983 14.2937C69.8068 14.3323 69.7309 14.4005 69.6826 14.4873C69.6777 14.5366 69.6669 14.5938 69.6668 14.6511C69.6659 15.8479 69.6663 17.0448 69.668 18.2418C69.6743 18.3311 69.6878 18.4197 69.7083 18.5068C71.7308 19.711 72.7904 20.3092 73.2186 20.4862C73.358 20.4095 73.5101 20.3292 73.6591 20.2433C74.4273 19.7998 75.1949 19.3555 75.9621 18.9103C76.1623 18.7943 76.3611 18.6755 76.5616 18.5599C76.5952 18.5411 76.6237 18.5145 76.6448 18.4823C76.6658 18.4501 76.6788 18.4134 76.6827 18.3751C76.6906 18.3179 76.6945 18.2602 76.6944 18.2024C76.695 17.0249 76.6946 15.8473 76.6933 14.6696C76.6877 14.5828 76.6773 14.4962 76.6624 14.4104C75.5236 13.7463 74.3747 13.0795 73.1895 12.399Z" fill="#FED136" stroke="#FED136" stroke-width="0.117161" stroke-miterlimit="10"/>
<path d="M28.967 18.7756C28.9363 18.1326 28.9396 14.6635 28.9683 14.2001C28.9884 14.1672 29.0137 14.1378 29.0432 14.113C30.3397 13.3506 31.6378 12.589 32.9375 11.8281C33.0202 11.8662 33.0923 11.8926 33.1578 11.9305C34.3593 12.6277 35.5603 13.3256 36.7607 14.0241C36.7775 14.0337 36.795 14.0422 36.812 14.0512C36.8558 14.0716 36.893 14.104 36.9192 14.1447C36.9455 14.1853 36.9596 14.2326 36.9601 14.2809C36.9629 14.3581 36.964 14.4353 36.964 14.5126C36.964 15.8062 36.964 17.1001 36.964 18.3945C36.964 18.5096 36.9557 18.6248 36.9517 18.7294C36.6091 18.9849 34.1651 20.4389 33.1628 20.9825C33.0875 21.0161 33.0099 21.0443 32.9306 21.067L28.967 18.7756ZM32.9433 20.5056C33.0378 20.464 33.1291 20.4315 33.2124 20.3856C33.398 20.2819 33.5795 20.1722 33.7628 20.0649C34.596 19.5775 35.4274 19.0874 36.2643 18.6055C36.3337 18.5737 36.3919 18.5215 36.431 18.4558C36.4701 18.3902 36.4883 18.3142 36.4832 18.2379C36.4777 17.0395 36.481 15.8412 36.4792 14.6428C36.4752 14.5738 36.4665 14.5053 36.453 14.4375C36.4025 14.3945 36.3497 14.3543 36.2946 14.3174C35.2596 13.716 34.224 13.1156 33.1879 12.516C33.1545 12.4967 33.1224 12.4751 33.0888 12.4567C33.0553 12.4372 33.0177 12.426 32.9791 12.424C32.9404 12.4221 32.9018 12.4294 32.8666 12.4455C32.8148 12.4714 32.7644 12.5003 32.7158 12.5318C31.7314 13.1046 30.747 13.6778 29.7626 14.2516C29.696 14.2903 29.6314 14.3325 29.5659 14.3734C29.5243 14.3981 29.4901 14.4335 29.4669 14.4759C29.4437 14.5184 29.4324 14.5663 29.4341 14.6147C29.4326 15.1751 29.4319 15.7357 29.432 16.2962C29.432 16.9534 29.4335 17.6105 29.432 18.2677C29.4295 18.3351 29.4468 18.4018 29.4817 18.4595C29.5166 18.5172 29.5677 18.5635 29.6286 18.5925C30.3824 19.0246 31.1333 19.4615 31.8856 19.8959C32.2365 20.0992 32.588 20.3009 32.9433 20.5056Z" fill="#FED136" stroke="#FED136" stroke-width="0.117161" stroke-miterlimit="10"/>
<path d="M67.1243 18.7442C67.0316 18.8098 66.9572 18.8712 66.875 18.9191C65.7075 19.5981 64.5394 20.2759 63.3707 20.9527C63.3374 20.972 63.3043 20.9921 63.2698 21.0093C63.2276 21.0327 63.18 21.0447 63.1317 21.0441C63.0834 21.0436 63.0361 21.0304 62.9945 21.0061C62.3751 20.6512 61.7562 20.2957 61.1375 19.9396C60.5691 19.612 60.0014 19.2833 59.4342 18.9535C59.3343 18.8955 59.2379 18.8318 59.1402 18.771C59.1261 18.7135 59.1167 18.655 59.1119 18.596C59.1104 17.129 59.11 15.6602 59.1107 14.1896C59.1697 14.1364 59.2323 14.0873 59.2979 14.0426C60.4983 13.3433 61.6996 12.6455 62.9016 11.9491C62.9678 11.9108 63.0377 11.8783 63.1159 11.8379C63.1846 11.8705 63.2558 11.898 63.3209 11.9358C64.5074 12.6203 65.6935 13.3057 66.8791 13.992C66.931 14.0174 66.9795 14.0492 67.0234 14.0868C67.0662 14.1239 67.0968 14.1731 67.1111 14.2279C67.1229 14.3431 67.127 14.4589 67.1234 14.5747C67.124 15.8495 67.124 17.1243 67.1234 18.3991L67.1243 18.7442ZM66.639 14.42C65.4559 13.7387 64.3084 13.0643 63.146 12.4037C63.0659 12.4398 62.9937 12.4652 62.9287 12.5028C61.875 13.1121 60.8221 13.723 59.7701 14.3353C59.725 14.3547 59.6853 14.3849 59.6545 14.4231C59.6237 14.4614 59.6026 14.5066 59.5933 14.5548C59.5933 15.7667 59.5933 17.0432 59.5933 18.3188C59.5947 18.3766 59.6129 18.4328 59.6456 18.4805C59.6783 18.5282 59.7242 18.5653 59.7777 18.5875C60.8503 19.2024 61.9224 19.8184 62.994 20.4354C63.0463 20.4595 63.1004 20.4794 63.1559 20.4946C63.2937 20.4206 63.4313 20.3503 63.5647 20.2733C64.1504 19.9351 64.7353 19.5958 65.3196 19.2555C65.6871 19.0419 66.0516 18.823 66.4224 18.6153C66.4924 18.5834 66.5509 18.5308 66.5902 18.4646C66.6294 18.3984 66.6474 18.3218 66.6419 18.245C66.6349 17.3747 66.6389 16.5042 66.639 15.6338V14.42Z" fill="#FED136" stroke="#FED136" stroke-width="0.117161" stroke-miterlimit="10"/>
<path d="M18.4197 8.44254C18.3921 8.41261 18.3733 8.37562 18.3655 8.33566C18.3576 8.29571 18.361 8.25437 18.3752 8.21622C18.45 7.91381 18.6103 7.63933 18.8369 7.42557C19.6011 6.71461 20.4905 6.52339 21.4663 6.87413C22.2175 7.14415 22.5849 7.73869 22.6373 8.51927C22.6556 8.93026 22.5206 9.33341 22.2584 9.65044C22.0337 9.94317 21.7428 10.1785 21.4096 10.3371C21.3046 10.3832 21.1969 10.4228 21.0871 10.4556C21.0744 10.4599 21.051 10.4461 21.0387 10.4343C21.0264 10.4224 21.0154 10.3995 21.0202 10.389C21.0764 10.2669 21.1335 10.145 21.1948 10.0255C21.3817 9.643 21.51 9.23455 21.5753 8.81387C21.6226 8.54524 21.5944 8.26874 21.4937 8.01522C21.4431 7.86786 21.355 7.73618 21.2382 7.63312C21.1213 7.53005 20.9797 7.45914 20.8272 7.42735C20.4678 7.34202 20.0923 7.35178 19.7378 7.45566C19.3833 7.55955 19.062 7.75399 18.8055 8.01982C18.6678 8.15075 18.5482 8.3005 18.4197 8.44254Z" fill="#FED136" stroke="#FED136" stroke-width="0.117161" stroke-miterlimit="10"/>
<path d="M15.1755 12.4082C15.2555 12.5142 15.312 12.6359 15.3414 12.7654C15.3707 12.8949 15.3722 13.0292 15.3456 13.1593C15.335 13.2457 15.3035 13.3282 15.2538 13.3996C15.2041 13.4711 15.1378 13.5294 15.0605 13.5694C14.9282 13.6498 14.775 13.6893 14.6203 13.683C14.4281 13.6799 14.2385 13.638 14.0629 13.5598C13.8872 13.4816 13.7292 13.3688 13.5983 13.228C13.5523 13.1679 13.5186 13.0994 13.4991 13.0263C13.4986 13.0084 13.5023 12.9906 13.5098 12.9742C13.5172 12.9579 13.5283 12.9435 13.5422 12.9321C13.574 12.9109 13.6109 12.8986 13.6491 12.8965C14.165 12.8428 14.6635 12.6798 15.1115 12.4184C15.1321 12.4116 15.1537 12.4081 15.1755 12.4082V12.4082Z" fill="#FED136" stroke="#FED136" stroke-width="0.117161" stroke-miterlimit="10"/>
<path d="M63.3518 59.4134H57.5654V57.3778C57.6971 57.341 64.8349 57.3239 65.2284 57.3598C65.2352 57.4017 65.2397 57.444 65.2418 57.4864C65.2418 59.229 65.2512 60.9718 65.2384 62.715C65.2439 63.5589 65.1258 64.3991 64.8879 65.2088C64.7232 65.8047 64.4068 66.3476 63.9696 66.7846C63.3144 67.3669 62.4988 67.738 61.6293 67.8495C60.2618 68.0609 58.8787 68.1559 57.4951 68.1334C56.4305 68.1238 55.3678 68.0402 54.3148 67.8832C53.7943 67.8206 53.2864 67.679 52.8086 67.4632C52.2934 67.2282 51.8396 66.8769 51.483 66.437C51.1264 65.997 50.8768 65.4803 50.7537 64.9275C50.5604 64.1363 50.4619 63.3249 50.4602 62.5104C50.4579 59.2415 50.453 55.9724 50.4636 52.7036C50.4642 51.8712 50.5804 51.0429 50.8091 50.2426C50.9543 49.7133 51.218 49.2239 51.5801 48.8114C51.9422 48.3989 52.3934 48.0742 52.8994 47.8616C53.3291 47.6786 53.7816 47.5544 54.2445 47.4925C55.1894 47.3447 56.1432 47.2615 57.0995 47.2435C58.2149 47.2125 59.3312 47.2465 60.4428 47.3451C61.0391 47.3858 61.6308 47.4785 62.211 47.6222C62.8285 47.7907 63.4012 48.0932 63.8883 48.5084C64.2974 48.8755 64.6074 49.3396 64.7899 49.8581C64.9872 50.3866 65.1124 50.9393 65.1621 51.5013C65.2101 51.9593 65.2327 52.4196 65.2658 52.8788C65.2681 52.9114 65.2658 52.9442 65.2658 52.9985L63.3641 52.6134C63.3503 52.4113 63.341 52.2189 63.3232 52.0273C63.2841 51.4703 63.1698 50.9213 62.9834 50.395C62.9149 50.2079 62.7812 50.0518 62.6069 49.9552C62.1615 49.7134 61.6828 49.5387 61.1863 49.4368C60.2485 49.2187 59.2879 49.1143 58.3251 49.1258C57.6651 49.1228 57.0042 49.1335 56.3451 49.1661C55.4388 49.1913 54.5426 49.3636 53.6916 49.6763C53.4811 49.7619 53.2754 49.8587 53.0754 49.9665C52.9237 50.049 52.807 50.1835 52.7466 50.3452C52.6074 50.7003 52.5103 51.0705 52.457 51.4481C52.3774 51.9658 52.3404 52.4891 52.3465 53.0128C52.3511 56.276 52.3449 59.5393 52.352 62.8025C52.3599 63.475 52.4621 64.1431 52.6553 64.7873C52.7001 64.9552 52.7835 65.1102 52.8988 65.2402C53.0141 65.3701 53.1583 65.4712 53.3196 65.5356C53.7931 65.7457 54.2879 65.9039 54.7955 66.0075C55.4151 66.1323 56.0446 66.2019 56.6766 66.2157C57.3647 66.2322 58.0541 66.2425 58.7419 66.2289C59.7677 66.2187 60.7869 66.0641 61.7696 65.7697C62.108 65.6688 62.4306 65.5208 62.7278 65.33C62.8144 65.2756 62.8827 65.1965 62.9239 65.1029C63.1127 64.6508 63.2349 64.1737 63.2865 63.6865C63.3379 63.2741 63.3601 62.8586 63.3531 62.443C63.3488 61.5034 63.3518 60.5637 63.3518 59.6239V59.4134Z" fill="#D2D2D3"/>
<path d="M102.789 63.7559V47.2678C103.399 47.2239 104.01 47.2168 104.621 47.2465C104.625 47.2503 104.629 47.254 104.633 47.2582C104.637 47.2623 104.642 47.2665 104.643 47.2714C104.647 47.2936 104.65 47.3161 104.651 47.3388C104.651 54.241 104.651 61.1428 104.651 68.0439C104.649 68.07 104.645 68.096 104.64 68.1216H103.174L98.3949 59.8418L93.6121 51.5533C93.6015 51.5558 93.5913 51.5595 93.5816 51.5644C93.5778 51.568 93.5754 51.5728 93.5748 51.578C93.573 51.5893 93.5718 51.6006 93.5714 51.6119C93.5714 51.6232 93.5714 51.6348 93.5714 51.646C93.5714 57.1066 93.5714 62.5676 93.5714 68.0291C93.5714 68.0405 93.5713 68.0518 93.5705 68.0632C93.5701 68.0689 93.5695 68.0746 93.5685 68.0802C93.5681 68.0859 93.5672 68.0915 93.5657 68.097C93.5614 68.1059 93.5564 68.1146 93.5509 68.1229H91.7314V47.2468C91.7857 47.2428 91.8397 47.2352 91.8944 47.2351C92.2759 47.234 92.6576 47.2395 93.039 47.2317C93.0889 47.2274 93.1388 47.239 93.1817 47.2648C93.2246 47.2906 93.2581 47.3294 93.2776 47.3755C94.8897 50.1705 96.5039 52.9644 98.12 55.7572C99.638 58.3838 101.156 61.0098 102.675 63.6351C102.7 63.6795 102.728 63.721 102.755 63.7638L102.789 63.7559Z" fill="#D2D2D3"/>
<path d="M84.3696 56.6649V58.6975H73.5588C73.5502 58.7444 73.5443 58.7918 73.5412 58.8394C73.5422 60.0695 73.5333 61.2996 73.5505 62.5294C73.5441 63.2134 73.6334 63.8949 73.8157 64.5542C73.8848 64.7766 73.9729 64.9926 74.079 65.1998C74.2242 65.4884 74.4764 65.7088 74.7818 65.8139C75.1142 65.9323 75.4568 66.0195 75.8053 66.0746C76.4118 66.1757 77.026 66.2231 77.6408 66.2164C79.8106 66.2084 81.9806 66.2133 84.1501 66.2133H84.3655V68.1332C84.2996 68.1332 84.2335 68.1332 84.1673 68.1332L80.3065 68.1213C79.236 68.1181 78.1654 68.1186 77.095 68.1095C76.8395 68.1074 76.5841 68.0757 76.3291 68.0535C75.9195 68.0395 75.5125 67.9832 75.1145 67.8855C74.5377 67.7115 73.9543 67.5509 73.4467 67.2067C72.7096 66.7037 72.1848 65.9456 71.9735 65.0785C71.8192 64.5007 71.7272 63.9079 71.6992 63.3105C71.6708 62.7537 71.6583 62.1954 71.6576 61.6379C71.6536 58.7847 71.6532 55.9315 71.6564 53.0784C71.6466 52.3152 71.7073 51.5529 71.8376 50.8009C71.9048 50.4318 71.9979 50.0679 72.1162 49.7119C72.2531 49.2994 72.4798 48.9223 72.78 48.608C73.0803 48.2937 73.4465 48.0499 73.8524 47.8942C74.302 47.7154 74.7712 47.5904 75.2502 47.5217C76.1725 47.3766 77.1033 47.2925 78.0367 47.2699C78.7136 47.2483 79.3908 47.2367 80.0683 47.2351C81.4293 47.2301 82.7905 47.2336 84.1516 47.2336H84.3662V49.1405C84.2969 49.1429 84.2257 49.1475 84.1544 49.1475C81.8309 49.1475 79.5072 49.1399 77.1837 49.1522C76.4198 49.151 75.6595 49.2564 74.9248 49.4653C74.8429 49.4892 74.763 49.5195 74.6819 49.5459C74.431 49.6312 74.221 49.8068 74.0926 50.0385C73.9023 50.3766 73.7735 50.7458 73.7123 51.1288C73.5941 51.7845 73.5372 52.4498 73.5425 53.116C73.5359 54.2492 73.5406 55.3822 73.5409 56.5159C73.5409 56.5554 73.5445 56.595 73.5474 56.6542C73.9454 56.6785 74.3415 56.6616 74.737 56.6646C75.1412 56.6677 75.5455 56.6646 75.9499 56.6646H84.3698L84.3696 56.6649Z" fill="#D2D2D3"/>
<path d="M44.3752 68.1247H42.4895C42.4856 68.0679 42.4796 68.0182 42.4796 67.9688C42.4796 65.1842 42.4796 62.3995 42.4796 59.6149C42.4803 58.7156 42.4957 57.8163 42.4944 56.917C42.4929 55.38 42.4911 53.8428 42.4743 52.3058C42.4683 51.7586 42.3895 51.2147 42.2401 50.6883C42.1756 50.4274 42.0478 50.1863 41.868 49.9864C41.6883 49.7865 41.462 49.6339 41.2093 49.5422C40.8154 49.3931 40.406 49.2887 39.9887 49.2312C38.9555 49.094 37.912 49.0515 36.8711 49.1041C36.2221 49.1177 35.576 49.1948 34.942 49.3343C34.625 49.4037 34.3176 49.5115 34.0267 49.6552C33.8438 49.7426 33.6808 49.8665 33.5478 50.0194C33.4147 50.1723 33.3144 50.3508 33.253 50.5439C33.1411 50.9084 33.0607 51.2818 33.0128 51.66C32.953 52.1287 32.9278 52.6012 32.9374 53.0736C32.9416 54.127 32.9418 55.1805 32.9383 56.234C32.9365 57.1968 32.9272 58.1584 32.9278 59.1205C32.9298 62.0417 32.9334 64.9628 32.9387 67.8837C32.9387 67.9578 32.9387 68.0305 32.9387 68.1C32.3157 68.1458 31.6903 68.1526 31.0664 68.1203C31.0608 68.0864 31.0516 68.0493 31.0495 68.0119C31.0464 67.9665 31.0485 67.9209 31.0485 67.8753C31.0485 62.8472 31.0496 57.819 31.0519 52.7907C31.0578 51.9475 31.1741 51.1086 31.3979 50.2955C31.775 48.8903 32.6989 48.0381 34.0664 47.6302C34.642 47.4693 35.2315 47.3628 35.827 47.3119C36.6436 47.2387 37.4639 47.2137 38.2834 47.2369C39.1489 47.2379 40.0124 47.3216 40.862 47.4866C41.4895 47.6064 42.0887 47.844 42.6277 48.1869C43.2865 48.6198 43.7662 49.2767 43.9781 50.036C44.1544 50.6486 44.2703 51.2769 44.3244 51.9121C44.3675 52.4282 44.3842 52.9462 44.3745 53.4641C44.3745 58.2589 44.3745 63.0537 44.3745 67.8483L44.3752 68.1247Z" fill="#D2D2D3"/>
<path d="M12.7125 49.1823H12.4913C10.1564 49.1823 7.8215 49.1751 5.48672 49.1865C4.74034 49.1874 3.99692 49.2806 3.27339 49.4639C3.08248 49.51 2.90382 49.5968 2.74967 49.7185C2.59551 49.8402 2.46954 49.9938 2.38039 50.1688C2.15041 50.5956 2.00529 51.0628 1.95307 51.5448C1.88337 52.1498 1.85097 52.7585 1.85606 53.3675C1.85606 54.3869 1.85606 55.4063 1.85606 56.4257V56.6267H12.71V58.7004H1.85725C1.85576 59.2386 1.85724 59.76 1.8565 60.2814C1.8565 60.7996 1.8565 61.318 1.8565 61.8366V68.102C1.23846 68.1437 0.618423 68.1467 0 68.1112V67.9482C0 63.0051 0.000541072 58.062 0.00162727 53.119C-0.0114291 52.202 0.0815689 51.2865 0.27876 50.3908C0.389182 49.8599 0.603137 49.356 0.908404 48.9079C1.37883 48.2535 2.07454 47.7962 2.86178 47.6238C3.35524 47.5095 3.8562 47.4303 4.36088 47.3869C5.64783 47.27 6.93991 47.219 8.23207 47.234C9.65578 47.2379 11.0795 47.2349 12.5032 47.2349H12.7128L12.7125 49.1823Z" fill="#D2D2D3"/>
<path d="M22.9567 68.1248H21.1172V50.0967H22.9404C22.9764 50.2235 22.9941 67.667 22.9567 68.1248Z" fill="#D2D2D3"/>
<path d="M21.1182 47.2444H22.9567V48.9984H21.1382C21.0918 48.4149 21.0851 47.8288 21.1182 47.2444V47.2444Z" fill="#D2D2D3"/>
</svg>
