<svg width="385" height="191" viewBox="0 0 385 191" fill="none" xmlns="http://www.w3.org/2000/svg">
<g filter="url(#filter0_b_149_2605)">
<rect y="-0.000976562" width="385" height="141.731" rx="6.34615" fill="#0A0A19" fill-opacity="0.6"/>
<rect x="0.137406" y="0.136429" width="384.725" height="141.456" rx="6.20875" stroke="#6764FB" stroke-opacity="0.35" stroke-width="0.274811"/>
</g>
<mask id="mask0_149_2605" style="mask-type:alpha" maskUnits="userSpaceOnUse" x="0" y="-1" width="385" height="143">
<rect y="-0.000976562" width="385" height="141.731" rx="6.34615" fill="#0A0A19" fill-opacity="0.6"/>
<rect x="0.137406" y="0.136429" width="384.725" height="141.456" rx="6.20875" stroke="#6764FB" stroke-opacity="0.35" stroke-width="0.274811"/>
</mask>
<g mask="url(#mask0_149_2605)">
<path d="M-26.4424 76.3196C-18.3461 59.37 3.58137 30.5557 26.5209 50.8952C55.1952 76.3196 43.3881 107.288 72.3999 95.6269C101.412 83.966 74.821 68.6618 112.994 65.6146C137.245 63.6787 149.989 15.5305 169.555 39.4256C189.121 63.3207 191.82 80.334 213.073 65.6146C234.326 50.8952 242.085 39.6167 254.904 54.3361C267.723 69.0555 265.024 84.9219 284.928 76.3196C304.831 67.7174 298.421 80.9075 315.963 93.3329C333.505 105.758 365.216 130.992 371.288 107.67C377.36 84.3484 376.685 76.3196 395.577 76.3196" stroke="#8335DA" stroke-width="1.63396" stroke-linecap="round"/>
<path opacity="0.4" d="M26.5209 50.8952C3.58137 30.5557 -18.3461 59.37 -26.4424 76.3196V132.186H395.577V76.3196C376.685 76.3196 377.36 84.3484 371.288 107.67C365.216 130.992 333.505 105.758 315.963 93.3329C298.421 80.9075 304.831 67.7174 284.928 76.3196C265.024 84.9219 267.723 69.0555 254.904 54.3361C242.085 39.6167 234.326 50.8952 213.073 65.6146C191.82 80.334 189.121 63.3207 169.555 39.4256C149.989 15.5305 137.245 63.6787 112.994 65.6146C74.821 68.6618 101.412 83.9661 72.3999 95.6269C43.3881 107.288 55.1952 76.3196 26.5209 50.8952Z" fill="url(#paint0_linear_149_2605)"/>
<circle cx="301.442" cy="74.037" r="12.6923" fill="#8335DA"/>
<rect x="154.423" y="85.6719" width="120.846" height="31.2308" rx="6.34615" fill="#8335DA"/>
<path d="M177.138 102.3H174.006V100.656H177.138C177.684 100.656 178.124 100.568 178.46 100.391C178.796 100.215 179.042 99.9727 179.196 99.6642C179.356 99.3502 179.435 98.9921 179.435 98.59C179.435 98.2099 179.356 97.8546 179.196 97.524C179.042 97.188 178.796 96.9181 178.46 96.7142C178.124 96.5104 177.684 96.4085 177.138 96.4085H174.643V106.787H172.569V94.7559H177.138C178.069 94.7559 178.86 94.9211 179.51 95.2517C180.165 95.5767 180.664 96.0284 181.005 96.6068C181.347 97.1797 181.518 97.8353 181.518 98.5735C181.518 99.3502 181.347 100.017 181.005 100.573C180.664 101.13 180.165 101.556 179.51 101.854C178.86 102.151 178.069 102.3 177.138 102.3ZM185.178 99.5485V106.787H183.187V97.8463H185.087L185.178 99.5485ZM187.913 97.7885L187.897 99.6394C187.776 99.6174 187.644 99.6009 187.5 99.5898C187.363 99.5788 187.225 99.5733 187.087 99.5733C186.746 99.5733 186.445 99.6229 186.186 99.7221C185.928 99.8157 185.71 99.9534 185.534 100.135C185.363 100.311 185.231 100.526 185.137 100.78C185.043 101.033 184.988 101.317 184.972 101.631L184.517 101.664C184.517 101.102 184.572 100.581 184.683 100.102C184.793 99.6229 184.958 99.2015 185.178 98.8379C185.404 98.4743 185.685 98.1906 186.021 97.9868C186.363 97.783 186.757 97.681 187.203 97.681C187.324 97.681 187.453 97.6921 187.591 97.7141C187.734 97.7361 187.842 97.7609 187.913 97.7885ZM192.937 106.952C192.276 106.952 191.679 106.845 191.144 106.63C190.616 106.41 190.164 106.104 189.789 105.713C189.42 105.322 189.136 104.862 188.938 104.333C188.74 103.804 188.641 103.234 188.641 102.622V102.292C188.641 101.592 188.743 100.959 188.946 100.391C189.15 99.824 189.434 99.3392 189.797 98.937C190.161 98.5294 190.591 98.2181 191.087 98.0033C191.582 97.7885 192.119 97.681 192.698 97.681C193.337 97.681 193.896 97.7885 194.375 98.0033C194.855 98.2181 195.251 98.5211 195.565 98.9123C195.885 99.2979 196.122 99.7579 196.276 100.292C196.436 100.827 196.515 101.416 196.515 102.061V102.912H189.607V101.482H194.549V101.325C194.538 100.967 194.466 100.631 194.334 100.317C194.207 100.003 194.012 99.7496 193.747 99.5568C193.483 99.364 193.13 99.2676 192.69 99.2676C192.359 99.2676 192.064 99.3392 191.805 99.4824C191.552 99.6201 191.34 99.8212 191.169 100.086C190.998 100.35 190.866 100.67 190.773 101.044C190.684 101.413 190.64 101.829 190.64 102.292V102.622C190.64 103.014 190.693 103.377 190.797 103.713C190.908 104.044 191.067 104.333 191.277 104.581C191.486 104.829 191.739 105.024 192.037 105.168C192.334 105.305 192.673 105.374 193.053 105.374C193.532 105.374 193.959 105.278 194.334 105.085C194.709 104.892 195.034 104.619 195.309 104.267L196.358 105.283C196.166 105.564 195.915 105.834 195.607 106.093C195.298 106.346 194.921 106.553 194.474 106.713C194.034 106.872 193.521 106.952 192.937 106.952ZM203.523 104.936V94.0948H205.522V106.787H203.713L203.523 104.936ZM197.705 102.416V102.242C197.705 101.565 197.785 100.948 197.945 100.391C198.105 99.8295 198.336 99.3475 198.639 98.9453C198.942 98.5377 199.311 98.2264 199.746 98.0116C200.182 97.7912 200.672 97.681 201.217 97.681C201.757 97.681 202.231 97.7857 202.639 97.995C203.046 98.2044 203.393 98.5046 203.68 98.8957C203.966 99.2814 204.195 99.7441 204.366 100.284C204.536 100.818 204.658 101.413 204.729 102.069V102.622C204.658 103.261 204.536 103.845 204.366 104.374C204.195 104.903 203.966 105.36 203.68 105.746C203.393 106.132 203.043 106.429 202.63 106.638C202.223 106.848 201.746 106.952 201.201 106.952C200.661 106.952 200.173 106.839 199.738 106.614C199.308 106.388 198.942 106.071 198.639 105.663C198.336 105.256 198.105 104.776 197.945 104.226C197.785 103.669 197.705 103.066 197.705 102.416ZM199.697 102.242V102.416C199.697 102.824 199.733 103.204 199.804 103.556C199.881 103.909 200 104.22 200.16 104.49C200.319 104.754 200.526 104.964 200.779 105.118C201.038 105.267 201.347 105.341 201.705 105.341C202.157 105.341 202.528 105.242 202.82 105.044C203.112 104.845 203.341 104.578 203.506 104.242C203.677 103.9 203.793 103.52 203.853 103.102V101.606C203.82 101.281 203.751 100.978 203.647 100.697C203.547 100.416 203.413 100.171 203.242 99.9617C203.071 99.7468 202.859 99.5816 202.605 99.4659C202.358 99.3447 202.063 99.2841 201.721 99.2841C201.358 99.2841 201.049 99.3612 200.796 99.5155C200.542 99.6697 200.333 99.8818 200.168 100.152C200.008 100.422 199.89 100.736 199.813 101.094C199.735 101.452 199.697 101.835 199.697 102.242ZM209.737 97.8463V106.787H207.737V97.8463H209.737ZM207.605 95.4995C207.605 95.1966 207.704 94.9459 207.902 94.7476C208.106 94.5438 208.387 94.4419 208.745 94.4419C209.098 94.4419 209.376 94.5438 209.58 94.7476C209.783 94.9459 209.885 95.1966 209.885 95.4995C209.885 95.797 209.783 96.0449 209.58 96.2432C209.376 96.4416 209.098 96.5407 208.745 96.5407C208.387 96.5407 208.106 96.4416 207.902 96.2432C207.704 96.0449 207.605 95.797 207.605 95.4995ZM215.57 105.366C215.895 105.366 216.187 105.302 216.446 105.176C216.711 105.044 216.923 104.862 217.083 104.63C217.248 104.399 217.339 104.132 217.355 103.829H219.231C219.22 104.407 219.049 104.933 218.719 105.407C218.388 105.881 217.95 106.258 217.405 106.539C216.86 106.815 216.256 106.952 215.595 106.952C214.912 106.952 214.317 106.837 213.81 106.605C213.304 106.368 212.882 106.043 212.546 105.63C212.21 105.217 211.957 104.741 211.786 104.201C211.621 103.661 211.538 103.082 211.538 102.465V102.176C211.538 101.559 211.621 100.981 211.786 100.441C211.957 99.8956 212.21 99.4163 212.546 99.0032C212.882 98.59 213.304 98.2677 213.81 98.0364C214.317 97.7995 214.909 97.681 215.587 97.681C216.303 97.681 216.931 97.8243 217.471 98.1107C218.011 98.3917 218.435 98.7856 218.744 99.2924C219.058 99.7937 219.22 100.378 219.231 101.044H217.355C217.339 100.714 217.256 100.416 217.107 100.152C216.964 99.8818 216.76 99.667 216.496 99.5072C216.237 99.3475 215.926 99.2676 215.562 99.2676C215.16 99.2676 214.827 99.3502 214.562 99.5155C214.298 99.6752 214.091 99.8956 213.943 100.177C213.794 100.452 213.686 100.763 213.62 101.11C213.56 101.452 213.529 101.807 213.529 102.176V102.465C213.529 102.835 213.56 103.193 213.62 103.54C213.681 103.887 213.786 104.198 213.934 104.473C214.089 104.743 214.298 104.961 214.562 105.126C214.827 105.286 215.163 105.366 215.57 105.366ZM224.858 97.8463V99.3006H219.818V97.8463H224.858ZM221.272 95.6566H223.264V104.316C223.264 104.592 223.302 104.804 223.379 104.953C223.462 105.096 223.575 105.192 223.718 105.242C223.861 105.291 224.029 105.316 224.222 105.316C224.36 105.316 224.492 105.308 224.619 105.291C224.745 105.275 224.847 105.258 224.924 105.242L224.933 106.762C224.767 106.812 224.575 106.856 224.354 106.895C224.139 106.933 223.892 106.952 223.611 106.952C223.153 106.952 222.748 106.872 222.396 106.713C222.043 106.547 221.768 106.28 221.57 105.911C221.371 105.542 221.272 105.052 221.272 104.44V95.6566ZM228.527 97.8463V106.787H226.527V97.8463H228.527ZM226.395 95.4995C226.395 95.1966 226.494 94.9459 226.693 94.7476C226.897 94.5438 227.178 94.4419 227.536 94.4419C227.888 94.4419 228.166 94.5438 228.37 94.7476C228.574 94.9459 228.676 95.1966 228.676 95.4995C228.676 95.797 228.574 96.0449 228.37 96.2432C228.166 96.4416 227.888 96.5407 227.536 96.5407C227.178 96.5407 226.897 96.4416 226.693 96.2432C226.494 96.0449 226.395 95.797 226.395 95.4995ZM230.329 102.416V102.226C230.329 101.581 230.422 100.984 230.61 100.433C230.797 99.8763 231.067 99.3943 231.419 98.9866C231.777 98.5735 232.213 98.254 232.725 98.0281C233.243 97.7967 233.827 97.681 234.477 97.681C235.132 97.681 235.716 97.7967 236.229 98.0281C236.746 98.254 237.184 98.5735 237.542 98.9866C237.9 99.3943 238.173 99.8763 238.36 100.433C238.548 100.984 238.641 101.581 238.641 102.226V102.416C238.641 103.06 238.548 103.658 238.36 104.209C238.173 104.76 237.9 105.242 237.542 105.655C237.184 106.063 236.749 106.382 236.237 106.614C235.724 106.839 235.143 106.952 234.493 106.952C233.838 106.952 233.251 106.839 232.733 106.614C232.221 106.382 231.786 106.063 231.428 105.655C231.07 105.242 230.797 104.76 230.61 104.209C230.422 103.658 230.329 103.06 230.329 102.416ZM232.32 102.226V102.416C232.32 102.818 232.361 103.198 232.444 103.556C232.527 103.914 232.656 104.228 232.832 104.498C233.009 104.768 233.234 104.98 233.51 105.134C233.785 105.289 234.113 105.366 234.493 105.366C234.862 105.366 235.182 105.289 235.452 105.134C235.727 104.98 235.953 104.768 236.129 104.498C236.306 104.228 236.435 103.914 236.518 103.556C236.606 103.198 236.65 102.818 236.65 102.416V102.226C236.65 101.829 236.606 101.455 236.518 101.102C236.435 100.744 236.303 100.427 236.121 100.152C235.945 99.8763 235.719 99.6615 235.444 99.5072C235.174 99.3475 234.851 99.2676 234.477 99.2676C234.102 99.2676 233.777 99.3475 233.502 99.5072C233.232 99.6615 233.009 99.8763 232.832 100.152C232.656 100.427 232.527 100.744 232.444 101.102C232.361 101.455 232.32 101.829 232.32 102.226ZM242.285 99.7551V106.787H240.294V97.8463H242.17L242.285 99.7551ZM241.93 101.986L241.286 101.978C241.291 101.344 241.379 100.763 241.55 100.234C241.726 99.7055 241.969 99.2511 242.277 98.8709C242.591 98.4908 242.966 98.1989 243.401 97.995C243.836 97.7857 244.321 97.681 244.855 97.681C245.285 97.681 245.673 97.7416 246.02 97.8628C246.373 97.9785 246.673 98.1686 246.921 98.433C247.175 98.6974 247.367 99.0417 247.5 99.4659C247.632 99.8846 247.698 100.4 247.698 101.011V106.787H245.698V101.003C245.698 100.573 245.635 100.234 245.508 99.9865C245.387 99.7331 245.208 99.554 244.971 99.4494C244.74 99.3392 244.45 99.2841 244.103 99.2841C243.762 99.2841 243.456 99.3557 243.186 99.4989C242.916 99.6422 242.688 99.8377 242.5 100.086C242.319 100.334 242.178 100.62 242.079 100.945C241.98 101.27 241.93 101.617 241.93 101.986ZM254.746 104.366C254.746 104.168 254.697 103.989 254.598 103.829C254.498 103.664 254.308 103.515 254.027 103.383C253.752 103.25 253.344 103.129 252.805 103.019C252.331 102.914 251.896 102.79 251.499 102.647C251.108 102.498 250.772 102.319 250.491 102.11C250.21 101.901 249.992 101.653 249.838 101.366C249.684 101.08 249.607 100.749 249.607 100.375C249.607 100.011 249.687 99.667 249.846 99.3419C250.006 99.0169 250.235 98.7305 250.532 98.4826C250.83 98.2347 251.19 98.0391 251.615 97.8959C252.044 97.7527 252.524 97.681 253.052 97.681C253.802 97.681 254.443 97.8077 254.978 98.0611C255.518 98.309 255.931 98.6478 256.217 99.0775C256.504 99.5017 256.647 99.981 256.647 100.515H254.655C254.655 100.278 254.595 100.058 254.474 99.8543C254.358 99.6449 254.182 99.4769 253.945 99.3502C253.708 99.218 253.411 99.1519 253.052 99.1519C252.711 99.1519 252.427 99.207 252.201 99.3172C251.981 99.4218 251.816 99.5595 251.706 99.7303C251.601 99.9011 251.549 100.088 251.549 100.292C251.549 100.441 251.576 100.576 251.631 100.697C251.692 100.813 251.791 100.92 251.929 101.019C252.066 101.113 252.254 101.201 252.491 101.284C252.733 101.366 253.036 101.446 253.399 101.523C254.083 101.667 254.669 101.851 255.16 102.077C255.655 102.297 256.035 102.584 256.3 102.936C256.564 103.284 256.697 103.724 256.697 104.259C256.697 104.655 256.611 105.019 256.44 105.349C256.275 105.674 256.033 105.958 255.713 106.2C255.394 106.437 255.011 106.622 254.565 106.754C254.124 106.886 253.628 106.952 253.077 106.952C252.267 106.952 251.582 106.809 251.02 106.523C250.458 106.231 250.031 105.859 249.739 105.407C249.452 104.95 249.309 104.476 249.309 103.986H251.235C251.257 104.355 251.358 104.65 251.54 104.87C251.728 105.085 251.959 105.242 252.234 105.341C252.515 105.435 252.805 105.482 253.102 105.482C253.46 105.482 253.76 105.435 254.003 105.341C254.245 105.242 254.43 105.11 254.556 104.944C254.683 104.774 254.746 104.581 254.746 104.366Z" fill="#E6E6E7"/>
</g>
<defs>
<filter id="filter0_b_149_2605" x="-35.9615" y="-35.9625" width="456.923" height="213.654" filterUnits="userSpaceOnUse" color-interpolation-filters="sRGB">
<feFlood flood-opacity="0" result="BackgroundImageFix"/>
<feGaussianBlur in="BackgroundImageFix" stdDeviation="17.9808"/>
<feComposite in2="SourceAlpha" operator="in" result="effect1_backgroundBlur_149_2605"/>
<feBlend mode="normal" in="SourceGraphic" in2="effect1_backgroundBlur_149_2605" result="shape"/>
</filter>
<linearGradient id="paint0_linear_149_2605" x1="184.567" y1="32.7871" x2="184.567" y2="132.186" gradientUnits="userSpaceOnUse">
<stop stop-color="#8335DA"/>
<stop offset="1" stop-color="#8335DA" stop-opacity="0"/>
</linearGradient>
</defs>
</svg>
