<svg width="1440" height="282" viewBox="0 0 1440 282" fill="none" xmlns="http://www.w3.org/2000/svg">
<path d="M822.411 54.3493C812.35 60.1474 802.581 65.7805 792.355 71.68C782.395 65.9454 772.461 60.2108 762.426 54.4255V19.3961C772.043 13.8011 782.154 7.92688 792.317 2.01465C802.53 7.91419 812.477 13.6742 822.411 19.4215V54.362V54.3493Z" stroke="#212130" stroke-width="2.47547" stroke-miterlimit="10"/>
<path d="M341.515 54.3473C331.581 60.0819 321.812 65.7277 311.485 71.678C301.614 65.9815 291.68 60.2596 281.581 54.4361V19.3814C291.096 13.8371 301.195 7.96298 311.421 2C321.558 7.84879 331.518 13.5961 341.515 19.3561V54.3347V54.3473Z" fill="#9D0BE6" stroke="#9D17E1" stroke-width="2.47547" stroke-miterlimit="10"/>
<path d="M551.882 2C562.108 7.91223 571.89 13.5453 581.862 19.3053V54.3981C572.093 60.0312 562.146 65.7785 551.933 71.678C541.821 65.8419 531.874 60.0946 521.94 54.36V19.3814C531.595 13.7737 541.542 8.01373 551.895 2H551.882Z" stroke="#212130" stroke-width="2.47547" stroke-miterlimit="10"/>
<path d="M421.712 19.3834V54.3112C411.816 60.0205 401.869 65.7678 391.643 71.6674C381.544 65.8439 371.597 60.1093 361.65 54.362V19.3708C371.28 13.7884 381.214 8.02838 391.567 2.01465C401.653 7.82538 411.765 13.6488 421.712 19.3708V19.3834Z" stroke="#212130" stroke-width="2.47547" stroke-miterlimit="10"/>
<path d="M682.167 54.3473V19.4702C691.835 13.8371 701.934 7.96298 712.159 2C722.297 7.84879 732.256 13.5961 742.254 19.3561V54.322C732.649 59.8789 722.715 65.6262 712.248 71.678C702.365 65.9688 692.431 60.2469 682.18 54.3347L682.167 54.3473Z" stroke="#212130" stroke-width="2.47547" stroke-miterlimit="10"/>
<path d="M632.052 71.6771C621.902 65.8029 611.968 60.0556 602.06 54.3337V19.4059C611.791 13.7474 621.737 7.98739 632.001 2.02441C641.973 7.77171 651.92 13.4936 662.019 19.3171V54.3971C652.174 60.0683 642.227 65.8156 632.039 71.6771H632.052Z" stroke="#212130" stroke-width="2.47547" stroke-miterlimit="10"/>
<path d="M471.749 2C482.077 7.96298 491.846 13.6088 501.755 19.3434V54.3854C491.859 60.0946 481.912 65.8292 471.762 71.678C461.574 65.7912 451.64 60.0439 441.77 54.3347V19.4195C451.551 13.7356 461.485 7.96298 471.749 2Z" stroke="#212130" stroke-width="2.47547" stroke-miterlimit="10"/>
<path d="M872.475 71.6771C862.325 65.8029 852.391 60.0556 842.482 54.3337V19.4059C852.213 13.7474 862.148 7.98739 872.424 2.02441C882.396 7.77171 892.343 13.4936 902.442 19.3171V54.3971C892.597 60.0683 882.65 65.8156 872.462 71.6771H872.475Z" stroke="#212130" stroke-width="2.47547" stroke-miterlimit="10"/>
<path d="M702.098 123.775C692.19 129.497 682.395 135.156 672.169 141.068C662.197 135.32 652.238 129.586 642.189 123.788V88.8473C651.806 83.2903 661.766 77.5303 672.131 71.542C682.065 77.2766 692.012 83.0239 702.098 88.8473V123.775V123.775Z" stroke="#212130" stroke-width="2.47547" stroke-miterlimit="10"/>
<path d="M882.561 123.773V88.8453C892.418 83.1615 902.391 77.4142 912.578 71.54C922.652 77.3635 932.612 83.1361 942.596 88.9215V123.761C932.764 129.432 922.804 135.179 912.578 141.079C902.454 135.242 892.495 129.508 882.561 123.773V123.773Z" stroke="#212130" stroke-width="2.47547" stroke-miterlimit="10"/>
<path d="M886.561 121.51V91.2541C895.097 86.3305 903.731 81.3521 912.553 76.2637C921.276 81.3081 929.9 86.3086 938.545 91.32V121.499C930.031 126.411 921.408 131.39 912.553 136.5C903.786 131.445 895.162 126.477 886.561 121.51Z" fill="#EA3382"/>
<path d="M832.446 141.1C822.156 135.162 812.362 129.504 802.479 123.795V88.8414C812.07 83.2971 822.03 77.5372 832.42 71.5361C842.519 77.3722 852.656 83.221 862.552 88.9303V123.617C852.809 129.276 842.875 135.048 832.458 141.087L832.446 141.1Z" stroke="#212130" stroke-width="2.47547" stroke-miterlimit="10"/>
<path d="M886.561 121.51V91.2541C895.097 86.3305 903.731 81.3521 912.553 76.2637C921.276 81.3081 929.9 86.3086 938.545 91.32V121.499C930.031 126.411 921.408 131.39 912.553 136.5C903.786 131.445 895.162 126.477 886.561 121.51Z" fill="#9D0BE6" stroke="#9D17E1" stroke-width="1.99097" stroke-miterlimit="10"/>
<path d="M722.283 123.77V88.8551C732.116 83.1839 742.088 77.424 752.288 71.5371C762.349 77.3478 772.321 83.1205 782.319 88.8932V123.745C772.512 129.403 762.552 135.151 752.314 141.063C742.215 135.239 732.243 129.505 722.296 123.77H722.283Z" stroke="#212130" stroke-width="2.47547" stroke-miterlimit="10"/>
<path d="M481.849 123.773V88.858C491.681 83.1869 501.653 77.4269 511.854 71.54C521.915 77.3635 531.887 83.1234 541.884 88.8961V123.748C532.077 129.406 522.118 135.154 511.879 141.066C501.78 135.242 491.808 129.495 481.861 123.773H481.849Z" stroke="#212130" stroke-width="2.47547" stroke-miterlimit="10"/>
<path d="M622.249 123.978C612.315 129.713 602.546 135.359 592.218 141.309C582.348 135.612 572.413 129.89 562.314 124.067V89.0123C571.83 83.468 581.929 77.5938 592.155 71.6309C602.292 77.4797 612.251 83.2269 622.249 88.9869V123.966V123.978Z" fill="#9D0BE6" stroke="#9D17E1" stroke-width="2.47547" stroke-miterlimit="10"/>
<path d="M912.911 279.095C902.762 273.221 892.828 267.474 882.919 261.752V226.824C892.65 221.165 902.597 215.405 912.861 209.442C922.833 215.19 932.78 220.912 942.879 226.735V261.815C933.033 267.486 923.099 273.234 912.911 279.095Z" stroke="#212130" stroke-width="2.47547" stroke-miterlimit="10"/>
<path d="M592.681 279.253C582.493 273.367 572.724 267.721 562.777 261.974V227.198C572.293 221.679 582.239 215.906 592.592 209.905C602.679 215.716 612.803 221.539 622.775 227.287V261.796C613.069 267.429 603.135 273.189 592.681 279.266V279.253Z" stroke="#212130" stroke-width="2.47547" stroke-miterlimit="10"/>
<path d="M703.298 261.689C693.3 267.449 683.328 273.184 673.254 278.995C663.155 273.171 653.361 267.525 643.389 261.765V226.749C652.79 221.306 662.737 215.546 673.254 209.456C683.252 215.229 693.363 221.078 703.298 226.812V261.689Z" stroke="#212130" stroke-width="2.47547" stroke-miterlimit="10"/>
<path d="M482.444 261.504V226.741C492.213 221.07 502.148 215.297 512.45 209.296C522.434 215.069 532.381 220.816 542.467 226.639V261.516C532.838 267.086 522.891 272.846 512.526 278.847C502.566 273.1 492.619 267.365 482.444 261.491V261.504Z" stroke="#212130" stroke-width="2.47547" stroke-miterlimit="10"/>
<path d="M832.869 279.095C822.72 273.221 812.786 267.474 802.877 261.752V226.824C812.608 221.165 822.555 215.405 832.819 209.442C842.791 215.19 852.738 220.912 862.837 226.735V261.815C852.991 267.486 843.057 273.234 832.869 279.095Z" stroke="#212130" stroke-width="2.47547" stroke-miterlimit="10"/>
<path d="M783.005 226.706V261.431C773.261 267.089 763.136 272.95 752.936 278.875C742.837 273.039 733.055 267.393 723.058 261.621V226.655C732.649 221.085 742.761 215.211 752.923 209.312C763.022 215.16 772.817 220.819 783.005 226.706V226.706Z" stroke="#212130" stroke-width="2.47547" stroke-miterlimit="10"/>
<path d="M521.915 158.295C531.811 152.56 541.58 146.901 551.869 140.938C561.854 146.698 571.966 152.522 582.002 158.307V192.854C572.435 198.411 562.514 204.171 551.933 210.299C541.999 204.539 531.913 198.703 521.902 192.905V158.295H521.915Z" stroke="#212130" stroke-width="2.47547" stroke-miterlimit="10"/>
<path d="M341.692 158.381V192.776C331.961 198.422 321.862 204.284 311.496 210.297C301.41 204.461 291.476 198.701 281.529 192.954V158.343C291.095 152.774 301.194 146.887 311.42 140.924C321.557 146.773 331.517 152.52 341.692 158.381Z" stroke="#212130" stroke-width="2.47547" stroke-miterlimit="10"/>
<path d="M822.538 158.397V192.741C812.73 198.45 802.631 204.325 792.368 210.3C782.192 204.401 772.258 198.653 762.375 192.919V158.359C772.043 152.739 782.142 146.852 792.317 140.939C802.517 146.839 812.477 152.599 822.538 158.422V158.397Z" stroke="#212130" stroke-width="2.47547" stroke-miterlimit="10"/>
<path d="M501.777 193.61C491.843 199.345 482.074 204.99 471.746 210.941C461.876 205.244 451.942 199.522 441.843 193.699V158.644C451.358 153.1 461.457 147.226 471.683 141.263C481.82 147.111 491.78 152.859 501.777 158.619V193.597V193.61Z" fill="#9D0BE6" stroke="#9D17E1" stroke-width="2.47547" stroke-miterlimit="10"/>
<path d="M682.192 192.919V158.296C692.05 152.586 701.997 146.826 712.172 140.939C722.22 146.737 732.18 152.472 742.215 158.257V192.894C732.434 198.565 722.5 204.325 712.223 210.288C702.213 204.49 692.279 198.742 682.205 192.919H682.192Z" stroke="#212130" stroke-width="2.47547" stroke-miterlimit="10"/>
<path d="M361.638 192.882V158.335C371.166 152.79 381.087 147.005 391.567 140.915C401.564 146.675 411.663 152.498 421.712 158.297V192.831C411.98 198.477 401.881 204.338 391.617 210.289C381.417 204.364 371.496 198.604 361.625 192.882H361.638Z" stroke="#212130" stroke-width="2.47547" stroke-miterlimit="10"/>
<path d="M872.487 210.314C862.007 204.224 852.263 198.566 842.532 192.907V158.347C852.149 152.739 862.248 146.865 872.449 140.915C882.611 146.789 892.57 152.536 902.543 158.309V192.831C892.926 198.426 882.827 204.3 872.487 210.314V210.314Z" stroke="#212130" stroke-width="2.47547" stroke-miterlimit="10"/>
<path d="M632.09 210.288C621.902 204.401 612.133 198.755 602.187 193.008V158.232C611.702 152.713 621.649 146.94 632.001 140.939C642.088 146.75 652.212 152.574 662.184 158.321V192.83C652.479 198.463 642.544 204.223 632.09 210.3V210.288Z" stroke="#212130" stroke-width="2.47547" stroke-miterlimit="10"/>
<path d="M151.549 71.6644C141.577 65.9171 131.795 60.284 121.836 54.5494V19.1775C131.529 13.5825 141.463 7.83515 151.511 2.02441C161.56 7.82246 171.341 13.4556 181.352 19.2282V54.4352C171.697 60.0176 161.75 65.7649 151.549 71.6644V71.6644Z" stroke="#212130" stroke-width="2.47547" stroke-miterlimit="10"/>
<path d="M21.2137 19.3805V54.3718C11.3685 60.0556 1.58663 65.7141 -8.75343 71.6898C-18.6241 65.9932 -28.5454 60.2586 -38.5049 54.5113V19.2029C-28.685 13.5317 -18.9159 7.8859 -8.77879 2.02441C1.3329 7.87321 11.4573 13.7347 21.2137 19.3805V19.3805Z" stroke="#212130" stroke-width="2.47547" stroke-miterlimit="10"/>
<path d="M71.3921 71.6771C61.2677 65.8283 51.4986 60.1825 41.6533 54.4987V19.1902C51.3971 13.5571 61.1662 7.91127 71.3413 2.02441C81.25 7.73365 91.2095 13.4683 101.283 19.2663V54.4479C91.4125 60.1444 81.453 65.879 71.3921 71.6771Z" stroke="#212130" stroke-width="2.47547" stroke-miterlimit="10"/>
<path d="M222.257 226.668V261.481C212.475 267.152 202.541 272.9 192.277 278.85C182.432 273.179 172.663 267.558 162.614 261.76V226.414C172.472 220.73 182.229 215.097 192.252 209.312C202.3 215.122 212.247 220.87 222.257 226.668Z" stroke="#212130" stroke-width="2.47547" stroke-miterlimit="10"/>
<path d="M112.105 278.872C101.955 273.011 92.3638 267.467 82.4678 261.757V226.424C92.313 220.74 102.069 215.107 112.105 209.321C122.141 215.132 132.087 220.879 142.034 226.627V261.529C132.328 267.149 122.407 272.909 112.105 278.872V278.872Z" stroke="#212130" stroke-width="2.47547" stroke-miterlimit="10"/>
<path d="M161.865 88.6902C171.99 82.8541 181.581 77.3352 191.629 71.5498C201.462 77.2337 211.409 82.9683 221.47 88.779V123.859C211.586 129.556 201.627 135.303 191.604 141.088C181.492 135.239 171.736 129.594 161.878 123.897V88.6902H161.865Z" stroke="#212130" stroke-width="2.47547" stroke-miterlimit="10"/>
<path d="M81.7324 88.6775C91.9075 82.816 101.512 77.2971 111.497 71.5498C121.38 77.259 131.327 83.0063 141.35 88.8043V123.821C131.555 129.479 121.786 135.125 111.497 141.076C101.601 135.379 91.6792 129.657 81.7197 123.923V88.6775H81.7324Z" stroke="#212130" stroke-width="2.47547" stroke-miterlimit="10"/>
<path d="M31.313 141.088C21.1252 135.189 11.3687 129.543 1.58691 123.884V88.7029C11.4322 83.019 21.1886 77.3732 31.3257 71.5244C41.2344 77.2463 51.1811 82.9937 61.204 88.7917V123.808C51.3968 129.467 41.6277 135.113 31.313 141.076V141.088Z" stroke="#212130" stroke-width="2.47547" stroke-miterlimit="10"/>
<path d="M61.9276 226.627V261.542C52.0697 267.238 42.1229 272.986 31.9605 278.847C22.0137 273.112 12.2573 267.479 2.28516 261.719V226.462C11.9782 220.854 21.8995 215.119 31.9478 209.296C41.958 215.081 51.7271 220.727 61.9276 226.614V226.627Z" stroke="#212130" stroke-width="2.47547" stroke-miterlimit="10"/>
<path d="M433.005 278.787C422.716 272.824 412.96 267.178 403.089 261.456V226.756C412.757 221.136 422.691 215.363 432.942 209.413C442.939 215.173 452.886 220.908 462.972 226.718V261.38C453.305 267 443.371 272.76 433.018 278.787H433.005Z" stroke="#212130" stroke-width="2.47547" stroke-miterlimit="10"/>
<path d="M301.538 123.684C291.477 129.495 281.695 135.154 271.431 141.079C261.675 135.458 251.906 129.838 242.048 124.154V88.4774C251.804 82.857 261.396 77.3254 271.419 71.54C281.505 77.3635 291.642 83.2122 301.538 88.9342V123.672V123.684Z" stroke="#212130" stroke-width="2.47547" stroke-miterlimit="10"/>
<path d="M242.657 261.884V226.335C252.211 220.791 261.967 215.145 272.041 209.296C282.051 215.094 292.01 220.854 302.059 226.665V261.491C292.34 267.124 282.381 272.884 272.091 278.847C262.272 273.176 252.515 267.555 242.67 261.872L242.657 261.884Z" stroke="#212130" stroke-width="2.47547" stroke-miterlimit="10"/>
<path d="M381.53 123.773C371.584 129.52 361.789 135.166 351.576 141.066C341.794 135.42 332.025 129.8 322.154 124.103V88.5028C331.67 83.0219 341.426 77.3888 351.563 71.54C361.51 77.2873 371.469 83.0346 381.53 88.8453V123.773V123.773Z" stroke="#212130" stroke-width="2.47547" stroke-miterlimit="10"/>
<path d="M202.045 19.1394C211.941 13.4302 221.723 7.7844 231.695 2.02441C241.616 7.83515 251.373 13.5571 261.307 19.3805V54.3083C251.601 60.0049 241.845 65.7268 231.72 71.6644C221.85 65.9806 212.08 60.3601 202.045 54.5874V19.1268V19.1394Z" stroke="#212130" stroke-width="2.47547" stroke-miterlimit="10"/>
<path d="M431.721 141.104C421.597 135.255 412.006 129.723 402.3 124.116V88.5028C411.803 83.0219 421.559 77.3888 431.709 71.54C441.643 77.2746 451.602 83.0219 461.676 88.8453V123.735C452.059 129.305 442.112 135.077 431.721 141.104V141.104Z" stroke="#212130" stroke-width="2.47547" stroke-miterlimit="10"/>
<path d="M322.79 261.887V226.287C332.61 220.629 342.379 214.995 352.25 209.312C362.463 215.249 372.422 221.034 382.28 226.756V261.418C372.537 267.064 362.412 272.938 352.212 278.863C342.303 273.141 332.699 267.609 322.79 261.875V261.887Z" stroke="#212130" stroke-width="2.47547" stroke-miterlimit="10"/>
<path d="M181.556 158.256V192.879C171.774 198.55 161.84 204.323 151.588 210.273C141.718 204.589 131.936 198.956 121.9 193.171V158.065C131.505 152.508 141.274 146.862 151.487 140.95C161.37 146.634 171.33 152.369 181.556 158.268V158.256Z" stroke="#212130" stroke-width="2.47547" stroke-miterlimit="10"/>
<path d="M41.7676 158.04C51.6509 152.331 61.2424 146.786 71.3541 140.95C81.1867 146.609 91.1334 152.343 101.245 158.167V192.98C91.679 198.537 81.7449 204.297 71.4556 210.286C61.623 204.627 51.8412 198.994 41.7676 193.196V158.065V158.04Z" stroke="#212130" stroke-width="2.47547" stroke-miterlimit="10"/>
<path d="M-8.71429 210.285C-18.8133 204.461 -28.4175 198.917 -38.3516 193.17V158.026C-28.7347 152.469 -18.8006 146.722 -8.76503 140.924C1.3086 146.735 11.0904 152.38 21.0879 158.14V192.941C11.6106 198.46 1.67653 204.233 -8.70159 210.272L-8.71429 210.285Z" stroke="#212130" stroke-width="2.47547" stroke-miterlimit="10"/>
<path d="M201.893 193.084V158.143C211.687 152.485 221.608 146.75 231.669 140.939C241.616 146.776 251.347 152.459 261.281 158.296V192.855C251.779 198.463 241.908 204.287 231.733 210.288C221.85 204.591 212.093 198.971 201.88 193.097L201.893 193.084Z" stroke="#212130" stroke-width="2.47547" stroke-miterlimit="10"/>
<path d="M952.518 72.807C942.368 66.9328 932.434 61.1855 922.525 55.4636V20.5357C932.256 14.8772 942.203 9.11728 952.467 3.1543C962.439 8.90159 972.386 14.6235 982.485 20.4469V55.527C972.64 61.1982 962.706 66.9455 952.518 72.807Z" stroke="#212130" stroke-width="2.47547" stroke-miterlimit="10"/>
<path d="M952.518 211.434C942.368 205.56 932.434 199.812 922.525 194.091V159.163C932.256 153.504 942.203 147.744 952.467 141.781C962.439 147.529 972.386 153.25 982.485 159.074V194.154C972.64 199.825 962.706 205.572 952.518 211.434Z" stroke="#212130" stroke-width="2.47547" stroke-miterlimit="10"/>
<path d="M1375.52 54.3473C1365.58 60.0819 1355.81 65.7277 1345.48 71.678C1335.61 65.9815 1325.68 60.2596 1315.58 54.4361V19.3814C1325.1 13.8371 1335.2 7.96298 1345.42 2C1355.56 7.84879 1365.52 13.5961 1375.52 19.3561V54.3347V54.3473Z" fill="#9D0BE6" stroke="#9D17E1" stroke-width="2.47547" stroke-miterlimit="10"/>
<path d="M1455.71 19.3834V54.3112C1445.82 60.0205 1435.87 65.7678 1425.64 71.6674C1415.54 65.8439 1405.6 60.1093 1395.65 54.362V19.3708C1405.28 13.7884 1415.21 8.02838 1425.57 2.01465C1435.65 7.82538 1445.76 13.6488 1455.71 19.3708V19.3834Z" stroke="#212130" stroke-width="2.47547" stroke-miterlimit="10"/>
<path d="M1375.69 158.381V192.776C1365.96 198.422 1355.86 204.284 1345.5 210.297C1335.41 204.461 1325.48 198.701 1315.53 192.954V158.343C1325.1 152.774 1335.19 146.887 1345.42 140.924C1355.56 146.773 1365.52 152.52 1375.69 158.381Z" stroke="#212130" stroke-width="2.47547" stroke-miterlimit="10"/>
<path d="M1395.64 192.882V158.335C1405.17 152.79 1415.09 147.005 1425.57 140.915C1435.56 146.675 1445.66 152.498 1455.71 158.297V192.831C1445.98 198.477 1435.88 204.338 1425.62 210.289C1415.42 204.364 1405.5 198.604 1395.62 192.882H1395.64Z" stroke="#212130" stroke-width="2.47547" stroke-miterlimit="10"/>
<path d="M1185.55 71.6644C1175.58 65.9171 1165.8 60.284 1155.84 54.5494V19.1775C1165.53 13.5825 1175.46 7.83515 1185.51 2.02441C1195.56 7.82246 1205.34 13.4556 1215.35 19.2282V54.4352C1205.7 60.0176 1195.75 65.7649 1185.55 71.6644V71.6644Z" stroke="#212130" stroke-width="2.47547" stroke-miterlimit="10"/>
<path d="M1055.21 19.3805V54.3718C1045.37 60.0556 1035.59 65.7141 1025.25 71.6898C1015.38 65.9932 1005.45 60.2586 995.495 54.5113V19.2029C1005.32 13.5317 1015.08 7.8859 1025.22 2.02441C1035.33 7.87321 1045.46 13.7347 1055.21 19.3805V19.3805Z" stroke="#212130" stroke-width="2.47547" stroke-miterlimit="10"/>
<path d="M1105.39 71.6771C1095.27 65.8283 1085.5 60.1825 1075.65 54.4987V19.1902C1085.4 13.5571 1095.17 7.91127 1105.34 2.02441C1115.25 7.73365 1125.21 13.4683 1135.28 19.2663V54.4479C1125.41 60.1444 1115.45 65.879 1105.39 71.6771Z" stroke="#212130" stroke-width="2.47547" stroke-miterlimit="10"/>
<path d="M1256.26 226.668V261.481C1246.47 267.152 1236.54 272.9 1226.28 278.85C1216.43 273.179 1206.66 267.558 1196.61 261.76V226.414C1206.47 220.73 1216.23 215.097 1226.25 209.312C1236.3 215.122 1246.25 220.87 1256.26 226.668Z" stroke="#212130" stroke-width="2.47547" stroke-miterlimit="10"/>
<path d="M1146.11 278.872C1135.96 273.011 1126.36 267.467 1116.47 261.757V226.424C1126.31 220.74 1136.07 215.107 1146.11 209.321C1156.14 215.132 1166.09 220.879 1176.03 226.627V261.529C1166.33 267.149 1156.41 272.909 1146.11 278.872V278.872Z" stroke="#212130" stroke-width="2.47547" stroke-miterlimit="10"/>
<path d="M1195.87 88.6902C1205.99 82.8541 1215.58 77.3352 1225.63 71.5498C1235.46 77.2337 1245.41 82.9683 1255.47 88.779V123.859C1245.59 129.556 1235.63 135.303 1225.6 141.088C1215.49 135.239 1205.74 129.594 1195.88 123.897V88.6902H1195.87Z" stroke="#212130" stroke-width="2.47547" stroke-miterlimit="10"/>
<path d="M1115.73 88.6775C1125.91 82.816 1135.51 77.2971 1145.5 71.5498C1155.38 77.259 1165.33 83.0063 1175.35 88.8043V123.821C1165.56 129.479 1155.79 135.125 1145.5 141.076C1135.6 135.379 1125.68 129.657 1115.72 123.923V88.6775H1115.73Z" stroke="#212130" stroke-width="2.47547" stroke-miterlimit="10"/>
<path d="M1065.31 141.088C1055.13 135.189 1045.37 129.543 1035.59 123.884V88.7029C1045.43 83.019 1055.19 77.3732 1065.33 71.5244C1075.23 77.2463 1085.18 82.9937 1095.2 88.7917V123.808C1085.4 129.467 1075.63 135.113 1065.31 141.076V141.088Z" stroke="#212130" stroke-width="2.47547" stroke-miterlimit="10"/>
<path d="M1095.93 226.627V261.542C1086.07 267.238 1076.12 272.986 1065.96 278.847C1056.01 273.112 1046.26 267.479 1036.29 261.719V226.462C1045.98 220.854 1055.9 215.119 1065.95 209.296C1075.96 215.081 1085.73 220.727 1095.93 226.614V226.627Z" stroke="#212130" stroke-width="2.47547" stroke-miterlimit="10"/>
<path d="M1467.01 278.787C1456.72 272.824 1446.96 267.178 1437.09 261.456V226.756C1446.76 221.136 1456.69 215.363 1466.94 209.413C1476.94 215.173 1486.89 220.908 1496.97 226.718V261.38C1487.3 267 1477.37 272.76 1467.02 278.787H1467.01Z" stroke="#212130" stroke-width="2.47547" stroke-miterlimit="10"/>
<path d="M1335.54 123.684C1325.48 129.495 1315.7 135.154 1305.43 141.079C1295.67 135.458 1285.91 129.838 1276.05 124.154V88.4774C1285.8 82.857 1295.4 77.3254 1305.42 71.54C1315.51 77.3635 1325.64 83.2122 1335.54 88.9342V123.672V123.684Z" stroke="#212130" stroke-width="2.47547" stroke-miterlimit="10"/>
<path d="M1276.66 261.884V226.335C1286.21 220.791 1295.97 215.145 1306.04 209.296C1316.05 215.094 1326.01 220.854 1336.06 226.665V261.491C1326.34 267.124 1316.38 272.884 1306.09 278.847C1296.27 273.176 1286.52 267.555 1276.67 261.872L1276.66 261.884Z" stroke="#212130" stroke-width="2.47547" stroke-miterlimit="10"/>
<path d="M1415.53 123.773C1405.58 129.52 1395.79 135.166 1385.58 141.066C1375.79 135.42 1366.02 129.8 1356.15 124.103V88.5028C1365.67 83.0219 1375.43 77.3888 1385.56 71.54C1395.51 77.2873 1405.47 83.0346 1415.53 88.8453V123.773V123.773Z" stroke="#212130" stroke-width="2.47547" stroke-miterlimit="10"/>
<path d="M1236.04 19.1394C1245.94 13.4302 1255.72 7.7844 1265.69 2.02441C1275.62 7.83515 1285.37 13.5571 1295.31 19.3805V54.3083C1285.6 60.0049 1275.84 65.7268 1265.72 71.6644C1255.85 65.9806 1246.08 60.3601 1236.04 54.5874V19.1268V19.1394Z" stroke="#212130" stroke-width="2.47547" stroke-miterlimit="10"/>
<path d="M1465.72 141.104C1455.6 135.255 1446.01 129.723 1436.3 124.116V88.5028C1445.8 83.0219 1455.56 77.3888 1465.71 71.54C1475.64 77.2746 1485.6 83.0219 1495.68 88.8453V123.735C1486.06 129.305 1476.11 135.077 1465.72 141.104V141.104Z" stroke="#212130" stroke-width="2.47547" stroke-miterlimit="10"/>
<path d="M1356.79 261.887V226.287C1366.61 220.629 1376.38 214.995 1386.25 209.312C1396.46 215.249 1406.42 221.034 1416.28 226.756V261.418C1406.54 267.064 1396.41 272.938 1386.21 278.863C1376.3 273.141 1366.7 267.609 1356.79 261.875V261.887Z" stroke="#212130" stroke-width="2.47547" stroke-miterlimit="10"/>
<path d="M1215.56 158.256V192.879C1205.77 198.55 1195.84 204.323 1185.59 210.273C1175.72 204.589 1165.94 198.956 1155.9 193.171V158.065C1165.5 152.508 1175.27 146.862 1185.49 140.95C1195.37 146.634 1205.33 152.369 1215.56 158.268V158.256Z" stroke="#212130" stroke-width="2.47547" stroke-miterlimit="10"/>
<path d="M1075.77 158.04C1085.65 152.331 1095.24 146.786 1105.35 140.95C1115.19 146.609 1125.13 152.343 1135.25 158.167V192.98C1125.68 198.537 1115.74 204.297 1105.46 210.286C1095.62 204.627 1085.84 198.994 1075.77 193.196V158.065V158.04Z" stroke="#212130" stroke-width="2.47547" stroke-miterlimit="10"/>
<path d="M1025.29 210.285C1015.19 204.461 1005.58 198.917 995.648 193.17V158.026C1005.27 152.469 1015.2 146.722 1025.23 140.924C1035.31 146.735 1045.09 152.38 1055.09 158.14V192.941C1045.61 198.46 1035.68 204.233 1025.3 210.272L1025.29 210.285Z" stroke="#212130" stroke-width="2.47547" stroke-miterlimit="10"/>
<path d="M1235.89 193.084V158.143C1245.69 152.485 1255.61 146.75 1265.67 140.939C1275.62 146.776 1285.35 152.459 1295.28 158.296V192.855C1285.78 198.463 1275.91 204.287 1265.73 210.288C1255.85 204.591 1246.09 198.971 1235.88 193.097L1235.89 193.084Z" stroke="#212130" stroke-width="2.47547" stroke-miterlimit="10"/>
<path d="M991.798 141.088C981.611 135.189 971.854 129.543 962.072 123.884V88.7029C971.918 83.019 981.674 77.3732 991.811 71.5244C1001.72 77.2463 1011.67 82.9937 1021.69 88.7917V123.808C1011.88 129.467 1002.11 135.113 991.798 141.076V141.088Z" stroke="#212130" stroke-width="2.47547" stroke-miterlimit="10"/>
<path d="M1018.64 226.627V261.542C1008.78 267.238 998.838 272.986 988.675 278.847C978.729 273.112 968.972 267.479 959 261.719V226.462C968.693 220.854 978.614 215.119 988.663 209.296C998.673 215.081 1008.44 220.727 1018.64 226.614V226.627Z" stroke="#212130" stroke-width="2.47547" stroke-miterlimit="10"/>
</svg>
