<svg width="1440" height="277" viewBox="0 0 1440 277" fill="none" xmlns="http://www.w3.org/2000/svg">
<path d="M822.411 52.3493C812.35 58.1474 802.581 63.7805 792.355 69.68C782.395 63.9454 772.461 58.2108 762.426 52.4255V17.3961C772.043 11.8011 782.154 5.92688 792.317 0.0146484C802.53 5.91419 812.477 11.6742 822.411 17.4215V52.362V52.3493Z" stroke="#9D17E1" stroke-width="2.47547" stroke-miterlimit="10"/>
<path d="M341.515 52.3473C331.581 58.0819 321.812 63.7277 311.485 69.678C301.614 63.9815 291.68 58.2596 281.581 52.4361V17.3814C291.096 11.8371 301.195 5.96298 311.421 0C321.558 5.84879 331.518 11.5961 341.515 17.3561V52.3347V52.3473Z" fill="#9D0BE6" stroke="#9D17E1" stroke-width="2.47547" stroke-miterlimit="10"/>
<path d="M551.882 0C562.108 5.91223 571.89 11.5453 581.862 17.3053V52.3981C572.093 58.0312 562.146 63.7785 551.933 69.678C541.821 63.8419 531.874 58.0946 521.94 52.36V17.3814C531.595 11.7737 541.542 6.01373 551.895 0H551.882Z" stroke="#9D17E1" stroke-width="2.47547" stroke-miterlimit="10"/>
<path d="M421.712 17.3834V52.3112C411.816 58.0205 401.869 63.7678 391.643 69.6674C381.544 63.8439 371.597 58.1093 361.65 52.362V17.3708C371.28 11.7884 381.214 6.02838 391.567 0.0146484C401.653 5.82538 411.765 11.6488 421.712 17.3708V17.3834Z" stroke="#9D17E1" stroke-width="2.47547" stroke-miterlimit="10"/>
<path d="M682.167 17.4702V52.3473L712.248 69.678C722.715 63.6262 732.649 57.8789 742.254 52.322V17.3561C732.256 11.5961 722.297 5.84879 712.159 0C701.934 5.96298 691.835 11.8371 682.167 17.4702Z" stroke="#9D17E1" stroke-width="2.47547" stroke-miterlimit="10"/>
<path d="M602.06 52.3337C611.968 58.0556 621.902 63.8029 632.052 69.6771L662.019 52.3971V17.3171C651.92 11.4936 641.973 5.77171 632.001 0.0244141C621.737 5.98739 611.791 11.7474 602.06 17.4059V52.3337Z" stroke="#9D17E1" stroke-width="2.47547" stroke-miterlimit="10"/>
<path d="M471.749 0C482.077 5.96298 491.846 11.6088 501.755 17.3434V52.3854C491.859 58.0946 481.912 63.8292 471.762 69.678C461.574 63.7912 451.64 58.0439 441.77 52.3347V17.4195C451.551 11.7356 461.485 5.96298 471.749 0Z" stroke="#9D17E1" stroke-width="2.47547" stroke-miterlimit="10"/>
<path d="M872.475 69.6771C862.325 63.8029 852.391 58.0556 842.482 52.3337V17.4059C852.213 11.7474 862.148 5.98739 872.424 0.0244141C882.396 5.77171 892.343 11.4936 902.442 17.3171V52.3971C892.597 58.0683 882.65 63.8156 872.462 69.6771H872.475Z" stroke="#9D17E1" stroke-width="2.47547" stroke-miterlimit="10"/>
<path d="M702.098 121.775C692.19 127.497 682.395 133.156 672.169 139.068C662.197 133.32 652.238 127.586 642.189 121.788V86.8473C651.806 81.2903 661.766 75.5303 672.131 69.542C682.065 75.2766 692.012 81.0239 702.098 86.8473V121.775V121.775Z" stroke="#9D17E1" stroke-width="2.47547" stroke-miterlimit="10"/>
<path d="M882.561 121.773V86.8453C892.418 81.1615 902.391 75.4142 912.578 69.54C922.652 75.3635 932.612 81.1361 942.596 86.9215V121.761C932.764 127.432 922.804 133.179 912.578 139.079C902.454 133.242 892.495 127.508 882.561 121.773V121.773Z" stroke="#9D17E1" stroke-width="2.47547" stroke-miterlimit="10"/>
<path d="M886.561 119.51V89.2541C895.097 84.3305 903.731 79.3521 912.553 74.2637C921.276 79.3081 929.9 84.3086 938.545 89.32V119.499C930.031 124.411 921.408 129.39 912.553 134.5C903.786 129.445 895.162 124.477 886.561 119.51V119.51Z" fill="#9D17E1"/>
<path d="M832.446 139.1C822.156 133.162 812.362 127.504 802.479 121.795V86.8414C812.07 81.2971 822.03 75.5372 832.42 69.5361C842.519 75.3722 852.656 81.221 862.552 86.9303V121.617C852.809 127.276 842.875 133.048 832.458 139.087L832.446 139.1Z" stroke="#9D17E1" stroke-width="2.47547" stroke-miterlimit="10"/>
<path d="M886.561 119.51V89.2541C895.097 84.3305 903.731 79.3521 912.553 74.2637C921.276 79.3081 929.9 84.3086 938.545 89.32V119.499C930.031 124.411 921.408 129.39 912.553 134.5C903.786 129.445 895.162 124.477 886.561 119.51V119.51Z" fill="#9D0BE6" stroke="#9D17E1" stroke-width="1.99097" stroke-miterlimit="10"/>
<path d="M722.283 121.77V86.8551C732.116 81.1839 742.088 75.424 752.288 69.5371C762.349 75.3478 772.321 81.1205 782.319 86.8932V121.745C772.512 127.403 762.552 133.151 752.314 139.063C742.215 133.239 732.243 127.505 722.296 121.77H722.283Z" stroke="#9D17E1" stroke-width="2.47547" stroke-miterlimit="10"/>
<path d="M481.849 121.773V86.858C491.681 81.1869 501.653 75.4269 511.854 69.54C521.915 75.3635 531.887 81.1234 541.884 86.8961V121.748C532.077 127.406 522.118 133.154 511.879 139.066C501.78 133.242 491.808 127.495 481.861 121.773H481.849Z" stroke="#9D17E1" stroke-width="2.47547" stroke-miterlimit="10"/>
<path d="M622.249 121.978C612.315 127.713 602.546 133.359 592.218 139.309C582.348 133.612 572.413 127.89 562.314 122.067V87.0123C571.83 81.468 581.929 75.5938 592.155 69.6309C602.292 75.4797 612.251 81.2269 622.249 86.9869V121.966V121.978Z" fill="#9D0BE6" stroke="#9D17E1" stroke-width="2.47547" stroke-miterlimit="10"/>
<path d="M912.911 277.095C902.762 271.221 892.828 265.474 882.919 259.752V224.824C892.65 219.165 902.597 213.405 912.861 207.442C922.833 213.19 932.78 218.912 942.879 224.735V259.815C933.033 265.486 923.099 271.234 912.911 277.095Z" stroke="#9D17E1" stroke-width="2.47547" stroke-miterlimit="10"/>
<path d="M592.681 277.253C582.493 271.367 572.724 265.721 562.777 259.974V225.198C572.293 219.679 582.239 213.906 592.592 207.905C602.679 213.716 612.803 219.539 622.775 225.287V259.796C613.069 265.429 603.135 271.189 592.681 277.266V277.253Z" stroke="#9D17E1" stroke-width="2.47547" stroke-miterlimit="10"/>
<path d="M703.298 259.689C693.3 265.449 683.328 271.184 673.254 276.995C663.155 271.171 653.361 265.525 643.389 259.765V224.749C652.79 219.306 662.737 213.546 673.254 207.456C683.252 213.229 693.363 219.078 703.298 224.812V259.689Z" stroke="#9D17E1" stroke-width="2.47547" stroke-miterlimit="10"/>
<path d="M482.444 259.504V224.741C492.213 219.07 502.148 213.297 512.45 207.296C522.434 213.069 532.381 218.816 542.467 224.639V259.516C532.838 265.086 522.891 270.846 512.526 276.847C502.566 271.1 492.619 265.365 482.444 259.491V259.504Z" stroke="#9D17E1" stroke-width="2.47547" stroke-miterlimit="10"/>
<path d="M832.869 277.095C822.72 271.221 812.786 265.474 802.877 259.752V224.824C812.608 219.165 822.555 213.405 832.819 207.442C842.791 213.19 852.738 218.912 862.837 224.735V259.815C852.991 265.486 843.057 271.234 832.869 277.095Z" stroke="#9D17E1" stroke-width="2.47547" stroke-miterlimit="10"/>
<path d="M783.005 224.706V259.431C773.261 265.089 763.136 270.95 752.936 276.875C742.837 271.039 733.055 265.393 723.058 259.621V224.655C732.649 219.085 742.761 213.211 752.923 207.312C763.022 213.16 772.817 218.819 783.005 224.706V224.706Z" stroke="#9D17E1" stroke-width="2.47547" stroke-miterlimit="10"/>
<path d="M521.915 156.295C531.811 150.56 541.58 144.901 551.869 138.938C561.854 144.698 571.966 150.522 582.002 156.307V190.854C572.435 196.411 562.514 202.171 551.933 208.299C541.999 202.539 531.913 196.703 521.902 190.905V156.295H521.915Z" stroke="#9D17E1" stroke-width="2.47547" stroke-miterlimit="10"/>
<path d="M341.692 156.381V190.776C331.961 196.422 321.862 202.284 311.496 208.297C301.41 202.461 291.476 196.701 281.529 190.954V156.343C291.095 150.774 301.194 144.887 311.42 138.924C321.557 144.773 331.517 150.52 341.692 156.381Z" stroke="#9D17E1" stroke-width="2.47547" stroke-miterlimit="10"/>
<path d="M822.538 156.397V190.741C812.73 196.45 802.631 202.325 792.368 208.3C782.192 202.401 772.258 196.653 762.375 190.919V156.359C772.043 150.739 782.142 144.852 792.317 138.939C802.517 144.839 812.477 150.599 822.538 156.422V156.397Z" stroke="#9D17E1" stroke-width="2.47547" stroke-miterlimit="10"/>
<path d="M501.777 191.61C491.843 197.345 482.074 202.99 471.746 208.941C461.876 203.244 451.942 197.522 441.843 191.699V156.644C451.358 151.1 461.457 145.226 471.683 139.263C481.82 145.111 491.78 150.859 501.777 156.619V191.597V191.61Z" fill="#9D0BE6" stroke="#9D17E1" stroke-width="2.47547" stroke-miterlimit="10"/>
<path d="M682.192 190.919V156.296C692.05 150.586 701.997 144.826 712.172 138.939C722.22 144.737 732.18 150.472 742.215 156.257V190.894C732.434 196.565 722.5 202.325 712.223 208.288C702.213 202.49 692.279 196.742 682.205 190.919H682.192Z" stroke="#9D17E1" stroke-width="2.47547" stroke-miterlimit="10"/>
<path d="M361.638 190.882V156.335C371.166 150.79 381.087 145.005 391.567 138.915C401.564 144.675 411.663 150.498 421.712 156.297V190.831C411.98 196.477 401.881 202.338 391.617 208.289C381.417 202.364 371.496 196.604 361.625 190.882H361.638Z" stroke="#9D17E1" stroke-width="2.47547" stroke-miterlimit="10"/>
<path d="M872.487 208.314C862.007 202.224 852.263 196.566 842.532 190.907V156.347C852.149 150.739 862.248 144.865 872.449 138.915C882.611 144.789 892.57 150.536 902.543 156.309V190.831C892.926 196.426 882.827 202.3 872.487 208.314V208.314Z" stroke="#9D17E1" stroke-width="2.47547" stroke-miterlimit="10"/>
<path d="M632.09 208.288C621.902 202.401 612.133 196.755 602.187 191.008V156.232C611.702 150.713 621.649 144.94 632.001 138.939C642.088 144.75 652.212 150.574 662.184 156.321V190.83C652.479 196.463 642.544 202.223 632.09 208.3V208.288Z" stroke="#9D17E1" stroke-width="2.47547" stroke-miterlimit="10"/>
<path d="M151.549 69.6644C141.577 63.9171 131.795 58.284 121.836 52.5494V17.1775C131.529 11.5825 141.463 5.83515 151.511 0.0244141C161.56 5.82246 171.341 11.4556 181.352 17.2282V52.4352C171.697 58.0176 161.75 63.7649 151.549 69.6644V69.6644Z" stroke="#9D17E1" stroke-width="2.47547" stroke-miterlimit="10"/>
<path d="M21.2137 17.3805V52.3718C11.3685 58.0556 1.58663 63.7141 -8.75343 69.6898C-18.6241 63.9932 -28.5454 58.2586 -38.5049 52.5113V17.2029C-28.685 11.5317 -18.9159 5.8859 -8.77879 0.0244141C1.3329 5.87321 11.4573 11.7347 21.2137 17.3805V17.3805Z" stroke="#9D17E1" stroke-width="2.47547" stroke-miterlimit="10"/>
<path d="M71.3921 69.6771C61.2677 63.8283 51.4986 58.1825 41.6533 52.4987V17.1902C51.3971 11.5571 61.1662 5.91127 71.3413 0.0244141C81.25 5.73365 91.2095 11.4683 101.283 17.2663V52.4479C91.4125 58.1444 81.453 63.879 71.3921 69.6771Z" stroke="#9D17E1" stroke-width="2.47547" stroke-miterlimit="10"/>
<path d="M222.257 224.668V259.481C212.475 265.152 202.541 270.9 192.277 276.85C182.432 271.179 172.663 265.558 162.614 259.76V224.414C172.472 218.73 182.229 213.097 192.252 207.312C202.3 213.122 212.247 218.87 222.257 224.668Z" stroke="#9D17E1" stroke-width="2.47547" stroke-miterlimit="10"/>
<path d="M112.105 276.872C101.955 271.011 92.3638 265.467 82.4678 259.757V224.424C92.313 218.74 102.069 213.107 112.105 207.321C122.141 213.132 132.087 218.879 142.034 224.627V259.529C132.328 265.149 122.407 270.909 112.105 276.872V276.872Z" stroke="#9D17E1" stroke-width="2.47547" stroke-miterlimit="10"/>
<path d="M161.865 86.6902C171.99 80.8541 181.581 75.3352 191.629 69.5498C201.462 75.2337 211.409 80.9683 221.47 86.779V121.859C211.586 127.556 201.627 133.303 191.604 139.088C181.492 133.239 171.736 127.594 161.878 121.897V86.6902H161.865Z" stroke="#9D17E1" stroke-width="2.47547" stroke-miterlimit="10"/>
<path d="M81.7324 86.6775C91.9075 80.816 101.512 75.2971 111.497 69.5498C121.38 75.259 131.327 81.0063 141.35 86.8043V121.821C131.555 127.479 121.786 133.125 111.497 139.076C101.601 133.379 91.6792 127.657 81.7197 121.923V86.6775H81.7324Z" stroke="#9D17E1" stroke-width="2.47547" stroke-miterlimit="10"/>
<path d="M31.313 139.088C21.1252 133.189 11.3687 127.543 1.58691 121.884V86.7029C11.4322 81.019 21.1886 75.3732 31.3257 69.5244C41.2344 75.2463 51.1811 80.9937 61.204 86.7917V121.808C51.3968 127.467 41.6277 133.113 31.313 139.076V139.088Z" stroke="#9D17E1" stroke-width="2.47547" stroke-miterlimit="10"/>
<path d="M61.9276 224.627V259.542C52.0697 265.238 42.1229 270.986 31.9605 276.847C22.0137 271.112 12.2573 265.479 2.28516 259.719V224.462C11.9782 218.854 21.8995 213.119 31.9478 207.296C41.958 213.081 51.7271 218.727 61.9276 224.614V224.627Z" stroke="#9D17E1" stroke-width="2.47547" stroke-miterlimit="10"/>
<path d="M433.005 276.787C422.716 270.824 412.96 265.178 403.089 259.456V224.756C412.757 219.136 422.691 213.363 432.942 207.413C442.939 213.173 452.886 218.908 462.972 224.718V259.38C453.305 265 443.371 270.76 433.018 276.787H433.005Z" stroke="#9D17E1" stroke-width="2.47547" stroke-miterlimit="10"/>
<path d="M301.538 121.684C291.477 127.495 281.695 133.154 271.431 139.079C261.675 133.458 251.906 127.838 242.048 122.154V86.4774C251.804 80.857 261.396 75.3254 271.419 69.54C281.505 75.3635 291.642 81.2122 301.538 86.9342V121.672V121.684Z" stroke="#9D17E1" stroke-width="2.47547" stroke-miterlimit="10"/>
<path d="M242.657 259.884V224.335C252.211 218.791 261.967 213.145 272.041 207.296C282.051 213.094 292.01 218.854 302.059 224.665V259.491C292.34 265.124 282.381 270.884 272.091 276.847C262.272 271.176 252.515 265.555 242.67 259.872L242.657 259.884Z" stroke="#9D17E1" stroke-width="2.47547" stroke-miterlimit="10"/>
<path d="M381.53 121.773C371.584 127.52 361.789 133.166 351.576 139.066C341.794 133.42 332.025 127.8 322.154 122.103V86.5028C331.67 81.0219 341.426 75.3888 351.563 69.54C361.51 75.2873 371.469 81.0346 381.53 86.8453V121.773V121.773Z" stroke="#9D17E1" stroke-width="2.47547" stroke-miterlimit="10"/>
<path d="M202.045 17.1394C211.941 11.4302 221.723 5.7844 231.695 0.0244141C241.616 5.83515 251.373 11.5571 261.307 17.3805V52.3083C251.601 58.0049 241.845 63.7268 231.72 69.6644C221.85 63.9806 212.08 58.3601 202.045 52.5874V17.1268V17.1394Z" stroke="#9D17E1" stroke-width="2.47547" stroke-miterlimit="10"/>
<path d="M431.721 139.104C421.597 133.255 412.006 127.723 402.3 122.116V86.5028C411.803 81.0219 421.559 75.3888 431.709 69.54C441.643 75.2746 451.602 81.0219 461.676 86.8453V121.735C452.059 127.305 442.112 133.077 431.721 139.104V139.104Z" stroke="#9D17E1" stroke-width="2.47547" stroke-miterlimit="10"/>
<path d="M322.79 259.887V224.287C332.61 218.629 342.379 212.995 352.25 207.312C362.463 213.249 372.422 219.034 382.28 224.756V259.418C372.537 265.064 362.412 270.938 352.212 276.863C342.303 271.141 332.699 265.609 322.79 259.875V259.887Z" stroke="#9D17E1" stroke-width="2.47547" stroke-miterlimit="10"/>
<path d="M181.556 156.256V190.879C171.774 196.55 161.84 202.323 151.588 208.273C141.718 202.589 131.936 196.956 121.9 191.171V156.065C131.505 150.508 141.274 144.862 151.487 138.95C161.37 144.634 171.33 150.369 181.556 156.268V156.256Z" stroke="#9D17E1" stroke-width="2.47547" stroke-miterlimit="10"/>
<path d="M41.7676 156.04C51.6509 150.331 61.2424 144.786 71.3541 138.95C81.1867 144.609 91.1334 150.343 101.245 156.167V190.98C91.679 196.537 81.7449 202.297 71.4556 208.286C61.623 202.627 51.8412 196.994 41.7676 191.196V156.065V156.04Z" stroke="#9D17E1" stroke-width="2.47547" stroke-miterlimit="10"/>
<path d="M-8.71429 208.285C-18.8133 202.461 -28.4175 196.917 -38.3516 191.17V156.026C-28.7347 150.469 -18.8006 144.722 -8.76503 138.924C1.3086 144.735 11.0904 150.38 21.0879 156.14V190.941C11.6106 196.46 1.67653 202.233 -8.70159 208.272L-8.71429 208.285Z" stroke="#9D17E1" stroke-width="2.47547" stroke-miterlimit="10"/>
<path d="M201.893 191.084V156.143C211.687 150.485 221.608 144.75 231.669 138.939C241.616 144.776 251.347 150.459 261.281 156.296V190.855C251.779 196.463 241.908 202.287 231.733 208.288C221.85 202.591 212.093 196.971 201.88 191.097L201.893 191.084Z" stroke="#9D17E1" stroke-width="2.47547" stroke-miterlimit="10"/>
<path d="M952.518 70.807C942.368 64.9328 932.434 59.1855 922.525 53.4636V18.5357C932.256 12.8772 942.203 7.11728 952.467 1.1543C962.439 6.90159 972.386 12.6235 982.485 18.4469V53.527C972.64 59.1982 962.706 64.9455 952.518 70.807Z" stroke="#9D17E1" stroke-width="2.47547" stroke-miterlimit="10"/>
<path d="M952.518 209.434C942.368 203.56 932.434 197.812 922.525 192.091V157.163C932.256 151.504 942.203 145.744 952.467 139.781C962.439 145.529 972.386 151.25 982.485 157.074V192.154C972.64 197.825 962.706 203.572 952.518 209.434Z" stroke="#9D17E1" stroke-width="2.47547" stroke-miterlimit="10"/>
<path d="M1375.52 52.3473C1365.58 58.0819 1355.81 63.7277 1345.48 69.678C1335.61 63.9815 1325.68 58.2596 1315.58 52.4361V17.3814C1325.1 11.8371 1335.2 5.96298 1345.42 0C1355.56 5.84879 1365.52 11.5961 1375.52 17.3561V52.3347V52.3473Z" fill="#9D0BE6" stroke="#9D17E1" stroke-width="2.47547" stroke-miterlimit="10"/>
<path d="M1455.71 17.3834V52.3112C1445.82 58.0205 1435.87 63.7678 1425.64 69.6674C1415.54 63.8439 1405.6 58.1093 1395.65 52.362V17.3708C1405.28 11.7884 1415.21 6.02838 1425.57 0.0146484C1435.65 5.82538 1445.76 11.6488 1455.71 17.3708V17.3834Z" stroke="#9D17E1" stroke-opacity="0.882353" stroke-width="2.47547" stroke-miterlimit="10"/>
<path d="M1375.69 156.381V190.776C1365.96 196.422 1355.86 202.284 1345.5 208.297C1335.41 202.461 1325.48 196.701 1315.53 190.954V156.343C1325.1 150.774 1335.19 144.887 1345.42 138.924C1355.56 144.773 1365.52 150.52 1375.69 156.381Z" stroke="#9D17E1" stroke-opacity="0.882353" stroke-width="2.47547" stroke-miterlimit="10"/>
<path d="M1395.64 190.882V156.335C1405.17 150.79 1415.09 145.005 1425.57 138.915C1435.56 144.675 1445.66 150.498 1455.71 156.297V190.831C1445.98 196.477 1435.88 202.338 1425.62 208.289C1415.42 202.364 1405.5 196.604 1395.62 190.882H1395.64Z" stroke="#9D17E1" stroke-opacity="0.882353" stroke-width="2.47547" stroke-miterlimit="10"/>
<path d="M1185.55 69.6644C1175.58 63.9171 1165.8 58.284 1155.84 52.5494V17.1775C1165.53 11.5825 1175.46 5.83515 1185.51 0.0244141C1195.56 5.82246 1205.34 11.4556 1215.35 17.2282V52.4352C1205.7 58.0176 1195.75 63.7649 1185.55 69.6644V69.6644Z" stroke="#9D17E1" stroke-opacity="0.882353" stroke-width="2.47547" stroke-miterlimit="10"/>
<path d="M1055.21 17.3805V52.3718C1045.37 58.0556 1035.59 63.7141 1025.25 69.6898C1015.38 63.9932 1005.45 58.2586 995.495 52.5113V17.2029C1005.32 11.5317 1015.08 5.8859 1025.22 0.0244141C1035.33 5.87321 1045.46 11.7347 1055.21 17.3805V17.3805Z" stroke="#9D17E1" stroke-opacity="0.882353" stroke-width="2.47547" stroke-miterlimit="10"/>
<path d="M1105.39 69.6771C1095.27 63.8283 1085.5 58.1825 1075.65 52.4987V17.1902C1085.4 11.5571 1095.17 5.91127 1105.34 0.0244141C1115.25 5.73365 1125.21 11.4683 1135.28 17.2663V52.4479C1125.41 58.1444 1115.45 63.879 1105.39 69.6771Z" stroke="#9D17E1" stroke-opacity="0.882353" stroke-width="2.47547" stroke-miterlimit="10"/>
<path d="M1256.26 224.668V259.481C1246.47 265.152 1236.54 270.9 1226.28 276.85C1216.43 271.179 1206.66 265.558 1196.61 259.76V224.414C1206.47 218.73 1216.23 213.097 1226.25 207.312C1236.3 213.122 1246.25 218.87 1256.26 224.668Z" stroke="#9D17E1" stroke-opacity="0.882353" stroke-width="2.47547" stroke-miterlimit="10"/>
<path d="M1146.11 276.872C1135.96 271.011 1126.36 265.467 1116.47 259.757V224.424C1126.31 218.74 1136.07 213.107 1146.11 207.321C1156.14 213.132 1166.09 218.879 1176.03 224.627V259.529C1166.33 265.149 1156.41 270.909 1146.11 276.872V276.872Z" stroke="#9D17E1" stroke-opacity="0.882353" stroke-width="2.47547" stroke-miterlimit="10"/>
<path d="M1195.87 86.6902C1205.99 80.8541 1215.58 75.3352 1225.63 69.5498C1235.46 75.2337 1245.41 80.9683 1255.47 86.779V121.859C1245.59 127.556 1235.63 133.303 1225.6 139.088C1215.49 133.239 1205.74 127.594 1195.88 121.897V86.6902H1195.87Z" stroke="#9D17E1" stroke-opacity="0.882353" stroke-width="2.47547" stroke-miterlimit="10"/>
<path d="M1115.73 86.6775C1125.91 80.816 1135.51 75.2971 1145.5 69.5498C1155.38 75.259 1165.33 81.0063 1175.35 86.8043V121.821C1165.56 127.479 1155.79 133.125 1145.5 139.076C1135.6 133.379 1125.68 127.657 1115.72 121.923V86.6775H1115.73Z" stroke="#9D17E1" stroke-opacity="0.882353" stroke-width="2.47547" stroke-miterlimit="10"/>
<path d="M1065.31 139.088C1055.13 133.189 1045.37 127.543 1035.59 121.884V86.7029C1045.43 81.019 1055.19 75.3732 1065.33 69.5244C1075.23 75.2463 1085.18 80.9937 1095.2 86.7917V121.808C1085.4 127.467 1075.63 133.113 1065.31 139.076V139.088Z" stroke="#9D17E1" stroke-opacity="0.882353" stroke-width="2.47547" stroke-miterlimit="10"/>
<path d="M1095.93 224.627V259.542C1086.07 265.238 1076.12 270.986 1065.96 276.847C1056.01 271.112 1046.26 265.479 1036.29 259.719V224.462C1045.98 218.854 1055.9 213.119 1065.95 207.296C1075.96 213.081 1085.73 218.727 1095.93 224.614V224.627Z" stroke="#9D17E1" stroke-opacity="0.882353" stroke-width="2.47547" stroke-miterlimit="10"/>
<path d="M1467.01 276.787C1456.72 270.824 1446.96 265.178 1437.09 259.456V224.756C1446.76 219.136 1456.69 213.363 1466.94 207.413C1476.94 213.173 1486.89 218.908 1496.97 224.718V259.38C1487.3 265 1477.37 270.76 1467.02 276.787H1467.01Z" stroke="#9D17E1" stroke-opacity="0.882353" stroke-width="2.47547" stroke-miterlimit="10"/>
<path d="M1335.54 121.684C1325.48 127.495 1315.7 133.154 1305.43 139.079C1295.67 133.458 1285.91 127.838 1276.05 122.154V86.4774C1285.8 80.857 1295.4 75.3254 1305.42 69.54C1315.51 75.3635 1325.64 81.2122 1335.54 86.9342V121.672V121.684Z" stroke="#9D17E1" stroke-opacity="0.882353" stroke-width="2.47547" stroke-miterlimit="10"/>
<path d="M1276.66 259.884V224.335C1286.21 218.791 1295.97 213.145 1306.04 207.296C1316.05 213.094 1326.01 218.854 1336.06 224.665V259.491C1326.34 265.124 1316.38 270.884 1306.09 276.847C1296.27 271.176 1286.52 265.555 1276.67 259.872L1276.66 259.884Z" stroke="#9D17E1" stroke-opacity="0.882353" stroke-width="2.47547" stroke-miterlimit="10"/>
<path d="M1415.53 121.773C1405.58 127.52 1395.79 133.166 1385.58 139.066C1375.79 133.42 1366.02 127.8 1356.15 122.103V86.5028C1365.67 81.0219 1375.43 75.3888 1385.56 69.54C1395.51 75.2873 1405.47 81.0346 1415.53 86.8453V121.773V121.773Z" stroke="#9D17E1" stroke-opacity="0.882353" stroke-width="2.47547" stroke-miterlimit="10"/>
<path d="M1236.04 17.1394C1245.94 11.4302 1255.72 5.7844 1265.69 0.0244141C1275.62 5.83515 1285.37 11.5571 1295.31 17.3805V52.3083C1285.6 58.0049 1275.84 63.7268 1265.72 69.6644C1255.85 63.9806 1246.08 58.3601 1236.04 52.5874V17.1268V17.1394Z" stroke="#9D17E1" stroke-opacity="0.882353" stroke-width="2.47547" stroke-miterlimit="10"/>
<path d="M1465.72 139.104C1455.6 133.255 1446.01 127.723 1436.3 122.116V86.5028C1445.8 81.0219 1455.56 75.3888 1465.71 69.54C1475.64 75.2746 1485.6 81.0219 1495.68 86.8453V121.735C1486.06 127.305 1476.11 133.077 1465.72 139.104V139.104Z" stroke="#9D17E1" stroke-opacity="0.882353" stroke-width="2.47547" stroke-miterlimit="10"/>
<path d="M1356.79 259.887V224.287C1366.61 218.629 1376.38 212.995 1386.25 207.312C1396.46 213.249 1406.42 219.034 1416.28 224.756V259.418C1406.54 265.064 1396.41 270.938 1386.21 276.863C1376.3 271.141 1366.7 265.609 1356.79 259.875V259.887Z" stroke="#9D17E1" stroke-opacity="0.882353" stroke-width="2.47547" stroke-miterlimit="10"/>
<path d="M1215.56 156.256V190.879C1205.77 196.55 1195.84 202.323 1185.59 208.273C1175.72 202.589 1165.94 196.956 1155.9 191.171V156.065C1165.5 150.508 1175.27 144.862 1185.49 138.95C1195.37 144.634 1205.33 150.369 1215.56 156.268V156.256Z" stroke="#9D17E1" stroke-opacity="0.882353" stroke-width="2.47547" stroke-miterlimit="10"/>
<path d="M1075.77 156.04C1085.65 150.331 1095.24 144.786 1105.35 138.95C1115.19 144.609 1125.13 150.343 1135.25 156.167V190.98C1125.68 196.537 1115.74 202.297 1105.46 208.286C1095.62 202.627 1085.84 196.994 1075.77 191.196V156.065V156.04Z" stroke="#9D17E1" stroke-opacity="0.882353" stroke-width="2.47547" stroke-miterlimit="10"/>
<path d="M1025.29 208.285C1015.19 202.461 1005.58 196.917 995.648 191.17V156.026C1005.27 150.469 1015.2 144.722 1025.23 138.924C1035.31 144.735 1045.09 150.38 1055.09 156.14V190.941C1045.61 196.46 1035.68 202.233 1025.3 208.272L1025.29 208.285Z" stroke="#9D17E1" stroke-opacity="0.882353" stroke-width="2.47547" stroke-miterlimit="10"/>
<path d="M1235.89 191.084V156.143C1245.69 150.485 1255.61 144.75 1265.67 138.939C1275.62 144.776 1285.35 150.459 1295.28 156.296V190.855C1285.78 196.463 1275.91 202.287 1265.73 208.288C1255.85 202.591 1246.09 196.971 1235.88 191.097L1235.89 191.084Z" stroke="#9D17E1" stroke-opacity="0.882353" stroke-width="2.47547" stroke-miterlimit="10"/>
<path d="M991.798 139.088C981.611 133.189 971.854 127.543 962.072 121.884V86.7029C971.918 81.019 981.674 75.3732 991.811 69.5244C1001.72 75.2463 1011.67 80.9937 1021.69 86.7917V121.808C1011.88 127.467 1002.11 133.113 991.798 139.076V139.088Z" stroke="#9D17E1" stroke-opacity="0.882353" stroke-width="2.47547" stroke-miterlimit="10"/>
<path d="M1018.64 224.627V259.542C1008.78 265.238 998.838 270.986 988.675 276.847C978.729 271.112 968.972 265.479 959 259.719V224.462C968.693 218.854 978.614 213.119 988.663 207.296C998.673 213.081 1008.44 218.727 1018.64 224.614V224.627Z" stroke="#9D17E1" stroke-opacity="0.882353" stroke-width="2.47547" stroke-miterlimit="10"/>
</svg>
