<svg width="447" height="126" viewBox="0 0 447 126" fill="none" xmlns="http://www.w3.org/2000/svg">
<g clip-path="url(#clip0_1006_11049)">
<path d="M130.88 -6.53433e-05H2.97981C2.20133 -0.00194382 1.45102 0.291041 0.879801 0.819942C0.603669 1.07447 0.383669 1.3838 0.233866 1.72818C0.0840627 2.07255 0.00775533 2.4444 0.00980588 2.81994V122.46C0.00775533 122.835 0.0840627 123.207 0.233866 123.552C0.383669 123.896 0.603669 124.205 0.879801 124.46C1.45255 124.985 2.20269 125.275 2.97981 125.27H130.88C131.657 125.274 132.407 124.984 132.98 124.46C133.256 124.205 133.476 123.896 133.626 123.552C133.776 123.207 133.852 122.835 133.85 122.46V2.77993C133.852 2.40439 133.776 2.03254 133.626 1.68817C133.476 1.34379 133.256 1.03447 132.98 0.779933C132.403 0.26556 131.653 -0.0128718 130.88 -6.53433e-05ZM89.2398 80.7099C89.2419 81.0855 89.1655 81.4573 89.0157 81.8017C88.8659 82.1461 88.6459 82.4554 88.3698 82.7099C87.7986 83.2388 87.0483 83.5318 86.2698 83.5299H47.5998C46.8213 83.5318 46.071 83.2388 45.4998 82.7099C45.2237 82.4554 45.0037 82.1461 44.8539 81.8017C44.7041 81.4573 44.6278 81.0855 44.6298 80.7099V44.5299C44.6278 44.1544 44.7041 43.7825 44.8539 43.4382C45.0037 43.0938 45.2237 42.7845 45.4998 42.5299C46.071 42.001 46.8213 41.708 47.5998 41.7099H86.2698C87.0483 41.708 87.7986 42.001 88.3698 42.5299C88.6459 42.7845 88.8659 43.0938 89.0157 43.4382C89.1655 43.7825 89.2419 44.1544 89.2398 44.5299V80.7099Z" fill="white"/>
<path d="M398.64 41.7501H359.97C359.59 41.7341 359.21 41.7934 358.854 41.9247C358.497 42.056 358.169 42.2567 357.891 42.5151C357.612 42.7736 357.387 43.0847 357.229 43.4305C357.071 43.7764 356.983 44.1501 356.97 44.5301V80.7101C356.983 81.0901 357.071 81.4639 357.229 81.8097C357.387 82.1556 357.612 82.4667 357.891 82.7251C358.169 82.9836 358.497 83.1843 358.854 83.3156C359.21 83.4469 359.59 83.5062 359.97 83.4901H398.64C399.02 83.5062 399.399 83.4469 399.756 83.3156C400.113 83.1843 400.44 82.9836 400.719 82.7251C400.998 82.4667 401.223 82.1556 401.381 81.8097C401.539 81.4639 401.627 81.0901 401.64 80.7101V44.5301C401.627 44.1501 401.539 43.7764 401.381 43.4305C401.223 43.0847 400.998 42.7736 400.719 42.5151C400.44 42.2567 400.113 42.056 399.756 41.9247C399.399 41.7934 399.02 41.7341 398.64 41.7501Z" fill="white"/>
<path d="M354.03 0.000129148H315.36C314.98 -0.0159321 314.601 0.0433932 314.244 0.17469C313.887 0.305986 313.56 0.50666 313.281 0.765113C313.002 1.02357 312.777 1.33467 312.619 1.68052C312.461 2.02636 312.373 2.4001 312.36 2.78013V38.9601C312.373 39.3401 312.461 39.7139 312.619 40.0597C312.777 40.4056 313.002 40.7167 313.281 40.9751C313.56 41.2336 313.887 41.4343 314.244 41.5656C314.601 41.6969 314.98 41.7562 315.36 41.7401H354.03C354.41 41.7562 354.789 41.6969 355.146 41.5656C355.503 41.4343 355.83 41.2336 356.109 40.9751C356.388 40.7167 356.613 40.4056 356.771 40.0597C356.929 39.7139 357.017 39.3401 357.03 38.9601V2.78013C357.017 2.4001 356.929 2.02636 356.771 1.68052C356.613 1.33467 356.388 1.02357 356.109 0.765113C355.83 0.50666 355.503 0.305986 355.146 0.17469C354.789 0.0433932 354.41 -0.0159321 354.03 0.000129148Z" fill="white"/>
<path d="M443.28 0.000129148H404.61C404.23 -0.0159321 403.851 0.0433932 403.494 0.17469C403.137 0.305986 402.81 0.50666 402.531 0.765113C402.252 1.02357 402.027 1.33467 401.869 1.68052C401.711 2.02636 401.623 2.4001 401.61 2.78013V38.9601C401.623 39.3401 401.711 39.7139 401.869 40.0597C402.027 40.4056 402.252 40.7167 402.531 40.9751C402.81 41.2336 403.137 41.4343 403.494 41.5656C403.851 41.6969 404.23 41.7562 404.61 41.7401H443.28C443.66 41.7562 444.039 41.6969 444.396 41.5656C444.753 41.4343 445.08 41.2336 445.359 40.9751C445.638 40.7167 445.863 40.4056 446.021 40.0597C446.179 39.7139 446.267 39.3401 446.28 38.9601V2.78013C446.267 2.4001 446.179 2.02636 446.021 1.68052C445.863 1.33467 445.638 1.02357 445.359 0.765113C445.08 0.50666 444.753 0.305986 444.396 0.17469C444.039 0.0433932 443.66 -0.0159321 443.28 0.000129148Z" fill="white"/>
<path d="M354.03 83.5001H315.36C314.98 83.4841 314.601 83.5434 314.244 83.6747C313.887 83.806 313.56 84.0067 313.281 84.2651C313.002 84.5236 312.777 84.8347 312.619 85.1805C312.461 85.5264 312.373 85.9001 312.36 86.2801V122.46C312.373 122.84 312.461 123.214 312.619 123.56C312.777 123.906 313.002 124.217 313.281 124.475C313.56 124.734 313.887 124.934 314.244 125.066C314.601 125.197 314.98 125.256 315.36 125.24H354.03C354.41 125.256 354.789 125.197 355.146 125.066C355.503 124.934 355.83 124.734 356.109 124.475C356.388 124.217 356.613 123.906 356.771 123.56C356.929 123.214 357.017 122.84 357.03 122.46V86.2801C357.017 85.9001 356.929 85.5264 356.771 85.1805C356.613 84.8347 356.388 84.5236 356.109 84.2651C355.83 84.0067 355.503 83.806 355.146 83.6747C354.789 83.5434 354.41 83.4841 354.03 83.5001Z" fill="white"/>
<path d="M443.28 83.5001H404.61C404.23 83.4841 403.851 83.5434 403.494 83.6747C403.137 83.806 402.81 84.0067 402.531 84.2651C402.252 84.5236 402.027 84.8347 401.869 85.1805C401.711 85.5264 401.623 85.9001 401.61 86.2801V122.46C401.623 122.84 401.711 123.214 401.869 123.56C402.027 123.906 402.252 124.217 402.531 124.475C402.81 124.734 403.137 124.934 403.494 125.066C403.851 125.197 404.23 125.256 404.61 125.24H443.28C443.66 125.256 444.039 125.197 444.396 125.066C444.753 124.934 445.08 124.734 445.359 124.475C445.638 124.217 445.863 123.906 446.021 123.56C446.179 123.214 446.267 122.84 446.28 122.46V86.2801C446.267 85.9001 446.179 85.5264 446.021 85.1805C445.863 84.8347 445.638 84.5236 445.359 84.2651C445.08 84.0067 444.753 83.806 444.396 83.6747C444.039 83.5434 443.66 83.4841 443.28 83.5001Z" fill="white"/>
<path d="M287.05 8.0758e-05H248.39C248.01 -0.0159805 247.63 0.0433448 247.274 0.174641C246.917 0.305938 246.589 0.506611 246.31 0.765065C246.032 1.02352 245.807 1.33462 245.649 1.68047C245.49 2.02632 245.403 2.40005 245.39 2.78008V38.9601C245.403 39.3401 245.49 39.7138 245.649 40.0597C245.807 40.4055 246.032 40.7166 246.31 40.9751C246.589 41.2335 246.917 41.4342 247.274 41.5655C247.63 41.6968 248.01 41.7561 248.39 41.7401H287.06C287.44 41.7561 287.819 41.6968 288.176 41.5655C288.533 41.4342 288.86 41.2335 289.139 40.9751C289.418 40.7166 289.643 40.4055 289.801 40.0597C289.959 39.7138 290.047 39.3401 290.06 38.9601V2.78008C290.047 2.39917 289.959 2.02458 289.8 1.67806C289.641 1.33153 289.415 1.01996 289.135 0.761372C288.855 0.502786 288.527 0.302333 288.169 0.171651C287.811 0.0409686 287.43 -0.017339 287.05 8.0758e-05Z" fill="white"/>
<path d="M287.05 83.5001H248.39C248.01 83.484 247.63 83.5433 247.274 83.6746C246.917 83.8059 246.589 84.0066 246.31 84.2651C246.032 84.5235 245.807 84.8346 245.649 85.1805C245.49 85.5263 245.403 85.9001 245.39 86.2801V122.46C245.403 122.84 245.49 123.214 245.649 123.56C245.807 123.906 246.032 124.217 246.31 124.475C246.589 124.734 246.917 124.934 247.274 125.066C247.63 125.197 248.01 125.256 248.39 125.24H287.06C287.44 125.256 287.819 125.197 288.176 125.066C288.533 124.934 288.86 124.734 289.139 124.475C289.418 124.217 289.643 123.906 289.801 123.56C289.959 123.214 290.047 122.84 290.06 122.46V86.2801C290.047 85.8992 289.959 85.5246 289.8 85.1781C289.641 84.8315 289.415 84.52 289.135 84.2614C288.855 84.0028 288.527 83.8023 288.169 83.6717C287.811 83.541 287.43 83.4827 287.05 83.5001Z" fill="white"/>
<path d="M245.4 44.5C245.402 44.1244 245.325 43.7526 245.176 43.4082C245.026 43.0638 244.806 42.7545 244.53 42.5C243.958 41.9711 243.208 41.6781 242.43 41.68H200.78V2.77998C200.782 2.40444 200.705 2.03259 200.556 1.68821C200.406 1.34384 200.186 1.03451 199.91 0.779977C199.338 0.251076 198.588 -0.0419086 197.81 -0.0400301H159.13C158.351 -0.0419086 157.601 0.251076 157.03 0.779977C156.754 1.03451 156.534 1.34384 156.384 1.68821C156.234 2.03259 156.158 2.40444 156.16 2.77998V122.39C156.158 122.766 156.234 123.137 156.384 123.482C156.534 123.826 156.754 124.135 157.03 124.39C157.601 124.919 158.351 125.212 159.13 125.21H197.8C198.578 125.212 199.328 124.919 199.9 124.39C200.176 124.135 200.396 123.826 200.546 123.482C200.695 123.137 200.772 122.766 200.77 122.39V83.46H242.41C243.188 83.4618 243.938 83.1689 244.51 82.64C244.786 82.3854 245.006 82.0761 245.156 81.7317C245.305 81.3874 245.382 81.0155 245.38 80.64L245.4 44.5Z" fill="white"/>
</g>
<defs>
<clipPath id="clip0_1006_11049">
<rect width="446.25" height="125.25" fill="white"/>
</clipPath>
</defs>
</svg>
