<svg width="320" height="320" viewBox="0 0 320 320" fill="none" xmlns="http://www.w3.org/2000/svg">
<g clip-path="url(#clip0_455_5810)">
<path fill-rule="evenodd" clip-rule="evenodd" d="M90.2321 90.2318C108.736 71.7282 133.832 61.333 160 61.333C186.168 61.333 211.264 71.7282 229.768 90.2318C246.376 106.84 256.452 128.761 258.342 152H61.6579C63.5475 128.761 73.6234 106.84 90.2321 90.2318ZM160 45.333C129.588 45.333 100.423 57.4139 78.9183 78.9181C57.4142 100.422 45.3333 129.588 45.3333 160C45.3333 164.418 48.915 168 53.3333 168H152V240C152 249.194 155.652 258.012 162.154 264.513C168.655 271.014 177.472 274.667 186.667 274.667C195.861 274.667 204.678 271.014 211.18 264.513C217.681 258.012 221.333 249.194 221.333 240C221.333 235.582 217.752 232 213.333 232C208.915 232 205.333 235.582 205.333 240C205.333 244.951 203.367 249.699 199.866 253.199C196.365 256.7 191.617 258.667 186.667 258.667C181.716 258.667 176.968 256.7 173.467 253.199C169.967 249.699 168 244.951 168 240V168H266.667C268.788 168 270.823 167.157 272.323 165.657C273.824 164.156 274.667 162.121 274.667 160C274.667 129.588 262.586 100.422 241.081 78.9181C219.577 57.4139 190.411 45.333 160 45.333Z" fill="url(#paint0_linear_455_5810)"/>
</g>
<defs>
<linearGradient id="paint0_linear_455_5810" x1="160" y1="45.333" x2="160" y2="274.667" gradientUnits="userSpaceOnUse">
<stop stop-color="white" stop-opacity="0.1"/>
<stop offset="1" stop-color="white" stop-opacity="0.01"/>
</linearGradient>
<clipPath id="clip0_455_5810">
<rect width="320" height="320" fill="white"/>
</clipPath>
</defs>
</svg>
