<svg width="1600" height="682" viewBox="0 0 1600 682" fill="none" xmlns="http://www.w3.org/2000/svg">
<g clip-path="url(#clip0_610_260)">
<path d="M-2.00868e-05 400C-2.00868e-05 400 49.8574 115.414 437.683 215.859C825.509 316.303 858.202 61.1514 1050.28 73.2841C1242.35 85.4168 1273 4 1273 4" stroke="#8900FF" stroke-opacity="0.4" stroke-width="3"/>
<path d="M659 678C659 678 703.374 261.901 1048.55 408.763C1393.72 555.624 1422.82 182.562 1593.77 200.302" stroke="#F500FF" stroke-opacity="0.443" stroke-width="3"/>
<path d="M20.5 661.5C20.5 661.5 81.5 205.876 556 366.688C1030.5 527.5 1070.5 119 1305.5 138.425C1540.5 157.849 1578 27.5 1578 27.5" stroke="#6F58FF" stroke-opacity="0.133" stroke-width="3"/>
<path d="M185.5 679C185.5 679 234.085 431.414 670.351 531.859C1106.62 632.303 1143.39 377.151 1359.46 389.284C1575.52 401.417 1597 331 1597 331" stroke="#FED136" stroke-opacity="0.36" stroke-width="3"/>
</g>
<defs>
<clipPath id="clip0_610_260">
<rect y="0.5" width="1600" height="681" rx="64" fill="white"/>
</clipPath>
</defs>
</svg>
