<svg width="14" height="15" viewBox="0 0 14 15" fill="none" xmlns="http://www.w3.org/2000/svg">
<path d="M1.3946 11.0575L6.19244 2.7703C6.45762 2.31229 6.59022 2.08328 6.76317 2.00637C6.91408 1.93928 7.08628 1.93928 7.23719 2.00637C7.41015 2.08328 7.54274 2.31229 7.80792 2.7703L12.6058 11.0575C12.8719 11.5172 13.005 11.747 12.9853 11.9356C12.9681 12.1001 12.8819 12.2496 12.7481 12.3469C12.5948 12.4585 12.3292 12.4585 11.798 12.4585H2.20233C1.67119 12.4585 1.40562 12.4585 1.25223 12.3469C1.11844 12.2496 1.03224 12.1001 1.01509 11.9356C0.995419 11.747 1.12848 11.5172 1.3946 11.0575Z" stroke="white" stroke-width="1.16667" stroke-linecap="round" stroke-linejoin="round"/>
<path d="M7.00024 5.75V8.08333M7.00024 10.4167H7.00608" stroke="white" stroke-width="1.16667" stroke-linecap="round" stroke-linejoin="round"/>
</svg>
