<svg width="10" height="10" viewBox="0 0 10 10" fill="none" xmlns="http://www.w3.org/2000/svg">
<path d="M9.51123 1.03125V7.59375C9.51123 7.97656 9.21045 8.25 8.85498 8.25C8.47217 8.25 8.19873 7.97656 8.19873 7.59375V2.61719L1.88232 8.93359C1.74561 9.07031 1.58154 9.125 1.41748 9.125C1.22607 9.125 1.06201 9.07031 0.952637 8.93359C0.679199 8.6875 0.679199 8.27734 0.952637 8.03125L7.26904 1.6875H2.29248C1.90967 1.6875 1.63623 1.41406 1.63623 1.03125C1.63623 0.675781 1.90967 0.375 2.29248 0.375H8.85498C9.21045 0.375 9.51123 0.675781 9.51123 1.03125Z" fill="#EC458D"/>
</svg>
