<svg width="7" height="8" viewBox="0 0 7 8" fill="none" xmlns="http://www.w3.org/2000/svg">
<path d="M4.39998 2.69137C4.39998 2.69137 4.45998 2.77137 4.48998 2.82137C4.48998 2.84137 4.50998 2.85137 4.52998 2.85137H5.11998C5.11998 2.85137 5.16998 2.82137 5.16998 2.79137C5.13998 2.66137 5.07998 2.53137 5.00998 2.41137C4.85998 2.16137 4.62998 1.98137 4.37998 1.89137C4.37998 1.89137 4.36998 1.89137 4.36998 1.87137V1.65137H4.13998V1.79137C4.13998 1.79137 4.13998 1.81137 4.11998 1.81137C4.03998 1.80137 3.95998 1.80137 3.86998 1.81137C3.85998 1.81137 3.84998 1.81137 3.84998 1.79137V1.65137H3.61998V1.84137C3.61998 1.84137 3.61998 1.86137 3.60998 1.86137C3.24998 1.97137 2.94998 2.25137 2.83998 2.71137C2.68998 3.33137 3.08998 3.81137 3.60998 4.06137C3.60998 4.06137 3.61998 4.06137 3.61998 4.08137V5.14137C3.61998 5.23137 3.61998 5.23137 3.56998 5.15137C3.52998 5.09137 3.49998 5.03137 3.47998 4.97137C3.47998 4.95137 3.45998 4.94137 3.43998 4.94137H2.85998C2.85998 4.94137 2.80998 4.97137 2.80998 4.99137C2.88998 5.45137 3.20998 5.81137 3.59998 5.96137C3.59998 5.96137 3.60998 5.96137 3.60998 5.98137V6.23137H3.83998V6.05137C3.83998 6.05137 3.84998 6.03137 3.85998 6.03137C3.93998 6.04137 4.01998 6.04137 4.10998 6.03137C4.11998 6.03137 4.12998 6.03137 4.12998 6.05137V6.22137H4.35998V5.99137C4.35998 5.99137 4.35998 5.97137 4.36998 5.97137C4.51998 5.92137 4.66998 5.83137 4.79998 5.71137C5.19998 5.34137 5.31998 4.68137 4.85998 4.10137C4.70998 3.91137 4.53998 3.80137 4.36998 3.72137C4.36998 3.72137 4.35998 3.72137 4.35998 3.70137V2.69137C4.35998 2.63137 4.35998 2.62137 4.39998 2.67137V2.69137ZM3.56998 3.23137C3.56998 3.31137 3.56998 3.31137 3.51998 3.23137C3.38998 3.03137 3.41998 2.82137 3.52998 2.67137C3.53998 2.66137 3.55998 2.67137 3.55998 2.68137V3.22137L3.56998 3.23137ZM4.10998 5.35137C4.10998 5.35137 4.10998 5.37137 4.09998 5.37137C4.01998 5.39137 3.92998 5.39137 3.83998 5.37137C3.83998 5.37137 3.82998 5.37137 3.82998 5.35137V4.29137C3.82998 4.16137 3.81998 4.17137 3.93998 4.22137C3.99998 4.25137 4.05998 4.28137 4.10998 4.31137C4.10998 4.31137 4.10998 4.31137 4.10998 4.33137V5.35137ZM4.10998 3.60137C4.10998 3.60137 4.09998 3.62137 4.07998 3.62137C3.98998 3.59137 3.90998 3.55137 3.82998 3.51137C3.82998 3.51137 3.82998 3.51137 3.82998 3.49137V2.52137C3.82998 2.52137 3.82998 2.50137 3.83998 2.50137C3.92998 2.48137 4.01998 2.48137 4.09998 2.50137C4.09998 2.50137 4.10998 2.50137 4.10998 2.52137V3.60137ZM4.43998 4.63137C4.54998 4.82137 4.53998 5.00137 4.44998 5.14137C4.35998 5.28137 4.35998 5.23137 4.35998 5.10137V4.64137C4.35998 4.51137 4.35998 4.51137 4.43998 4.63137Z" fill="#E6E6E7"/>
<path d="M6.08 5.92132C6.08 5.06132 6.17 5.27132 5.68 5.76132C5.01 6.43132 4.1 6.62132 3.28 6.43132C2.17 6.17132 1.44 5.09132 1.44 3.95132V3.93132C1.44 2.79132 2.17 1.72132 3.28 1.45132C4.1 1.26132 5.01 1.45132 5.68 2.12132C6.14 2.58132 6.08 2.86132 6.08 2.03132V1.31132C6.08 0.671321 6.1 0.621321 5.49 0.351321C4.02 -0.318679 2.23 -0.018679 1.06 1.15132C1.06 1.15132 1.05 1.16132 1.04 1.17132C0.33 1.89132 0 2.90132 0 3.91132V4.02132C0 4.87132 0.22 5.72132 0.74 6.38132C0.84 6.50132 0.94 6.62132 1.06 6.74132C2.21 7.89132 3.97 8.21132 5.45 7.56132C6.11 7.27132 6.08 7.21132 6.08 6.52132V5.91132V5.92132Z" fill="#E6E6E7"/>
</svg>
