<svg width="5" height="10" viewBox="0 0 5 10" fill="none" xmlns="http://www.w3.org/2000/svg">
<path d="M3.46007 2.34C3.41007 2.24 3.35007 2.16 3.29007 2.08C3.20007 1.97 3.21007 1.98 3.21007 2.11V4.13C3.21007 4.13 3.21007 4.16 3.23007 4.16C3.58007 4.32 3.92007 4.53 4.22007 4.92C5.14007 6.09 4.90007 7.4 4.10007 8.15C3.83007 8.4 3.54007 8.57 3.24007 8.68C3.22007 8.68 3.21007 8.7 3.21007 8.72V9.17C3.21007 9.17 3.21007 9.19 3.19007 9.19H2.72007C2.72007 9.19 2.70007 9.19 2.70007 9.17V8.84C2.70007 8.84 2.68007 8.8 2.66007 8.8C2.49007 8.81 2.33007 8.8 2.17007 8.78C2.15007 8.78 2.13007 8.79 2.13007 8.82V9.17C2.13007 9.17 2.13007 9.19 2.11007 9.19H1.64007C1.64007 9.19 1.62007 9.19 1.62007 9.17V8.66C1.62007 8.66 1.62007 8.63 1.60007 8.63C0.81007 8.31 0.18007 7.61 0.01007 6.68C0.01007 6.62 0.04007 6.57 0.10007 6.57H1.26007C1.26007 6.57 1.33007 6.59 1.35007 6.63C1.39007 6.76 1.46007 6.88 1.53007 7C1.63007 7.16 1.62007 7.14 1.62007 6.97V4.85C1.62007 4.85 1.62007 4.82 1.60007 4.82C0.57007 4.32 -0.22993 3.37 0.06007 2.12C0.28007 1.21 0.88007 0.65 1.59007 0.43C1.61007 0.43 1.62007 0.41 1.62007 0.39V0.02C1.62007 0.02 1.62007 0 1.64007 0H2.11007C2.11007 0 2.13007 0 2.13007 0.02V0.29C2.13007 0.29 2.15007 0.33 2.17007 0.33C2.33007 0.32 2.50007 0.33 2.66007 0.35C2.68007 0.35 2.70007 0.34 2.70007 0.31V0.02C2.70007 0.02 2.70007 0 2.72007 0H3.19007C3.19007 0 3.21007 0 3.21007 0.02V0.45C3.21007 0.45 3.21007 0.48 3.23007 0.48C3.73007 0.67 4.19007 1.02 4.49007 1.52C4.63007 1.75 4.75007 2 4.81007 2.27C4.82007 2.33 4.78007 2.39 4.72007 2.39H3.54007C3.54007 2.39 3.47007 2.37 3.46007 2.34ZM2.68007 1.69C2.51007 1.65 2.34007 1.65 2.16007 1.69C2.14007 1.69 2.13007 1.71 2.13007 1.73V3.68C2.13007 3.68 2.13007 3.71 2.15007 3.71C2.31007 3.8 2.48007 3.87 2.65007 3.93C2.67007 3.93 2.70007 3.93 2.70007 3.9V1.73C2.70007 1.73 2.69007 1.7 2.67007 1.69H2.68007ZM3.21007 5.98V6.89C3.21007 7.15 3.20007 7.25 3.38007 6.97C3.56007 6.69 3.59007 6.33 3.36007 5.96C3.21007 5.72 3.21007 5.72 3.21007 5.99V5.98ZM2.70007 7.4V5.35C2.70007 5.35 2.70007 5.33 2.68007 5.32C2.57007 5.25 2.45007 5.19 2.34007 5.14C2.10007 5.03 2.13007 5.02 2.13007 5.27V7.4C2.13007 7.4 2.14007 7.43 2.16007 7.44C2.34007 7.48 2.51007 7.48 2.68007 7.44C2.70007 7.44 2.71007 7.42 2.71007 7.4H2.70007ZM1.55007 2.07C1.33007 2.36 1.26007 2.79 1.52007 3.18C1.61007 3.32 1.61007 3.33 1.61007 3.16V2.08C1.61007 2.08 1.56007 2.03 1.54007 2.06L1.55007 2.07Z" fill="#E6E6E7"/>
</svg>
