<svg width="8" height="8" viewBox="0 0 8 8" fill="none" xmlns="http://www.w3.org/2000/svg">
<path d="M7.01 1.31046V2.03046C7.01 2.87046 7.06 2.58046 6.61 2.12046C5.27 0.780455 2.99 1.35046 2.37 3.06046C2.37 3.09046 2.37 3.11046 2.41 3.11046H5.76C5.76 3.11046 5.8 3.13046 5.8 3.15046V3.62046C5.8 3.62046 5.78 3.66046 5.76 3.66046H2.27C2.27 3.66046 2.23 3.68046 2.23 3.70046C2.22 3.86046 2.22 4.01046 2.23 4.17046C2.23 4.19046 2.25 4.21046 2.27 4.21046H5.76C5.76 4.21046 5.8 4.23046 5.8 4.25046V4.72046C5.8 4.72046 5.78 4.76046 5.76 4.76046H2.4C2.4 4.76046 2.35 4.79046 2.36 4.81046C2.97 6.52046 5.26 7.10046 6.6 5.76046C7.09 5.27046 7 5.05046 7 5.92046V6.53046C7 7.21046 7.03 7.27046 6.37 7.57046C4.89 8.22046 3.13 7.89046 1.98 6.75046C1.43 6.20046 1.08 5.52046 0.92 4.81046C0.92 4.79046 0.9 4.78046 0.88 4.78046H0.04C0.04 4.78046 0 4.76046 0 4.74046V4.27046C0 4.27046 0.02 4.23046 0.04 4.23046H0.81C0.81 4.23046 0.85 4.21046 0.85 4.19046C0.85 4.04046 0.85 3.88046 0.85 3.73046C0.85 3.71046 0.83 3.69046 0.81 3.69046H0.04C0.04 3.69046 0 3.67046 0 3.65046V3.18046C0 3.18046 0.02 3.14046 0.04 3.14046H0.9C0.9 3.14046 0.93 3.13046 0.94 3.11046C1.1 2.40046 1.45 1.72046 2 1.17046C3.17 -0.0195446 4.95 -0.319544 6.42 0.350456C7.03 0.630456 7.01 0.680455 7.01 1.31046Z" fill="#E6E6E7"/>
</svg>
