<svg width="31" height="30" viewBox="0 0 31 30" fill="none" xmlns="http://www.w3.org/2000/svg">
<path d="M30.1021 13.7502L23.3301 6.97827H21.8613L20.1127 13.7502V29.3186H26.5475V13.7502H30.1021Z" fill="#05050E"/>
<path d="M28.6332 13.7502L21.8612 6.97827L15.0892 13.7502H18.6438V29.3186H25.0786V13.7502H28.6332Z" fill="#8A14F6"/>
<path d="M18.6438 29.3186H25.0787V17.8398L18.6438 24.2747V29.3186Z" fill="#8A14F6"/>
<path d="M17.9721 7.09835L11.2001 0.326416H9.51992L7.98267 7.09835V29.3186H14.4176V7.09835H17.9721Z" fill="#05050E"/>
<path d="M16.2177 7.09835L9.44572 0.326416L2.67371 7.09835H6.22826V29.3186H12.6632V7.09835H16.2177Z" fill="#8A14F6"/>
<path d="M6.22839 29.3186H12.6633V9.20264L6.22839 15.6376V29.3186Z" fill="#8A14F6"/>
<path d="M18.2029 6.86749L11.4309 0.0955529C11.3697 0.0343672 11.2867 -3.15581e-06 11.2002 2.17331e-10H9.51996C9.50576 2.17331e-10 9.49181 0.00130559 9.47801 0.00310078C9.38401 -0.00620156 9.28691 0.0236638 9.21502 0.0955529L2.44309 6.86749C2.39737 6.9131 2.36623 6.97126 2.35359 7.0346C2.34096 7.09793 2.34741 7.16358 2.37212 7.22325C2.39683 7.28291 2.4387 7.3339 2.49241 7.36976C2.54612 7.40561 2.60927 7.42471 2.67385 7.42465H5.902V29.3186C5.902 29.4052 5.93639 29.4882 5.9976 29.5494C6.05881 29.6106 6.14183 29.645 6.2284 29.645H13.5138C13.4978 29.4228 13.499 29.201 13.5058 28.9922H6.55488V7.09833C6.55488 7.01177 6.52049 6.92875 6.45928 6.86753C6.39807 6.80632 6.31505 6.77194 6.22848 6.77194H3.46202L9.44595 0.788005L15.4299 6.77194H12.6634C12.5768 6.77194 12.4938 6.80632 12.4326 6.86753C12.3714 6.92875 12.337 7.01177 12.337 7.09833V12.7608C12.5165 12.5498 12.9781 12.1737 12.9898 12.1668V7.42473H14.0914V11.4379C14.3117 11.2291 14.716 10.6611 14.7442 10.6277V7.42473H17.9724C18.0369 7.42468 18.1 7.40551 18.1536 7.36962C18.2073 7.33373 18.2491 7.28274 18.2737 7.2231C18.2984 7.16346 18.3048 7.09785 18.2922 7.03455C18.2796 6.97125 18.2485 6.91312 18.2029 6.86749V6.86749ZM16.3529 6.77194L10.2338 0.652795H11.065L17.1841 6.77194H16.3529Z" fill="#05050E"/>
<path d="M23.7459 16.7188L16.9739 9.94678H15.3827L13.7565 16.7188V29.3186H20.1913V16.7188H23.7459Z" fill="#05050E"/>
<path d="M22.1547 16.7188L15.3827 9.94678L8.61072 16.7188H12.1653V29.3186H18.6001V16.7188H22.1547Z" fill="#8A14F6"/>
<path d="M12.1653 29.3186H18.6001V19.9121L12.1653 26.347V29.3186Z" fill="#8A14F6"/>
<path d="M23.9766 16.4879L17.2047 9.71591C17.1435 9.65473 17.0605 9.62036 16.9739 9.62036H15.3828C15.34 9.62039 15.2976 9.62892 15.2581 9.64545C15.2186 9.66197 15.1828 9.68618 15.1527 9.71665L15.152 9.71591L8.38006 16.4879C8.32638 16.4879 8.27352 16.5011 8.22617 16.5264C8.17883 16.5517 8.13845 16.5883 8.10862 16.633C8.07879 16.6776 8.06043 16.7289 8.05516 16.7823C8.0499 16.8357 8.05789 16.8896 8.07843 16.9392C8.09897 16.9888 8.13143 17.0326 8.17293 17.0666C8.21442 17.1007 8.26368 17.124 8.31633 17.1345C8.36898 17.1449 8.4234 17.1422 8.47477 17.1267C8.52614 17.1111 8.57287 17.0831 8.61082 17.0451H11.839V29.3185C11.839 29.4051 11.8734 29.4881 11.9346 29.5493C11.9958 29.6105 12.0788 29.6449 12.1654 29.6449H20.1914C20.278 29.6449 20.361 29.6105 20.4222 29.5493C20.4834 29.4881 20.5178 29.4051 20.5178 29.3185V17.0451H23.746C23.8105 17.0451 23.8736 17.0259 23.9272 16.99C23.9809 16.9542 24.0227 16.9032 24.0474 16.8436C24.0721 16.7839 24.0785 16.7183 24.0659 16.655C24.0533 16.5917 24.0223 16.5336 23.9766 16.4879ZM19.8649 28.9921H18.9265V17.0451H19.8649V28.9921ZM18.6001 16.3923C18.5136 16.3923 18.4306 16.4267 18.3693 16.4879C18.3081 16.5491 18.2737 16.6321 18.2737 16.7187V28.9921H12.4917V16.7187C12.4917 16.6321 12.4573 16.5491 12.3961 16.4879C12.3349 16.4267 12.2519 16.3923 12.1653 16.3923H9.39883L15.3828 10.4083L21.3667 16.3923H18.6001V16.3923ZM22.2898 16.3923L16.1608 10.2632C16.1695 10.2664 16.178 10.2699 16.1867 10.2731H16.8387L22.9578 16.3923H22.2898V16.3923Z" fill="#05050E"/>
<path d="M0.326416 14.9026H6.0928V29.3185H0.326416V14.9026Z" fill="#8A14F6"/>
<path d="M6.09278 29.6451H0.326398C0.239832 29.6451 0.156811 29.6107 0.0955994 29.5495C0.034388 29.4882 0 29.4052 0 29.3187V14.9028C0 14.8162 0.034388 14.7332 0.0955994 14.672C0.156811 14.6108 0.239832 14.5764 0.326398 14.5764H6.09278C6.17935 14.5764 6.26237 14.6108 6.32358 14.672C6.38479 14.7332 6.41918 14.8162 6.41918 14.9028V29.3187C6.41918 29.4052 6.38479 29.4882 6.32358 29.5495C6.26237 29.6107 6.17935 29.6451 6.09278 29.6451ZM0.652795 28.9923H5.76639V15.2292H0.652795V28.9923Z" fill="#05050E"/>
</svg>
