<svg width="55" height="55" viewBox="0 0 55 55" fill="none" xmlns="http://www.w3.org/2000/svg">
<rect x="0.5" y="0.5" width="54" height="54" rx="3.5" fill="#05050E" stroke="#212130"/>
<path d="M44.102 26.7502L37.33 19.9783H35.8612L34.1126 26.7502V42.3186H40.5475V26.7502H44.102Z" fill="#57189C"/>
<path d="M42.6332 26.7502L35.8612 19.9783L29.0893 26.7502H32.6438V42.3186H39.0787V26.7502H42.6332Z" fill="#8A14F6"/>
<path d="M32.6437 42.3186H39.0787V30.8398L32.6437 37.2747V42.3186Z" fill="#8A14F6"/>
<path d="M31.9722 20.0984L25.2002 13.3264H23.52L21.9827 20.0984V42.3186H28.4177V20.0984H31.9722Z" fill="#57189C"/>
<path d="M30.2178 20.0984L23.4458 13.3264L16.6738 20.0984H20.2283V42.3186H26.6632V20.0984H30.2178Z" fill="#8A14F6"/>
<path d="M20.2283 42.3186H26.6633V22.2026L20.2283 28.6376V42.3186Z" fill="#8A14F6"/>
<path d="M32.2029 19.8675L25.4309 13.0956C25.3697 13.0344 25.2867 13 25.2002 13H23.52C23.5058 13 23.4918 13.0013 23.478 13.0031C23.384 12.9938 23.2869 13.0237 23.215 13.0956L16.4431 19.8675C16.3974 19.9131 16.3662 19.9713 16.3536 20.0346C16.341 20.0979 16.3474 20.1636 16.3721 20.2232C16.3968 20.2829 16.4387 20.3339 16.4924 20.3698C16.5461 20.4056 16.6093 20.4247 16.6738 20.4246H19.902V42.3186C19.902 42.4052 19.9364 42.4882 19.9976 42.5494C20.0588 42.6106 20.1418 42.645 20.2284 42.645H27.5138C27.4978 42.4228 27.499 42.201 27.5058 41.9922H20.5549V20.0983C20.5549 20.0118 20.5205 19.9287 20.4593 19.8675C20.3981 19.8063 20.315 19.7719 20.2285 19.7719H17.462L23.4459 13.788L29.4299 19.7719H26.6634C26.5768 19.7719 26.4938 19.8063 26.4326 19.8675C26.3714 19.9287 26.337 20.0118 26.337 20.0983V25.7608C26.5165 25.5498 26.9781 25.1737 26.9898 25.1668V20.4247H28.0914V24.4379C28.3117 24.2291 28.716 23.6611 28.7442 23.6277V20.4247H31.9724C32.0369 20.4247 32.1 20.4055 32.1536 20.3696C32.2073 20.3337 32.2491 20.2827 32.2737 20.2231C32.2984 20.1635 32.3048 20.0978 32.2922 20.0345C32.2796 19.9713 32.2485 19.9131 32.2029 19.8675V19.8675ZM30.3529 19.7719L24.2338 13.6528H25.065L31.1841 19.7719H30.3529Z" fill="#57189C"/>
<path d="M37.7459 29.7188L30.9739 22.9468H29.3827L27.7565 29.7188V42.3186H34.1913V29.7188H37.7459Z" fill="#57189C"/>
<path d="M36.1547 29.7188L29.3827 22.9468L22.6107 29.7188H26.1653V42.3186H32.6001V29.7188H36.1547Z" fill="#8A14F6"/>
<path d="M26.1653 42.3186H32.6001V32.9121L26.1653 39.347V42.3186Z" fill="#8A14F6"/>
<path d="M37.9766 29.4879L31.2047 22.7159C31.1435 22.6547 31.0605 22.6204 30.9739 22.6204H29.3828C29.3399 22.6204 29.2976 22.6289 29.2581 22.6454C29.2186 22.662 29.1828 22.6862 29.1527 22.7166L29.152 22.7159L22.3801 29.4879C22.3264 29.4879 22.2735 29.5011 22.2262 29.5264C22.1788 29.5517 22.1384 29.5883 22.1086 29.633C22.0788 29.6776 22.0604 29.7289 22.0552 29.7823C22.0499 29.8357 22.0579 29.8896 22.0784 29.9392C22.099 29.9888 22.1314 30.0326 22.1729 30.0666C22.2144 30.1007 22.2637 30.124 22.3163 30.1345C22.369 30.1449 22.4234 30.1422 22.4748 30.1267C22.5261 30.1111 22.5729 30.0831 22.6108 30.0451H25.839V42.3185C25.839 42.4051 25.8734 42.4881 25.9346 42.5493C25.9958 42.6105 26.0788 42.6449 26.1654 42.6449H34.1914C34.278 42.6449 34.361 42.6105 34.4222 42.5493C34.4834 42.4881 34.5178 42.4051 34.5178 42.3185V30.0451H37.746C37.8105 30.0451 37.8736 30.0259 37.9272 29.99C37.9809 29.9542 38.0227 29.9032 38.0474 29.8436C38.0721 29.7839 38.0785 29.7183 38.0659 29.655C38.0533 29.5917 38.0223 29.5336 37.9766 29.4879ZM33.8649 41.9921H32.9265V30.0451H33.8649V41.9921ZM32.6001 29.3923C32.5136 29.3923 32.4306 29.4267 32.3693 29.4879C32.3081 29.5491 32.2737 29.6321 32.2737 29.7187V41.9921H26.4917V29.7187C26.4917 29.6321 26.4573 29.5491 26.3961 29.4879C26.3349 29.4267 26.2519 29.3923 26.1653 29.3923H23.3988L29.3828 23.4083L35.3667 29.3923H32.6001V29.3923ZM36.2898 29.3923L30.1608 23.2632C30.1695 23.2664 30.178 23.2699 30.1867 23.2731H30.8387L36.9578 29.3923H36.2898V29.3923Z" fill="#57189C"/>
<path d="M14.3264 27.9026H20.0928V42.3185H14.3264V27.9026Z" fill="#8A14F6"/>
<path d="M20.0928 42.6451H14.3264C14.2398 42.6451 14.1568 42.6107 14.0956 42.5495C14.0344 42.4882 14 42.4052 14 42.3187V27.9028C14 27.8162 14.0344 27.7332 14.0956 27.672C14.1568 27.6108 14.2398 27.5764 14.3264 27.5764H20.0928C20.1793 27.5764 20.2624 27.6108 20.3236 27.672C20.3848 27.7332 20.4192 27.8162 20.4192 27.9028V42.3187C20.4192 42.4052 20.3848 42.4882 20.3236 42.5495C20.2624 42.6107 20.1793 42.6451 20.0928 42.6451ZM14.6528 41.9923H19.7664V28.2292H14.6528V41.9923Z" fill="#57189C"/>
</svg>
