<svg width="39" height="33" viewBox="0 0 39 33" fill="none" xmlns="http://www.w3.org/2000/svg">
<path d="M20.0115 0C20.1673 0.194597 20.3231 0.389194 20.487 0.594208C20.451 0.639957 20.4155 0.686593 20.3783 0.732046C20.2817 0.850414 20.1818 0.966534 20.0883 1.08762C20.0695 1.11616 20.0434 1.13922 20.0128 1.15448C19.9823 1.16975 19.9482 1.17667 19.9141 1.17457C19.6639 1.16948 19.4136 1.17184 19.1634 1.17326C19.1361 1.17648 19.1085 1.17268 19.0831 1.16223C19.0577 1.15178 19.0353 1.13502 19.0182 1.11355C18.8835 0.94286 18.7437 0.776198 18.5939 0.593082L19.092 0H20.0115Z" fill="#8A14F6"/>
<path d="M19.2876 32.1582C19.1736 32.0132 19.0595 31.8682 18.9453 31.7232C18.9111 31.6799 18.8761 31.6372 18.8347 31.5859C18.9832 31.4045 19.1277 31.2249 19.2769 31.0493C19.3035 31.0253 19.3382 31.0122 19.374 31.0127C19.6472 31.01 19.9204 31.0101 20.1935 31.0131C20.2293 31.014 20.2634 31.0284 20.2889 31.0536C20.4358 31.226 20.5782 31.402 20.7283 31.5847L20.2629 32.1582H19.2876Z" fill="#8A14F6"/>
<path d="M22.5225 6.88998C22.497 6.92443 22.4739 6.95834 22.448 6.98994C22.0066 7.52852 21.5636 8.06585 21.1251 8.60679C21.1024 8.638 21.0722 8.66293 21.0372 8.67922C21.0022 8.69552 20.9637 8.70265 20.9252 8.69994C20.0152 8.69699 19.1053 8.69659 18.1953 8.69876C18.1614 8.7034 18.1269 8.69934 18.095 8.68698C18.0631 8.67462 18.0348 8.65436 18.0129 8.6281C17.5539 8.06194 17.0906 7.49928 16.6287 6.93543C16.618 6.91996 16.6081 6.90392 16.5991 6.88738C16.6234 6.85524 16.6492 6.81843 16.6775 6.7838C17.1164 6.2491 17.5551 5.71421 17.9935 5.17915C18.0171 5.14576 18.0488 5.11887 18.0856 5.10097C18.1224 5.08306 18.1632 5.07472 18.204 5.0767C19.1095 5.08043 20.0147 5.07919 20.92 5.07836C20.954 5.07369 20.9886 5.07768 21.0205 5.08995C21.0525 5.10223 21.0809 5.12238 21.103 5.14855C21.5629 5.71405 22.0266 6.2763 22.489 6.83979C22.5009 6.85382 22.5097 6.86998 22.5225 6.88998Z" fill="#8A14F6"/>
<path d="M11.0603 9.83304C11.1026 9.78066 11.1428 9.73035 11.1836 9.68064C11.602 9.17112 12.0224 8.66321 12.4371 8.15062C12.4657 8.10984 12.5042 8.07703 12.5491 8.05529C12.5939 8.03354 12.6435 8.02357 12.6933 8.02633C13.5801 8.03138 14.467 8.03163 15.3539 8.0271C15.4013 8.02335 15.4488 8.03171 15.4921 8.05137C15.5354 8.07104 15.5729 8.10138 15.6013 8.13955C16.0333 8.67392 16.4717 9.20302 16.9077 9.73414C16.9338 9.76604 16.9573 9.80007 16.9854 9.83771C16.9617 9.87038 16.9425 9.9011 16.9196 9.92903C16.4725 10.4749 16.0255 11.021 15.5787 11.5674C15.5588 11.595 15.5323 11.6172 15.5015 11.6319C15.4708 11.6465 15.4369 11.6533 15.4029 11.6514C14.4836 11.649 13.5643 11.6487 12.645 11.6505C12.6156 11.6542 12.5857 11.6505 12.558 11.6397C12.5304 11.6289 12.5059 11.6113 12.4869 11.5885C12.0213 11.0157 11.5539 10.4442 11.0847 9.87411C11.0759 9.86087 11.0677 9.84716 11.0603 9.83304V9.83304Z" fill="#8A14F6"/>
<path d="M12.7415 16.2037C12.7114 16.2423 12.6839 16.279 12.6548 16.3146C12.2193 16.8459 11.782 17.3758 11.3499 17.9097C11.3244 17.9444 11.2905 17.9721 11.2515 17.9901C11.2124 18.0082 11.1694 18.016 11.1265 18.0129C10.2259 18.0096 9.32536 18.0092 8.42484 18.0119C8.38642 18.0163 8.34751 18.0109 8.31176 17.9961C8.27601 17.9814 8.24458 17.9578 8.22042 17.9276C7.77064 17.3719 7.31605 16.8203 6.86301 16.2675C6.84851 16.2497 6.83573 16.2305 6.81738 16.2055C6.83816 16.1753 6.85638 16.1441 6.87899 16.1167C7.32629 15.5711 7.77348 15.0254 8.22054 14.4797C8.24236 14.4505 8.2711 14.4272 8.30417 14.412C8.33723 14.3967 8.37358 14.39 8.40993 14.3923C9.32441 14.3947 10.2389 14.3949 11.1534 14.3929C11.1852 14.3896 11.2174 14.3943 11.2469 14.4066C11.2764 14.4189 11.3024 14.4384 11.3225 14.4633C11.7799 15.0246 12.239 15.5845 12.6998 16.1432C12.7143 16.1604 12.7256 16.1804 12.7415 16.2037Z" fill="#8A14F6"/>
<path d="M22.5261 25.6304C22.263 25.9516 22.0073 26.2637 21.7516 26.576C21.5397 26.8345 21.3262 27.0918 21.1171 27.3525C21.0958 27.382 21.0673 27.4057 21.0345 27.4213C21.0016 27.4369 20.9653 27.444 20.9289 27.4419C20.0143 27.4393 19.0996 27.4391 18.1849 27.4413C18.1531 27.4443 18.121 27.4393 18.0916 27.4266C18.0622 27.414 18.0364 27.3942 18.0166 27.3691C17.5595 26.8074 17.1008 26.2469 16.6405 25.6877C16.6261 25.6699 16.6147 25.6501 16.5974 25.6245C16.6265 25.587 16.6533 25.5502 16.6822 25.5151C17.121 24.9803 17.5595 24.4453 17.9977 23.9101C18.0188 23.8805 18.0469 23.8567 18.0795 23.8408C18.1122 23.825 18.1483 23.8176 18.1846 23.8193C19.1039 23.822 20.0232 23.8221 20.9425 23.8198C20.9742 23.8173 21.0061 23.8229 21.0351 23.8361C21.0641 23.8492 21.0894 23.8694 21.1085 23.8949C21.5631 24.4528 22.0195 25.0091 22.4777 25.5639C22.4923 25.5818 22.5049 25.6011 22.5261 25.6304Z" fill="#8A14F6"/>
<path d="M11.0579 22.3232L11.5249 21.7544C11.8371 21.3741 12.149 20.9935 12.4607 20.6127C12.4809 20.5823 12.5084 20.5575 12.5407 20.5405C12.573 20.5235 12.609 20.515 12.6455 20.5157C13.5648 20.519 14.4841 20.5194 15.4034 20.517C15.433 20.5139 15.4629 20.5182 15.4905 20.5296C15.518 20.541 15.5423 20.559 15.5611 20.5821C16.0276 21.1542 16.4955 21.7251 16.9648 22.2947C16.9713 22.306 16.9766 22.3179 16.9807 22.3302C16.9638 22.3546 16.9456 22.3855 16.9231 22.4131C16.4761 22.9591 16.0276 23.5039 15.5827 24.0515C15.5611 24.0807 15.5325 24.104 15.4996 24.1192C15.4667 24.1345 15.4304 24.1412 15.3942 24.1387C14.4796 24.1362 13.565 24.1359 12.6504 24.1376C12.6188 24.1417 12.5866 24.1377 12.5569 24.126C12.5272 24.1143 12.5009 24.0953 12.4806 24.0708C12.024 23.5086 11.5654 22.9481 11.1047 22.3893C11.09 22.3714 11.078 22.3518 11.0579 22.3232Z" fill="#8A14F6"/>
<path d="M10.2372 21.3095C10.1397 21.4294 10.0435 21.5482 9.9467 21.6665C9.72624 21.9361 9.50383 22.2041 9.28616 22.4758C9.26608 22.5036 9.2393 22.5258 9.20832 22.5404C9.17733 22.555 9.14315 22.5615 9.10897 22.5593C8.49608 22.5567 7.88318 22.5575 7.27029 22.5584C7.24069 22.5622 7.21061 22.5585 7.18281 22.5477C7.15502 22.5368 7.13041 22.5191 7.11126 22.4962C6.79635 22.1062 6.47801 21.7187 6.16097 21.3303C6.15453 21.3203 6.14887 21.3099 6.14404 21.299C6.16659 21.2687 6.18967 21.2348 6.21565 21.2031C6.50713 20.8477 6.8005 20.4939 7.08937 20.1364C7.11084 20.107 7.13939 20.0834 7.17237 20.068C7.20535 20.0525 7.24169 20.0456 7.27804 20.048C7.88626 20.0509 8.49454 20.0499 9.10275 20.0491C9.13451 20.0448 9.16683 20.0486 9.19674 20.0601C9.22665 20.0716 9.25317 20.0904 9.27385 20.1149C9.58622 20.5012 9.90272 20.8843 10.2176 21.2683C10.2253 21.2815 10.2319 21.2953 10.2372 21.3095V21.3095Z" fill="#8A14F6"/>
<path d="M10.237 10.9333C10.2172 10.9609 10.2 10.9879 10.18 11.0125C9.88613 11.3721 9.59028 11.7299 9.2994 12.0917C9.27687 12.1231 9.24672 12.1483 9.21178 12.1649C9.17683 12.1815 9.13825 12.1889 9.09965 12.1864C8.49142 12.1827 7.88316 12.1826 7.27488 12.186C7.23857 12.1882 7.20231 12.1811 7.16948 12.1654C7.13665 12.1497 7.10833 12.126 7.08715 12.0964C6.77538 11.7099 6.4594 11.3271 6.1394 10.9358C6.169 10.8969 6.1948 10.8598 6.2235 10.8248C6.51208 10.4729 6.8029 10.123 7.08828 9.76862C7.11088 9.73719 7.14112 9.71203 7.17614 9.69554C7.21116 9.67904 7.24981 9.67175 7.28843 9.67434C7.89209 9.67813 8.49576 9.67665 9.09942 9.67594C9.1312 9.67135 9.16362 9.67492 9.19365 9.6863C9.22367 9.69769 9.2503 9.71653 9.27105 9.74104C9.58039 10.1238 9.89412 10.503 10.2061 10.8836C10.2174 10.8996 10.2277 10.9161 10.237 10.9333V10.9333Z" fill="#8A14F6"/>
<path d="M10.5923 5.80397C10.8723 5.46265 11.1495 5.12566 11.4252 4.7873C11.4389 4.76893 11.4569 4.75421 11.4776 4.74447C11.4984 4.73472 11.5212 4.73025 11.5441 4.73143C12.0875 4.73262 12.6309 4.73262 13.1744 4.73143C13.1973 4.73011 13.2201 4.73446 13.241 4.7441C13.2618 4.75375 13.2799 4.76838 13.2937 4.78671C13.5691 5.12518 13.8464 5.46224 14.1281 5.8058C14.1068 5.83717 14.089 5.8683 14.0667 5.89564C13.8168 6.20127 13.565 6.50524 13.3168 6.81228C13.297 6.84024 13.2704 6.86277 13.2397 6.87777C13.2089 6.89278 13.1748 6.89979 13.1406 6.89816C12.6204 6.89484 12.1001 6.89603 11.5799 6.89697C11.5503 6.90069 11.5202 6.89688 11.4925 6.8859C11.4647 6.87491 11.4402 6.8571 11.4211 6.83412C11.1531 6.50145 10.8809 6.17209 10.6103 5.84143C10.6032 5.82949 10.5972 5.81696 10.5923 5.80397V5.80397Z" fill="#8A14F6"/>
<path d="M14.1266 26.2044C13.8477 26.5444 13.57 26.8802 13.296 27.219C13.2767 27.2417 13.252 27.2591 13.2241 27.2696C13.1963 27.2801 13.1662 27.2833 13.1367 27.2791C12.8167 27.2779 12.4967 27.2785 12.1766 27.2785C11.9726 27.2785 11.7683 27.2808 11.5644 27.2766C11.5198 27.2781 11.4763 27.2629 11.4423 27.234C11.1565 26.8931 10.8756 26.5483 10.5891 26.1994C10.6137 26.1658 10.6337 26.1355 10.6565 26.1076C10.9033 25.8062 11.1521 25.5063 11.3963 25.2031C11.4168 25.1731 11.4447 25.1488 11.4771 25.1324C11.5096 25.1161 11.5457 25.1083 11.5821 25.1098C12.1015 25.1135 12.621 25.1123 13.1405 25.1109C13.17 25.1074 13.1999 25.1114 13.2275 25.1225C13.2551 25.1336 13.2795 25.1514 13.2984 25.1744C13.5667 25.5059 13.8383 25.8353 14.1085 26.1655C14.1157 26.1779 14.1218 26.1909 14.1266 26.2044V26.2044Z" fill="#8A14F6"/>
<path d="M5.99801 16.1468C5.75169 16.4475 5.51579 16.7339 5.2819 17.022C5.26644 17.042 5.24627 17.0577 5.22319 17.0679C5.20012 17.0781 5.17488 17.0824 5.14974 17.0803C4.69487 17.0786 4.23997 17.0785 3.78505 17.08C3.7622 17.082 3.73919 17.0784 3.7181 17.0693C3.697 17.0603 3.67846 17.0462 3.66414 17.0283C3.42741 16.7368 3.18832 16.4469 2.94531 16.1507C2.97609 16.1105 3.0026 16.0737 3.03136 16.0386C3.23436 15.7909 3.43919 15.5446 3.64006 15.2953C3.65843 15.2692 3.68313 15.2481 3.71184 15.2342C3.74055 15.2202 3.77234 15.2137 3.80423 15.2153C4.24981 15.2186 4.69546 15.2172 5.14104 15.2167C5.16605 15.2131 5.19156 15.2158 5.21523 15.2247C5.2389 15.2335 5.25997 15.2481 5.27651 15.2672C5.51306 15.5588 5.75252 15.8481 5.99801 16.1468Z" fill="#8A14F6"/>
<path d="M4.57349 24.8652C4.77056 24.6252 4.95853 24.3955 5.14756 24.1668C5.20946 24.0916 5.26 23.9888 5.3402 23.9521C5.42548 23.9131 5.53982 23.9352 5.64149 23.9349C6.01292 23.9337 6.38429 23.9362 6.75572 23.933C6.78975 23.9304 6.8239 23.9365 6.8549 23.9507C6.8859 23.965 6.91272 23.987 6.9328 24.0146C7.13544 24.2685 7.34394 24.5177 7.55001 24.7691C7.57333 24.7975 7.59458 24.8277 7.62103 24.8627C7.5989 24.8938 7.5796 24.9244 7.55717 24.9521C7.34867 25.2073 7.13792 25.4607 6.93185 25.718C6.91177 25.7456 6.88497 25.7678 6.85399 25.7823C6.82301 25.7968 6.78884 25.8031 6.75472 25.8008C6.31836 25.7974 5.88189 25.7992 5.44554 25.7993C5.41843 25.8043 5.39049 25.8023 5.36435 25.7935C5.33822 25.7847 5.31475 25.7694 5.29616 25.7491C5.05991 25.4564 4.82045 25.1668 4.57349 24.8652Z" fill="#8A14F6"/>
<path d="M4.91712 19.563L4.61186 19.9359C4.48242 20.0936 4.35062 20.2495 4.22474 20.4103C4.20552 20.4387 4.17932 20.4616 4.14866 20.4769C4.11801 20.4922 4.08394 20.4993 4.04974 20.4976C3.60901 20.4941 3.16822 20.4956 2.72748 20.4962C2.70017 20.5001 2.6723 20.4971 2.64644 20.4875C2.62059 20.4778 2.59758 20.4618 2.57953 20.4409C2.3496 20.1555 2.11648 19.8728 1.88484 19.5887C1.87958 19.5784 1.87582 19.5673 1.87366 19.556C1.88401 19.5412 1.89579 19.5219 1.91005 19.5044C2.12773 19.239 2.3467 18.9746 2.56278 18.7078C2.57993 18.6836 2.60288 18.664 2.62953 18.6509C2.65619 18.6379 2.68569 18.6317 2.71535 18.633C3.16537 18.6355 3.6154 18.6357 4.06542 18.6335C4.09281 18.6314 4.12028 18.6362 4.14532 18.6475C4.17037 18.6588 4.19218 18.6762 4.20876 18.6981C4.43898 18.983 4.67264 19.2653 4.91712 19.563Z" fill="#8A14F6"/>
<path d="M1.86145 12.7304C2.10605 12.4323 2.34272 12.1465 2.57543 11.8576C2.59511 11.8351 2.62015 11.818 2.64821 11.8078C2.67628 11.7976 2.70647 11.7946 2.73599 11.7991C3.10257 11.7999 3.46985 11.8148 3.83531 11.7939C4.06801 11.7806 4.2226 11.8471 4.35718 12.0401C4.52366 12.2787 4.72334 12.4943 4.91349 12.7258C4.88284 12.7661 4.85644 12.8031 4.82768 12.8382C4.62504 13.086 4.42038 13.3322 4.22005 13.5819C4.2018 13.6081 4.17718 13.6292 4.14852 13.6433C4.11986 13.6574 4.08808 13.664 4.05618 13.6625C3.61083 13.6595 3.16536 13.661 2.71995 13.6611C2.69497 13.665 2.66942 13.6626 2.64564 13.654C2.62186 13.6454 2.60061 13.631 2.58383 13.6121C2.34769 13.3205 2.10842 13.0312 1.86145 12.7304Z" fill="#8A14F6"/>
<path d="M15.1855 28.7525C15.2566 28.6655 15.3259 28.5794 15.3959 28.4939C15.5548 28.3002 15.7155 28.1082 15.872 27.9125C15.8912 27.8841 15.9173 27.8611 15.9478 27.8456C15.9783 27.8301 16.0123 27.8227 16.0465 27.824C16.4873 27.8278 16.9284 27.826 17.3689 27.8254C17.3962 27.8215 17.424 27.8245 17.4499 27.8341C17.4757 27.8438 17.4987 27.8598 17.5168 27.8807C17.7468 28.1659 17.9803 28.4485 18.2121 28.7323C18.2179 28.7437 18.2222 28.7557 18.225 28.7682C18.1531 28.8566 18.0779 28.95 18.002 29.0427C17.8492 29.2292 17.6936 29.4138 17.5438 29.6029C17.5244 29.631 17.4981 29.6537 17.4674 29.6688C17.4367 29.6838 17.4027 29.6908 17.3686 29.689C16.9278 29.6855 16.4867 29.6868 16.0462 29.6878C16.0167 29.6915 15.9867 29.6877 15.9591 29.6766C15.9315 29.6656 15.9071 29.6477 15.8883 29.6246C15.6679 29.3495 15.4426 29.0783 15.2195 28.8053C15.2073 28.7883 15.1959 28.7707 15.1855 28.7525V28.7525Z" fill="#8A14F6"/>
<path d="M18.1185 3.5366C18.035 3.63905 17.9592 3.73244 17.8831 3.82542C17.7301 4.01221 17.5761 4.19828 17.4243 4.38607C17.4082 4.41113 17.386 4.43172 17.3599 4.44594C17.3337 4.46017 17.3044 4.46756 17.2746 4.46745C16.8194 4.46443 16.3643 4.46544 15.9092 4.46656C15.884 4.46876 15.8587 4.46464 15.8356 4.4546C15.8124 4.44456 15.7921 4.42889 15.7765 4.40903C15.549 4.12726 15.3186 3.84767 15.0895 3.56696C15.0837 3.55604 15.0792 3.54445 15.076 3.53246C15.0911 3.51104 15.1076 3.48393 15.1275 3.45961C15.3394 3.20079 15.5529 2.94346 15.7629 2.68335C15.78 2.65911 15.803 2.63959 15.8297 2.62657C15.8564 2.61355 15.886 2.60745 15.9157 2.60884C16.3661 2.61112 16.8166 2.61128 17.2672 2.60931C17.2946 2.60712 17.3221 2.61182 17.3473 2.62299C17.3724 2.63415 17.3943 2.65142 17.411 2.67323C17.6417 2.95844 17.8756 3.2411 18.1185 3.5366Z" fill="#8A14F6"/>
<path d="M7.74447 7.65911C7.64463 7.78139 7.55419 7.89253 7.46353 8.00338C7.32534 8.17218 7.18537 8.33955 7.04978 8.51053C7.03133 8.53669 7.00652 8.55771 6.97769 8.57163C6.94887 8.58554 6.91697 8.59189 6.88502 8.59008C6.43937 8.587 5.99367 8.58818 5.54797 8.58895C5.52066 8.59229 5.49295 8.58869 5.46741 8.57849C5.44186 8.56829 5.41929 8.55182 5.40179 8.5306C5.17784 8.25202 4.94981 7.97675 4.72361 7.70001C4.71493 7.68638 4.70754 7.67198 4.70154 7.65698C4.71205 7.63811 4.72371 7.61991 4.73646 7.60247C4.95395 7.33662 5.17293 7.07195 5.38906 6.80491C5.40648 6.78083 5.42963 6.76149 5.45642 6.74864C5.48321 6.73578 5.51278 6.72981 5.54246 6.73129C5.99284 6.73365 6.4431 6.73282 6.89342 6.73205C6.91851 6.72903 6.94395 6.73228 6.96747 6.74152C6.99099 6.75075 7.01185 6.76568 7.02818 6.78496C7.26195 7.07331 7.49833 7.3594 7.74447 7.65911Z" fill="#8A14F6"/>
<path d="M0 16.147C0.145352 15.97 0.287509 15.7993 0.426647 15.6262C0.440604 15.608 0.458903 15.5936 0.479871 15.5843C0.500839 15.575 0.523805 15.5711 0.546669 15.573C0.815417 15.5743 1.08416 15.5718 1.35285 15.5757C1.39292 15.5773 1.43088 15.5941 1.45903 15.6227C1.60355 15.7914 1.74263 15.9648 1.89189 16.1468C1.82217 16.2336 1.75512 16.3202 1.68475 16.404C1.59598 16.51 1.5043 16.6139 1.41393 16.7186C1.27976 16.7208 1.14566 16.7241 1.01149 16.725C0.858561 16.7262 0.705633 16.7237 0.552765 16.726C0.527657 16.7283 0.502392 16.7241 0.479354 16.7139C0.456315 16.7036 0.436262 16.6877 0.421084 16.6676C0.306033 16.5223 0.18678 16.3804 0.0694211 16.2369C0.0490623 16.212 0.0300055 16.186 0 16.147Z" fill="#8A14F6"/>
<path d="M9.28894 28.5219C9.43909 28.3395 9.58414 28.16 9.73405 27.9847C9.76107 27.961 9.79601 27.9483 9.83194 27.9492C10.1052 27.9465 10.3785 27.9466 10.6519 27.9495C10.6877 27.9505 10.7217 27.9652 10.7471 27.9905C10.8936 28.1633 11.0357 28.3397 11.185 28.5224C11.0349 28.7054 10.8897 28.8849 10.7407 29.0613C10.7185 29.0837 10.6886 29.0966 10.6571 29.0975C10.3792 29.1001 10.1013 29.1001 9.8233 29.0975C9.78748 29.0959 9.7536 29.0807 9.72861 29.055C9.58207 28.8821 9.43974 28.7057 9.28894 28.5219Z" fill="#8A14F6"/>
<path d="M9.1687 3.6575C9.31938 3.4732 9.4581 3.29961 9.60233 3.13076C9.63058 3.10212 9.66867 3.08532 9.70886 3.08377C9.98217 3.07982 10.2555 3.07982 10.5289 3.08377C10.5648 3.08483 10.5989 3.09954 10.6243 3.1249C10.7713 3.29731 10.9138 3.47356 11.0646 3.65679C10.9139 3.84026 10.7691 4.01935 10.6196 4.19459C10.5935 4.2191 10.559 4.23279 10.5232 4.23289C10.2498 4.23591 9.97648 4.23656 9.70318 4.23224C9.66326 4.22866 9.62621 4.21001 9.59955 4.1801C9.45556 4.01083 9.31642 3.83766 9.1687 3.6575Z" fill="#8A14F6"/>
<path d="M21.034 5.14771H18.0698L16.5876 6.95513L18.0698 8.7626H21.034L22.5161 6.95513L21.034 5.14771Z" fill="#8A14F6"/>
<path d="M16.5876 6.95181L18.0698 5.14771H21.034L22.5161 6.95181L22.3859 7.10492L20.8302 5.67385H18.3473L16.7224 7.11261L16.5876 6.95181Z" fill="#8A14F6"/>
<path d="M15.4977 8.09302H12.5334L11.0513 9.90044L12.5334 11.7079H15.4977L16.9798 9.90044L15.4977 8.09302Z" fill="#8A14F6"/>
<path d="M11.0513 9.89712L12.5334 8.09302H15.4977L16.9798 9.89712L16.8496 10.0502L15.2938 8.61916H12.8109L11.186 10.0579L11.0513 9.89712Z" fill="#8A14F6"/>
<path d="M21.0339 23.876H18.0697L16.5875 25.6834L18.0697 27.4909H21.0339L22.516 25.6834L21.0339 23.876Z" fill="#8A14F6"/>
<path d="M16.5875 25.6801L18.0697 23.876H21.0339L22.516 25.6801L22.3858 25.8332L20.8301 24.4021H18.3472L16.7223 25.8409L16.5875 25.6801Z" fill="#8A14F6"/>
<path d="M15.4979 20.5806H12.5337L11.0515 22.388L12.5337 24.1955H15.4979L16.98 22.388L15.4979 20.5806Z" fill="#8A14F6"/>
<path d="M11.0515 22.3847L12.5337 20.5806H15.4979L16.98 22.3847L16.8498 22.5378L15.2941 21.1067H12.8112L11.1863 22.5455L11.0515 22.3847Z" fill="#8A14F6"/>
<path d="M11.2569 14.4553H8.29271L6.81055 16.2627L8.29271 18.0702H11.2569L12.739 16.2627L11.2569 14.4553Z" fill="#8A14F6"/>
<path d="M6.81055 16.2594L8.29271 14.4553H11.2569L12.739 16.2594L12.6088 16.4125L11.0531 14.9815H8.57022L6.94531 16.4202L6.81055 16.2594Z" fill="#8A14F6"/>
<path d="M17.3418 2.67456H15.818L15.056 3.60375L15.818 4.53294H17.3418L18.1038 3.60375L17.3418 2.67456Z" fill="#8A14F6"/>
<path d="M15.056 3.60197L15.818 2.67456H17.3418L18.1038 3.60197L18.037 3.68069L17.2371 2.94509H15.9606L15.1253 3.68489L15.056 3.60197Z" fill="#8A14F6"/>
<path d="M13.2378 4.79419H11.4659L10.58 5.87459L11.4659 6.955H13.2378L14.1238 5.87459L13.2378 4.79419Z" fill="#8A14F6"/>
<path d="M10.58 5.87258L11.4659 4.79419H13.2378L14.1238 5.87258L14.0461 5.96414L13.1161 5.10881H11.6318L10.6605 5.96875L10.58 5.87258Z" fill="#8A14F6"/>
<path d="M17.4594 27.8804H15.9356L15.1736 28.8096L15.9356 29.7387H17.4594L18.2214 28.8096L17.4594 27.8804Z" fill="#8A14F6"/>
<path d="M15.1736 28.8078L15.9356 27.8804H17.4594L18.2214 28.8078L18.1545 28.8865L17.3546 28.1509H16.0782L15.2428 28.8907L15.1736 28.8078Z" fill="#8A14F6"/>
<path d="M13.2382 25.1748H11.4663L10.5803 26.2552L11.4663 27.3356H13.2382L14.1242 26.2552L13.2382 25.1748Z" fill="#8A14F6"/>
<path d="M10.5803 26.2532L11.4663 25.1748H13.2382L14.1242 26.2532L14.0465 26.3448L13.1165 25.4894H11.6322L10.6609 26.3494L10.5803 26.2532Z" fill="#8A14F6"/>
<path d="M9.21216 20.1055H7.16237L6.13745 21.3553L7.16237 22.6052H9.21216L10.237 21.3553L9.21216 20.1055Z" fill="#8A14F6"/>
<path d="M6.13745 21.3531L7.16237 20.1055H9.21216L10.237 21.3531L10.1471 21.459L9.07119 20.4695H7.3543L6.23066 21.4643L6.13745 21.3531Z" fill="#8A14F6"/>
<path d="M9.21216 9.74243H7.16237L6.13745 10.9923L7.16237 12.2421H9.21216L10.237 10.9923L9.21216 9.74243Z" fill="#8A14F6"/>
<path d="M6.13745 10.99L7.16237 9.74243H9.21216L10.237 10.99L10.1471 11.096L9.07119 10.1065H7.3543L6.23066 11.1012L6.13745 10.99Z" fill="#8A14F6"/>
<path d="M6.97587 6.7981H5.45204L4.69006 7.72729L5.45204 8.65647H6.97587L7.73785 7.72729L6.97587 6.7981Z" fill="#8A14F6"/>
<path d="M4.69006 7.72551L5.45204 6.7981H6.97587L7.73785 7.72551L7.67103 7.80422L6.87112 7.06862H5.59467L4.75931 7.80842L4.69006 7.72551Z" fill="#8A14F6"/>
<path d="M4.14921 11.8635H2.62538L1.8634 12.7927L2.62538 13.7219H4.14921L4.91119 12.7927L4.14921 11.8635Z" fill="#8A14F6"/>
<path d="M1.8634 12.7909L2.62538 11.8635H4.14921L4.91119 12.7909L4.84437 12.8697L4.04446 12.1341H2.76801L1.93265 12.8739L1.8634 12.7909Z" fill="#8A14F6"/>
<path d="M4.14921 18.6956H2.62538L1.8634 19.6247L2.62538 20.5539H4.14921L4.91119 19.6247L4.14921 18.6956Z" fill="#8A14F6"/>
<path d="M1.8634 19.623L2.62538 18.6956H4.14921L4.91119 19.623L4.84437 19.7017L4.04446 18.9661H2.76801L1.93265 19.7059L1.8634 19.623Z" fill="#8A14F6"/>
<path d="M5.22868 15.2786H3.70485L2.94287 16.2078L3.70485 17.1369H5.22868L5.99065 16.2078L5.22868 15.2786Z" fill="#8A14F6"/>
<path d="M2.94287 16.206L3.70485 15.2786H5.22868L5.99065 16.206L5.92384 16.2847L5.12392 15.5491H3.84748L3.01212 16.2889L2.94287 16.206Z" fill="#8A14F6"/>
<path d="M6.85759 23.9956H5.33375L4.57178 24.9248L5.33375 25.854H6.85759L7.61956 24.9248L6.85759 23.9956Z" fill="#8A14F6"/>
<path d="M4.57178 24.923L5.33375 23.9956H6.85759L7.61956 24.923L7.55274 25.0017L6.75283 24.2661H5.47638L4.64102 25.0059L4.57178 24.923Z" fill="#8A14F6"/>
<path d="M10.7012 27.9993H9.75683L9.28467 28.5751L9.75683 29.1509H10.7011L11.1733 28.5751L10.7012 27.9993Z" fill="#8A14F6"/>
<path d="M9.28467 28.5739L9.75683 27.9993H10.7011L11.1733 28.5739L11.1319 28.6227L10.6362 28.167H9.84525L9.32764 28.6253L9.28467 28.5739Z" fill="#8A14F6"/>
<path d="M20.2416 31.061H19.2972L18.8251 31.6368L19.2972 32.2126H20.2415L20.7137 31.6368L20.2416 31.061Z" fill="#8A14F6"/>
<path d="M18.8251 31.6357L19.2972 31.061H20.2415L20.7137 31.6357L20.6723 31.6845L20.1766 31.2288H19.3857L18.868 31.6871L18.8251 31.6357Z" fill="#8A14F6"/>
<path d="M1.41653 15.6304H0.472158L0 16.2062L0.472158 16.782H1.41647L1.88863 16.2062L1.41653 15.6304Z" fill="#8A14F6"/>
<path d="M0 16.205L0.472158 15.6304H1.41647L1.88863 16.205L1.84721 16.2538L1.35155 15.7981H0.560578L0.0429673 16.2564L0 16.205Z" fill="#8A14F6"/>
<path d="M10.5833 3.14673H9.63891L9.16675 3.72253L9.63891 4.29833H10.5832L11.0554 3.72253L10.5833 3.14673Z" fill="#8A14F6"/>
<path d="M9.16687 3.71847L9.63903 3.1438H10.5833L11.0555 3.71847L11.0141 3.76724L10.5184 3.31153H9.72745L9.20984 3.76985L9.16687 3.71847Z" fill="#8A14F6"/>
<path d="M20.006 0.0822754H19.0616L18.5895 0.658077L19.0616 1.23388H20.006L20.4781 0.658077L20.006 0.0822754Z" fill="#8A14F6"/>
<path d="M18.5895 0.656951L19.0616 0.0822754H20.006L20.4781 0.656951L20.4367 0.705719L19.941 0.250002H19.1501L18.6324 0.708324L18.5895 0.656951Z" fill="#8A14F6"/>
<path d="M21.0332 5.14771H18.069L16.5868 6.95513L18.069 8.7626H21.0332L22.5153 6.95513L21.0332 5.14771Z" fill="#8A14F6"/>
<path d="M16.5868 6.95181L18.069 5.14771H21.0332L22.5153 6.95181L22.3851 7.10492L20.8293 5.67385H18.3465L16.7216 7.11261L16.5868 6.95181Z" fill="#8A14F6"/>
<path d="M15.4977 8.09302H12.5334L11.0513 9.90044L12.5334 11.7079H15.4977L16.9798 9.90044L15.4977 8.09302Z" fill="#8A14F6"/>
<path d="M11.0513 9.89712L12.5334 8.09302H15.4977L16.9798 9.89712L16.8496 10.0502L15.2938 8.61916H12.8109L11.186 10.0579L11.0513 9.89712Z" fill="#8A14F6"/>
<path d="M21.0335 23.929H18.0693L16.5872 25.7364L18.0693 27.5439H21.0335L22.5156 25.7364L21.0335 23.929Z" fill="#8A14F6"/>
<path d="M16.5868 25.6801L18.069 23.876H21.0332L22.5153 25.6801L22.3851 25.8332L20.8293 24.4021H18.3465L16.7216 25.8409L16.5868 25.6801Z" fill="#8A14F6"/>
<path d="M15.4979 20.5806H12.5337L11.0515 22.388L12.5337 24.1955H15.4979L16.98 22.388L15.4979 20.5806Z" fill="#8A14F6"/>
<path d="M11.0515 22.3847L12.5337 20.5806H15.4979L16.98 22.3847L16.8498 22.5378L15.2941 21.1067H12.8112L11.1863 22.5455L11.0515 22.3847Z" fill="#8A14F6"/>
<path d="M11.2569 14.4553H8.29271L6.81055 16.2627L8.29271 18.0702H11.2569L12.739 16.2627L11.2569 14.4553Z" fill="#8A14F6"/>
<path d="M6.81055 16.2594L8.29271 14.4553H11.2569L12.739 16.2594L12.6088 16.4125L11.0531 14.9815H8.57022L6.94531 16.4202L6.81055 16.2594Z" fill="#8A14F6"/>
<path d="M17.3418 2.67456H15.818L15.056 3.60375L15.818 4.53294H17.3418L18.1038 3.60375L17.3418 2.67456Z" fill="#8A14F6"/>
<path d="M15.056 3.60197L15.818 2.67456H17.3418L18.1038 3.60197L18.037 3.68069L17.2371 2.94509H15.9606L15.1253 3.68489L15.056 3.60197Z" fill="#8A14F6"/>
<path d="M13.2378 4.79419H11.4659L10.58 5.87459L11.4659 6.955H13.2378L14.1238 5.87459L13.2378 4.79419Z" fill="#8A14F6"/>
<path d="M10.58 5.87258L11.4659 4.79419H13.2378L14.1238 5.87258L14.0461 5.96414L13.1161 5.10881H11.6318L10.6605 5.96875L10.58 5.87258Z" fill="#8A14F6"/>
<path d="M17.4594 27.8804H15.9356L15.1736 28.8096L15.9356 29.7387H17.4594L18.2214 28.8096L17.4594 27.8804Z" fill="#8A14F6"/>
<path d="M15.1736 28.8078L15.9356 27.8804H17.4594L18.2214 28.8078L18.1545 28.8865L17.3546 28.1509H16.0782L15.2428 28.8907L15.1736 28.8078Z" fill="#8A14F6"/>
<path d="M13.2382 25.1748H11.4663L10.5803 26.2552L11.4663 27.3356H13.2382L14.1242 26.2552L13.2382 25.1748Z" fill="#8A14F6"/>
<path d="M10.5803 26.2532L11.4663 25.1748H13.2382L14.1242 26.2532L14.0465 26.3448L13.1165 25.4894H11.6322L10.6609 26.3494L10.5803 26.2532Z" fill="#8A14F6"/>
<path d="M9.21216 20.1055H7.16237L6.13745 21.3553L7.16237 22.6052H9.21216L10.237 21.3553L9.21216 20.1055Z" fill="#8A14F6"/>
<path d="M6.13745 21.3531L7.16237 20.1055H9.21216L10.237 21.3531L10.1471 21.459L9.07119 20.4695H7.3543L6.23066 21.4643L6.13745 21.3531Z" fill="#8A14F6"/>
<path d="M9.21216 9.74243H7.16237L6.13745 10.9923L7.16237 12.2421H9.21216L10.237 10.9923L9.21216 9.74243Z" fill="#8A14F6"/>
<path d="M6.13745 10.99L7.16237 9.74243H9.21216L10.237 10.99L10.1471 11.096L9.07119 10.1065H7.3543L6.23066 11.1012L6.13745 10.99Z" fill="#8A14F6"/>
<path d="M6.97587 6.7981H5.45204L4.69006 7.72729L5.45204 8.65647H6.97587L7.73785 7.72729L6.97587 6.7981Z" fill="#8A14F6"/>
<path d="M4.69006 7.72551L5.45204 6.7981H6.97587L7.73785 7.72551L7.67103 7.80422L6.87112 7.06862H5.59467L4.75931 7.80842L4.69006 7.72551Z" fill="#8A14F6"/>
<path d="M4.14921 11.8635H2.62538L1.8634 12.7927L2.62538 13.7219H4.14921L4.91119 12.7927L4.14921 11.8635Z" fill="#8A14F6"/>
<path d="M1.8634 12.7909L2.62538 11.8635H4.14921L4.91119 12.7909L4.84437 12.8697L4.04446 12.1341H2.76801L1.93265 12.8739L1.8634 12.7909Z" fill="#8A14F6"/>
<path d="M4.14921 18.6956H2.62538L1.8634 19.6247L2.62538 20.5539H4.14921L4.91119 19.6247L4.14921 18.6956Z" fill="#8A14F6"/>
<path d="M1.8634 19.623L2.62538 18.6956H4.14921L4.91119 19.623L4.84437 19.7017L4.04446 18.9661H2.76801L1.93265 19.7059L1.8634 19.623Z" fill="#8A14F6"/>
<path d="M5.22868 15.2786H3.70485L2.94287 16.2078L3.70485 17.1369H5.22868L5.99065 16.2078L5.22868 15.2786Z" fill="#8A14F6"/>
<path d="M2.94287 16.206L3.70485 15.2786H5.22868L5.99065 16.206L5.92384 16.2847L5.12392 15.5491H3.84748L3.01212 16.2889L2.94287 16.206Z" fill="#8A14F6"/>
<path d="M6.85759 23.9956H5.33375L4.57178 24.9248L5.33375 25.854H6.85759L7.61956 24.9248L6.85759 23.9956Z" fill="#8A14F6"/>
<path d="M4.57178 24.923L5.33375 23.9956H6.85759L7.61956 24.923L7.55274 25.0017L6.75283 24.2661H5.47638L4.64102 25.0059L4.57178 24.923Z" fill="#8A14F6"/>
<path d="M10.7012 27.9993H9.75683L9.28467 28.5751L9.75683 29.1509H10.7011L11.1733 28.5751L10.7012 27.9993Z" fill="#8A14F6"/>
<path d="M9.28467 28.5739L9.75683 27.9993H10.7011L11.1733 28.5739L11.1319 28.6227L10.6362 28.167H9.84525L9.32764 28.6253L9.28467 28.5739Z" fill="#8A14F6"/>
<path d="M20.2416 31.061H19.2972L18.8251 31.6368L19.2972 32.2126H20.2415L20.7137 31.6368L20.2416 31.061Z" fill="#8A14F6"/>
<path d="M18.8251 31.6357L19.2972 31.061H20.2415L20.7137 31.6357L20.6723 31.6845L20.1766 31.2288H19.3857L18.868 31.6871L18.8251 31.6357Z" fill="#8A14F6"/>
<path d="M1.41653 15.6304H0.472158L0 16.2062L0.472158 16.782H1.41647L1.88863 16.2062L1.41653 15.6304Z" fill="#8A14F6"/>
<path d="M0 16.205L0.472158 15.6304H1.41647L1.88863 16.205L1.84721 16.2538L1.35155 15.7981H0.560578L0.0429673 16.2564L0 16.205Z" fill="#8A14F6"/>
<path d="M10.5833 3.14673H9.63891L9.16675 3.72253L9.63891 4.29833H10.5832L11.0554 3.72253L10.5833 3.14673Z" fill="#8A14F6"/>
<path d="M9.16687 3.71847L9.63903 3.1438H10.5833L11.0555 3.71847L11.0141 3.76724L10.5184 3.31153H9.72745L9.20984 3.76985L9.16687 3.71847Z" fill="#8A14F6"/>
<path d="M20.006 0.0822754H19.0616L18.5895 0.658077L19.0616 1.23388H20.006L20.4781 0.658077L20.006 0.0822754Z" fill="#8A14F6"/>
<path d="M18.5895 0.656951L19.0616 0.0822754H20.006L20.4781 0.656951L20.4367 0.705719L19.941 0.250002H19.1501L18.6324 0.708324L18.5895 0.656951Z" fill="#8A14F6"/>
<path d="M27.9398 9.86697C27.8975 9.8146 27.8573 9.76429 27.8164 9.71458C27.3981 9.20506 26.9776 8.69714 26.563 8.18455C26.5344 8.14378 26.4958 8.11097 26.451 8.08922C26.4062 8.06748 26.3566 8.05751 26.3068 8.06026C25.42 8.06531 24.5331 8.06557 23.6462 8.06103C23.5988 8.05729 23.5513 8.06565 23.508 8.08532C23.4648 8.10499 23.4272 8.13532 23.3989 8.17348C22.9668 8.70786 22.5285 9.23696 22.0924 9.76808C22.0663 9.79998 22.0429 9.83401 22.0148 9.87165C22.0384 9.90432 22.0576 9.93503 22.0805 9.96297C22.5276 10.5088 22.9746 11.055 23.4214 11.6014C23.4413 11.629 23.4679 11.6511 23.4986 11.6658C23.5293 11.6805 23.5632 11.6872 23.5972 11.6853C24.5165 11.683 25.4358 11.6827 26.3551 11.6844C26.3845 11.6882 26.4145 11.6845 26.4421 11.6736C26.4697 11.6628 26.4942 11.6452 26.5132 11.6224C26.9788 11.0496 27.4462 10.4781 27.9153 9.90805C27.9242 9.89481 27.9324 9.8811 27.9398 9.86697Z" fill="#8A14F6"/>
<path d="M26.2578 16.2337C26.2879 16.2723 26.3154 16.3091 26.3445 16.3446C26.78 16.8759 27.2173 17.4058 27.6494 17.9397C27.6749 17.9744 27.7088 18.0021 27.7478 18.0202C27.7869 18.0382 27.8299 18.0461 27.8728 18.043C28.7734 18.0396 29.6739 18.0393 30.5745 18.042C30.6129 18.0463 30.6518 18.0409 30.6875 18.0261C30.7233 18.0114 30.7547 17.9878 30.7789 17.9576C31.2287 17.4019 31.6833 16.8504 32.1363 16.2975C32.1508 16.2798 32.1636 16.2605 32.1819 16.2355C32.1612 16.2054 32.1429 16.1742 32.1203 16.1468C31.673 15.6011 31.2258 15.0554 30.7788 14.5097C30.757 14.4805 30.7282 14.4573 30.6951 14.442C30.6621 14.4268 30.6257 14.42 30.5894 14.4223C29.6749 14.4247 28.7604 14.4249 27.8459 14.423C27.8141 14.4196 27.7819 14.4243 27.7524 14.4366C27.7229 14.4489 27.6969 14.4684 27.6768 14.4933C27.2194 15.0546 26.7603 15.6146 26.2995 16.1732C26.285 16.1905 26.2737 16.2104 26.2578 16.2337Z" fill="#8A14F6"/>
<path d="M27.9409 22.3566L27.4739 21.7878C27.1617 21.4075 26.8497 21.0269 26.538 20.6461C26.5179 20.6157 26.4904 20.5909 26.4581 20.5739C26.4258 20.557 26.3897 20.5484 26.3532 20.5491C25.4339 20.5524 24.5146 20.5529 23.5953 20.5505C23.5657 20.5473 23.5358 20.5517 23.5083 20.563C23.4807 20.5744 23.4565 20.5925 23.4377 20.6156C22.9711 21.1877 22.5032 21.7586 22.0339 22.3282C22.0274 22.3394 22.0221 22.3513 22.0181 22.3637C22.0349 22.3881 22.0532 22.419 22.0757 22.4465C22.5227 22.9925 22.9711 23.5373 23.4161 24.085C23.4377 24.1142 23.4662 24.1375 23.4992 24.1527C23.5321 24.1679 23.5684 24.1746 23.6046 24.1722C24.5192 24.1697 25.4338 24.1693 26.3484 24.171C26.38 24.1751 26.4122 24.1711 26.4419 24.1595C26.4716 24.1478 26.4979 24.1288 26.5182 24.1042C26.975 23.5419 27.4337 22.9813 27.8944 22.4223C27.9089 22.4049 27.9209 22.3853 27.9409 22.3566Z" fill="#8A14F6"/>
<path d="M28.762 21.3445C28.8595 21.4643 28.9557 21.5831 29.0525 21.7014C29.2729 21.971 29.4954 22.239 29.713 22.5107C29.7331 22.5385 29.7599 22.5607 29.7909 22.5753C29.8219 22.5899 29.856 22.5964 29.8902 22.5942C30.5031 22.5916 31.116 22.5925 31.7289 22.5933C31.7585 22.5971 31.7886 22.5934 31.8164 22.5826C31.8442 22.5717 31.8688 22.554 31.8879 22.5311C32.2028 22.1411 32.5212 21.7536 32.8382 21.3652C32.8447 21.3552 32.8503 21.3448 32.8551 21.3339C32.8326 21.3036 32.8095 21.2698 32.7835 21.238C32.4921 20.8826 32.1987 20.5288 31.9098 20.1713C31.8884 20.1419 31.8598 20.1184 31.8268 20.1029C31.7938 20.0874 31.7575 20.0806 31.7211 20.0829C31.1129 20.0858 30.5047 20.0848 29.8964 20.084C29.8647 20.0797 29.8324 20.0835 29.8024 20.095C29.7725 20.1065 29.746 20.1253 29.7253 20.1498C29.413 20.5361 29.0965 20.9192 28.7816 21.3033C28.7739 21.3164 28.7673 21.3302 28.762 21.3445V21.3445Z" fill="#8A14F6"/>
<path d="M28.7627 10.9667C28.7825 10.9943 28.7997 11.0214 28.8197 11.046C29.1136 11.4055 29.4094 11.7634 29.7003 12.1252C29.7228 12.1566 29.753 12.1818 29.7879 12.1983C29.8229 12.2149 29.8615 12.2223 29.9001 12.2198C30.5083 12.2161 31.1166 12.216 31.7248 12.2195C31.7612 12.2216 31.7974 12.2145 31.8302 12.1989C31.8631 12.1832 31.8914 12.1595 31.9126 12.1299C32.2243 11.7434 32.5403 11.3605 32.8603 10.9693C32.8307 10.9303 32.8049 10.8932 32.7762 10.8582C32.4876 10.5064 32.1968 10.1564 31.9114 9.80206C31.8888 9.77063 31.8586 9.74549 31.8236 9.72899C31.7886 9.71249 31.7499 9.7052 31.7113 9.70778C31.1076 9.71157 30.504 9.71009 29.9003 9.70938C29.8685 9.70479 29.8361 9.70836 29.8061 9.71975C29.776 9.73114 29.7494 9.74997 29.7287 9.77448C29.4193 10.1572 29.1056 10.5364 28.7936 10.9171C28.7823 10.933 28.772 10.9496 28.7627 10.9667Z" fill="#8A14F6"/>
<path d="M28.4067 5.83473C28.1267 5.49341 27.8494 5.15642 27.5738 4.81807C27.5601 4.79969 27.5421 4.78498 27.5214 4.77524C27.5006 4.76549 27.4778 4.76101 27.4549 4.7622C26.9115 4.76338 26.368 4.76338 25.8246 4.7622C25.8017 4.76087 25.7789 4.76522 25.758 4.77486C25.7372 4.78451 25.7191 4.79914 25.7053 4.81747C25.4299 5.15595 25.1526 5.493 24.8708 5.83656C24.8922 5.86793 24.91 5.89906 24.9323 5.92641C25.1823 6.23203 25.434 6.536 25.6822 6.84305C25.702 6.87101 25.7285 6.89353 25.7593 6.90854C25.7901 6.92355 25.8242 6.93056 25.8584 6.92892C26.3786 6.92561 26.8989 6.92679 27.4191 6.92774C27.4487 6.93144 27.4787 6.92764 27.5064 6.91668C27.5342 6.90571 27.5587 6.88794 27.5777 6.865C27.8458 6.53233 28.118 6.20297 28.3885 5.87231C28.3957 5.86034 28.4018 5.84777 28.4067 5.83473V5.83473Z" fill="#8A14F6"/>
<path d="M24.8733 26.2376C25.1522 26.5775 25.4299 26.9134 25.7039 27.2523C25.7232 27.2749 25.748 27.2923 25.7758 27.3028C25.8037 27.3133 25.8337 27.3165 25.8632 27.3123C26.1832 27.311 26.5032 27.3117 26.8233 27.3117C27.0274 27.3117 27.2317 27.314 27.4355 27.3097C27.4801 27.3113 27.5237 27.2961 27.5576 27.2671C27.8434 26.9263 28.1244 26.5815 28.4108 26.2325C28.3862 26.1989 28.3662 26.1687 28.3434 26.1408C28.0965 25.8394 27.8478 25.5395 27.6036 25.2362C27.5831 25.2062 27.5553 25.1819 27.5228 25.1656C27.4903 25.1493 27.4542 25.1415 27.4178 25.143C26.8984 25.1467 26.3789 25.1455 25.8594 25.1441C25.8299 25.1406 25.8 25.1446 25.7724 25.1557C25.7448 25.1668 25.7205 25.1846 25.7016 25.2076C25.4333 25.5393 25.1617 25.8684 24.8915 26.1987C24.8843 26.2111 24.8782 26.2241 24.8733 26.2376V26.2376Z" fill="#8A14F6"/>
<path d="M33.0911 16.1803C33.3374 16.4809 33.5733 16.7674 33.8072 17.0555C33.8226 17.0754 33.8428 17.0912 33.8659 17.1014C33.8889 17.1115 33.9142 17.1158 33.9393 17.1138C34.3942 17.1121 34.8491 17.112 35.304 17.1134C35.3269 17.1155 35.3499 17.1118 35.3709 17.1028C35.392 17.0937 35.4106 17.0796 35.4249 17.0617C35.6616 16.7702 35.9007 16.4803 36.1437 16.1841C36.1129 16.1439 36.0864 16.1072 36.0576 16.072C35.8547 15.8243 35.6498 15.5781 35.449 15.3287C35.4306 15.3026 35.4059 15.2816 35.3772 15.2676C35.3485 15.2536 35.3167 15.2471 35.2848 15.2488C34.8392 15.252 34.3936 15.2507 33.948 15.2501C33.923 15.2466 33.8975 15.2493 33.8738 15.2581C33.8501 15.267 33.829 15.2816 33.8125 15.3007C33.5759 15.5923 33.3366 15.8815 33.0911 16.1803Z" fill="#8A14F6"/>
<path d="M34.4263 24.8984C34.2293 24.6583 34.0413 24.4288 33.8523 24.2C33.7904 24.1249 33.7398 24.022 33.6596 23.9854C33.5743 23.9464 33.46 23.9684 33.3583 23.9681C32.987 23.967 32.6155 23.9694 32.2441 23.9662C32.2101 23.9636 32.1759 23.9697 32.1449 23.9839C32.1139 23.9982 32.0871 24.0202 32.067 24.0478C31.8644 24.3018 31.6558 24.5509 31.4498 24.8023C31.4264 24.8308 31.4052 24.8609 31.3788 24.896C31.4009 24.9271 31.4202 24.9576 31.4426 24.9853C31.6511 25.2405 31.8619 25.4943 32.068 25.7511C32.0881 25.7788 32.1148 25.8009 32.1458 25.8154C32.1768 25.8299 32.211 25.8363 32.2451 25.834C32.6815 25.8306 33.1179 25.8322 33.5543 25.8323C33.5814 25.8373 33.6093 25.8354 33.6355 25.8266C33.6616 25.8178 33.6851 25.8026 33.7037 25.7822C33.9398 25.4896 34.1792 25.1999 34.4263 24.8984Z" fill="#8A14F6"/>
<path d="M34.083 19.5972L34.3883 19.97C34.5177 20.1278 34.6495 20.2837 34.7754 20.4445C34.7946 20.4729 34.8208 20.4958 34.8515 20.5111C34.8821 20.5263 34.9162 20.5335 34.9504 20.5317C35.3911 20.5283 35.8319 20.5298 36.2726 20.5304C36.3 20.5343 36.3278 20.5313 36.3537 20.5216C36.3795 20.512 36.4025 20.496 36.4206 20.4751C36.6505 20.1897 36.8836 19.9069 37.1153 19.6229C37.1205 19.6125 37.1243 19.6015 37.1265 19.5901C37.1161 19.5754 37.1043 19.556 37.0901 19.5386C36.8724 19.2732 36.6534 19.0088 36.4373 18.742C36.4202 18.7177 36.3972 18.6982 36.3706 18.6851C36.3439 18.6721 36.3144 18.6659 36.2848 18.6672C35.8348 18.6697 35.3847 18.6699 34.9347 18.6677C34.9073 18.6656 34.8798 18.6704 34.8548 18.6817C34.8298 18.693 34.8079 18.7104 34.7914 18.7323C34.5611 19.0172 34.3275 19.2995 34.083 19.5972Z" fill="#8A14F6"/>
<path d="M37.138 12.7636C36.8934 12.4655 36.6568 12.1797 36.4241 11.8908C36.4044 11.8684 36.3794 11.8512 36.3513 11.841C36.3233 11.8308 36.2931 11.8278 36.2636 11.8323C35.897 11.8331 35.5297 11.848 35.1642 11.8271C34.9315 11.8138 34.777 11.8803 34.6424 12.0733C34.4758 12.3119 34.2762 12.5275 34.0861 12.759C34.1167 12.7993 34.1431 12.8363 34.1719 12.8714C34.3745 13.1192 34.5792 13.3654 34.7795 13.6151C34.7978 13.6413 34.8224 13.6624 34.851 13.6765C34.8797 13.6906 34.9115 13.6972 34.9434 13.6957C35.3887 13.6927 35.8342 13.6942 36.2796 13.6943C36.3046 13.6982 36.3301 13.6958 36.3539 13.6872C36.3777 13.6786 36.3989 13.6642 36.4157 13.6453C36.6519 13.3537 36.8911 13.0644 37.138 12.7636Z" fill="#8A14F6"/>
<path d="M23.95 28.7837C23.8789 28.6967 23.8097 28.6105 23.7396 28.5251C23.5807 28.3315 23.42 28.1393 23.2635 27.9436C23.2443 27.9152 23.2182 27.8922 23.1877 27.8768C23.1572 27.8613 23.1232 27.8539 23.089 27.8552C22.6482 27.859 22.2074 27.8573 21.7667 27.8567C21.7393 27.8527 21.7115 27.8557 21.6856 27.8654C21.6598 27.875 21.6368 27.8911 21.6187 27.9119C21.3887 28.1972 21.1552 28.4797 20.9234 28.7635C20.9176 28.7749 20.9133 28.787 20.9105 28.7995C20.9824 28.8879 21.0576 28.9812 21.1335 29.074C21.2864 29.2604 21.4419 29.445 21.5917 29.6341C21.6112 29.6623 21.6375 29.6849 21.6681 29.7C21.6988 29.7151 21.7328 29.7221 21.767 29.7204C22.2077 29.7168 22.6488 29.7182 23.0893 29.7191C23.1188 29.7228 23.1488 29.719 23.1764 29.7079C23.204 29.6968 23.2284 29.679 23.2472 29.6559C23.4676 29.3808 23.6929 29.1096 23.916 28.8367C23.9282 28.8196 23.9396 28.8019 23.95 28.7837Z" fill="#8A14F6"/>
<path d="M20.882 3.56981C20.9655 3.67226 21.0412 3.76565 21.1173 3.85863C21.2704 4.04541 21.4244 4.23148 21.5762 4.41928C21.5923 4.44433 21.6144 4.46492 21.6406 4.47915C21.6667 4.49337 21.6961 4.50077 21.7258 4.50065C22.181 4.49764 22.6361 4.49864 23.0914 4.49977C23.1165 4.50196 23.1418 4.49784 23.1649 4.4878C23.1881 4.47775 23.2084 4.46209 23.2239 4.44224C23.4515 4.16046 23.6819 3.88088 23.9109 3.60017C23.9168 3.58925 23.9213 3.57766 23.9244 3.56566C23.9094 3.54424 23.8929 3.51713 23.8729 3.49281C23.6611 3.234 23.4476 2.97667 23.2376 2.71655C23.2204 2.69231 23.1974 2.67279 23.1707 2.65977C23.144 2.64674 23.1145 2.64065 23.0848 2.64204C22.6343 2.64433 22.1838 2.64449 21.7332 2.64251C21.7058 2.64033 21.6783 2.64503 21.6532 2.65619C21.6281 2.66736 21.6062 2.68463 21.5894 2.70643C21.3588 2.99164 21.1248 3.2743 20.882 3.56981Z" fill="#8A14F6"/>
<path d="M31.2549 7.69476C31.3547 7.81703 31.4452 7.92818 31.5358 8.03903C31.674 8.20782 31.814 8.37519 31.9496 8.54618C31.968 8.57233 31.9928 8.59336 32.0217 8.60727C32.0505 8.62119 32.0824 8.62754 32.1143 8.62572C32.56 8.62264 33.0057 8.62383 33.4514 8.6246C33.4787 8.62793 33.5064 8.62433 33.5319 8.61413C33.5575 8.60393 33.5801 8.58746 33.5976 8.56624C33.8215 8.28766 34.0495 8.0124 34.2757 7.73565C34.2844 7.72203 34.2918 7.70762 34.2978 7.69263C34.2873 7.67375 34.2756 7.65555 34.2628 7.63812C34.0453 7.37226 33.8264 7.10759 33.6102 6.84055C33.5928 6.81648 33.5697 6.79714 33.5429 6.78428C33.5161 6.77142 33.4865 6.76546 33.4568 6.76693C33.0064 6.7693 32.5562 6.76847 32.1059 6.7677C32.0808 6.76467 32.0553 6.76792 32.0318 6.77716C32.0083 6.78639 31.9874 6.80132 31.9711 6.82061C31.7374 7.10895 31.501 7.39505 31.2549 7.69476Z" fill="#8A14F6"/>
<path d="M38.9992 16.1771C38.8539 16.0001 38.7117 15.8293 38.5725 15.6563C38.5586 15.6381 38.5403 15.6236 38.5193 15.6143C38.4983 15.605 38.4754 15.6011 38.4525 15.603C38.1838 15.6043 37.915 15.6019 37.6463 15.6058C37.6063 15.6074 37.5683 15.6242 37.5402 15.6527C37.3956 15.8214 37.2566 15.9948 37.1073 16.1768C37.177 16.2636 37.2441 16.3502 37.3144 16.434C37.4032 16.54 37.4949 16.6439 37.5853 16.7487C37.7194 16.7509 37.8535 16.7541 37.9877 16.7551C38.1406 16.7562 38.2936 16.7538 38.4464 16.7561C38.4715 16.7583 38.4968 16.7541 38.5198 16.7439C38.5429 16.7337 38.5629 16.7177 38.5781 16.6976C38.6932 16.5524 38.8124 16.4104 38.9298 16.267C38.9502 16.2421 38.9692 16.216 38.9992 16.1771Z" fill="#8A14F6"/>
<path d="M29.711 28.5535C29.5608 28.371 29.4158 28.1916 29.2659 28.0162C29.2389 27.9925 29.204 27.9798 29.168 27.9807C28.8948 27.978 28.6215 27.9781 28.3481 27.981C28.3123 27.9821 28.2782 27.9967 28.2529 28.0221C28.1064 28.1948 27.9643 28.3712 27.8149 28.5538C27.965 28.7369 28.1103 28.9164 28.2592 29.0928C28.2815 29.1151 28.3114 29.128 28.3428 29.1289C28.6208 29.1316 28.8987 29.1316 29.1767 29.1289C29.2125 29.1273 29.2464 29.1122 29.2714 29.0864C29.418 28.9135 29.5601 28.7372 29.711 28.5535Z" fill="#8A14F6"/>
<path d="M29.8308 3.69192C29.6802 3.50762 29.5414 3.33404 29.3972 3.16519C29.369 3.13655 29.3309 3.11974 29.2907 3.11819C29.0174 3.11425 28.744 3.11425 28.4707 3.11819C28.4348 3.11925 28.4007 3.13396 28.3753 3.15933C28.2282 3.33173 28.0857 3.50798 27.9349 3.69121C28.0856 3.87468 28.2304 4.05377 28.38 4.22902C28.4061 4.25353 28.4405 4.26721 28.4763 4.26731C28.7496 4.27033 29.0231 4.27098 29.2964 4.26666C29.3363 4.26308 29.3733 4.24444 29.4 4.21452C29.544 4.04525 29.6831 3.87208 29.8308 3.69192Z" fill="#8A14F6"/>
<path d="M23.5021 8.12622H26.4663L27.9485 9.93364L26.4663 11.7411H23.5021L22.02 9.93364L23.5021 8.12622Z" fill="#8A14F6"/>
<path d="M27.9485 9.93033L26.4663 8.12622H23.5021L22.02 9.93033L22.1502 10.0834L23.7059 8.65237H26.1888L27.8137 10.091L27.9485 9.93033Z" fill="#8A14F6"/>
<path d="M23.5021 20.6106H26.4663L27.9485 22.418L26.4663 24.2255H23.5021L22.02 22.418L23.5021 20.6106Z" fill="#8A14F6"/>
<path d="M27.9485 22.4147L26.4663 20.6106H23.5021L22.02 22.4147L22.1502 22.5678L23.7059 21.1367H26.1888L27.8137 22.5753L27.9485 22.4147Z" fill="#8A14F6"/>
<path d="M27.7424 14.4868H30.7066L32.1887 16.2942L30.7066 18.1017H27.7424L26.2603 16.2942L27.7424 14.4868Z" fill="#8A14F6"/>
<path d="M32.1891 16.2919L30.7069 14.4878H27.7427L26.2606 16.2919L26.3908 16.445L27.9465 15.0139H30.4294L32.0543 16.4525L32.1891 16.2919Z" fill="#8A14F6"/>
<path d="M21.6569 2.70898H23.1807L23.9427 3.63817L23.1807 4.56736H21.6569L20.8949 3.63817L21.6569 2.70898Z" fill="#8A14F6"/>
<path d="M23.9427 3.6364L23.1807 2.70898H21.6569L20.8949 3.6364L20.9617 3.71511L21.7616 2.97951H23.0381L23.8734 3.71931L23.9427 3.6364Z" fill="#8A14F6"/>
<path d="M25.7612 4.82666H27.5331L28.4191 5.90706L27.5331 6.98747H25.7612L24.8752 5.90706L25.7612 4.82666Z" fill="#8A14F6"/>
<path d="M28.4191 5.90505L27.5331 4.82666H25.7612L24.8752 5.90505L24.953 5.99661L25.883 5.14134H27.3672L28.3385 6.00128L28.4191 5.90505Z" fill="#8A14F6"/>
<path d="M21.6747 27.9131H23.1985L23.9605 28.8423L23.1985 29.7715H21.6747L20.9127 28.8423L21.6747 27.9131Z" fill="#8A14F6"/>
<path d="M23.9605 28.8405L23.1985 27.9131H21.6747L20.9127 28.8405L20.9795 28.9192L21.7794 28.1836H23.0559L23.8912 28.9234L23.9605 28.8405Z" fill="#8A14F6"/>
<path d="M25.7616 25.2085H27.5335L28.4195 26.2889L27.5335 27.3693H25.7616L24.8756 26.2889L25.7616 25.2085Z" fill="#8A14F6"/>
<path d="M28.4195 26.2869L27.5335 25.2085H25.7616L24.8756 26.2869L24.9533 26.3784L25.8834 25.5232H27.3676L28.3389 26.3831L28.4195 26.2869Z" fill="#8A14F6"/>
<path d="M29.7876 20.1428H31.8374L32.8623 21.3927L31.8374 22.6426H29.7876L28.7627 21.3927L29.7876 20.1428Z" fill="#8A14F6"/>
<path d="M32.8623 21.3904L31.8374 20.1428H29.7876L28.7627 21.3904L28.8526 21.4964L29.9285 20.5069H31.6455L32.7692 21.5016L32.8623 21.3904Z" fill="#8A14F6"/>
<path d="M29.7882 9.77539H31.838L32.8629 11.0252L31.838 12.2751H29.7882L28.7633 11.0253L29.7882 9.77539Z" fill="#8A14F6"/>
<path d="M32.8629 11.023L31.838 9.77539H29.7882L28.7633 11.023L28.8532 11.1289L29.9291 10.1394H31.6461L32.7698 11.1342L32.8629 11.023Z" fill="#8A14F6"/>
<path d="M32.0232 6.8313H33.547L34.309 7.76049L33.547 8.68968H32.0232L31.2612 7.76049L32.0232 6.8313Z" fill="#8A14F6"/>
<path d="M34.309 7.75871L33.547 6.8313H32.0232L31.2612 7.75871L31.328 7.83743L32.128 7.10183H33.4044L34.2397 7.84163L34.309 7.75871Z" fill="#8A14F6"/>
<path d="M34.851 11.897H36.3748L37.1368 12.8262L36.3748 13.7553H34.851L34.089 12.8262L34.851 11.897Z" fill="#8A14F6"/>
<path d="M37.1368 12.8244L36.3748 11.897H34.851L34.089 12.8244L34.1558 12.9031L34.9557 12.1675H36.2322L37.0675 12.9073L37.1368 12.8244Z" fill="#8A14F6"/>
<path d="M34.851 18.7283H36.3748L37.1368 19.6575L36.3748 20.5866H34.851L34.089 19.6575L34.851 18.7283Z" fill="#8A14F6"/>
<path d="M37.1368 19.6557L36.3748 18.7283H34.851L34.089 19.6557L34.1558 19.7344L34.9557 18.9988H36.2322L37.0675 19.7386L37.1368 19.6557Z" fill="#8A14F6"/>
<path d="M33.8609 15.312H35.3847L36.1467 16.2412L35.3847 17.1704H33.8609L33.0989 16.2412L33.8609 15.312Z" fill="#8A14F6"/>
<path d="M36.1467 16.2394L35.3847 15.312H33.8609L33.0989 16.2394L33.1657 16.3181L33.9656 15.5825H35.2421L36.0774 16.3223L36.1467 16.2394Z" fill="#8A14F6"/>
<path d="M32.1408 24.0278H33.6646L34.4266 24.957L33.6646 25.8862H32.1408L31.3788 24.957L32.1408 24.0278Z" fill="#8A14F6"/>
<path d="M34.4266 24.9557L33.6646 24.0283H32.1408L31.3788 24.9557L31.4456 25.0344L32.2455 24.2988H33.522L34.3573 25.0386L34.4266 24.9557Z" fill="#8A14F6"/>
<path d="M28.2986 28.0327H29.2429L29.715 28.6085L29.2429 29.1843H28.2986L27.8264 28.6085L28.2986 28.0327Z" fill="#8A14F6"/>
<path d="M29.7157 28.6074L29.2436 28.0327H28.2992L27.827 28.6074L27.8685 28.6562L28.3642 28.2004H29.1551L29.6728 28.6588L29.7157 28.6074Z" fill="#8A14F6"/>
<path d="M37.5839 15.6643H38.5282L39.0003 16.2401L38.5282 16.8159H37.5839L37.1117 16.2401L37.5839 15.6643Z" fill="#8A14F6"/>
<path d="M39.0004 16.239L38.5282 15.6643H37.5839L37.1117 16.239L37.1531 16.2878L37.6488 15.832H38.4398L38.9574 16.2904L39.0004 16.239Z" fill="#8A14F6"/>
<path d="M28.4175 3.17627H29.3618L29.8339 3.75207L29.3618 4.32787H28.4175L27.9453 3.75207L28.4175 3.17627Z" fill="#8A14F6"/>
<path d="M29.834 3.75095L29.3618 3.17627H28.4175L27.9453 3.75095L27.9867 3.79971L28.4825 3.344H29.2734L29.791 3.80232L29.834 3.75095Z" fill="#8A14F6"/>
<path d="M23.5021 8.12622H26.4663L27.9485 9.93364L26.4663 11.7411H23.5021L22.02 9.93364L23.5021 8.12622Z" fill="#8A14F6"/>
<path d="M27.9485 9.93033L26.4663 8.12622H23.5021L22.02 9.93033L22.1502 10.0834L23.7059 8.65237H26.1888L27.8137 10.091L27.9485 9.93033Z" fill="#8A14F6"/>
<path d="M23.5021 20.6106H26.4663L27.9485 22.418L26.4663 24.2255H23.5021L22.02 22.418L23.5021 20.6106Z" fill="#8A14F6"/>
<path d="M27.9485 22.4147L26.4663 20.6106H23.5021L22.02 22.4147L22.1502 22.5678L23.7059 21.1367H26.1888L27.8137 22.5753L27.9485 22.4147Z" fill="#8A14F6"/>
<path d="M27.7424 14.4868H30.7066L32.1887 16.2942L30.7066 18.1017H27.7424L26.2603 16.2942L27.7424 14.4868Z" fill="#8A14F6"/>
<path d="M32.1891 16.2919L30.7069 14.4878H27.7427L26.2606 16.2919L26.3908 16.445L27.9465 15.0139H30.4294L32.0543 16.4525L32.1891 16.2919Z" fill="#8A14F6"/>
<path d="M21.6569 2.70898H23.1807L23.9427 3.63817L23.1807 4.56736H21.6569L20.8949 3.63817L21.6569 2.70898Z" fill="#8A14F6"/>
<path d="M23.9427 3.6364L23.1807 2.70898H21.6569L20.8949 3.6364L20.9617 3.71511L21.7616 2.97951H23.0381L23.8734 3.71931L23.9427 3.6364Z" fill="#8A14F6"/>
<path d="M25.7612 4.82666H27.5331L28.4191 5.90706L27.5331 6.98747H25.7612L24.8752 5.90706L25.7612 4.82666Z" fill="#8A14F6"/>
<path d="M28.4191 5.90505L27.5331 4.82666H25.7612L24.8752 5.90505L24.953 5.99661L25.883 5.14134H27.3672L28.3385 6.00128L28.4191 5.90505Z" fill="#8A14F6"/>
<path d="M21.6747 27.9131H23.1985L23.9605 28.8423L23.1985 29.7715H21.6747L20.9127 28.8423L21.6747 27.9131Z" fill="#8A14F6"/>
<path d="M23.9605 28.8405L23.1985 27.9131H21.6747L20.9127 28.8405L20.9795 28.9192L21.7794 28.1836H23.0559L23.8912 28.9234L23.9605 28.8405Z" fill="#8A14F6"/>
<path d="M25.7616 25.2085H27.5335L28.4195 26.2889L27.5335 27.3693H25.7616L24.8756 26.2889L25.7616 25.2085Z" fill="#8A14F6"/>
<path d="M28.4195 26.2869L27.5335 25.2085H25.7616L24.8756 26.2869L24.9533 26.3784L25.8834 25.5232H27.3676L28.3389 26.3831L28.4195 26.2869Z" fill="#8A14F6"/>
<path d="M29.7876 20.1428H31.8374L32.8623 21.3927L31.8374 22.6426H29.7876L28.7627 21.3927L29.7876 20.1428Z" fill="#8A14F6"/>
<path d="M32.8623 21.3904L31.8374 20.1428H29.7876L28.7627 21.3904L28.8526 21.4964L29.9285 20.5069H31.6455L32.7692 21.5016L32.8623 21.3904Z" fill="#8A14F6"/>
<path d="M29.7882 9.77539H31.838L32.8629 11.0252L31.838 12.2751H29.7882L28.7633 11.0253L29.7882 9.77539Z" fill="#8A14F6"/>
<path d="M32.8629 11.023L31.838 9.77539H29.7882L28.7633 11.023L28.8532 11.1289L29.9291 10.1394H31.6461L32.7698 11.1342L32.8629 11.023Z" fill="#8A14F6"/>
<path d="M32.0232 6.8313H33.547L34.309 7.76049L33.547 8.68968H32.0232L31.2612 7.76049L32.0232 6.8313Z" fill="#8A14F6"/>
<path d="M34.309 7.75871L33.547 6.8313H32.0232L31.2612 7.75871L31.328 7.83743L32.128 7.10183H33.4044L34.2397 7.84163L34.309 7.75871Z" fill="#8A14F6"/>
<path d="M34.851 11.897H36.3748L37.1368 12.8262L36.3748 13.7553H34.851L34.089 12.8262L34.851 11.897Z" fill="#8A14F6"/>
<path d="M37.1368 12.8244L36.3748 11.897H34.851L34.089 12.8244L34.1558 12.9031L34.9557 12.1675H36.2322L37.0675 12.9073L37.1368 12.8244Z" fill="#8A14F6"/>
<path d="M34.851 18.7283H36.3748L37.1368 19.6575L36.3748 20.5866H34.851L34.089 19.6575L34.851 18.7283Z" fill="#8A14F6"/>
<path d="M37.1368 19.6557L36.3748 18.7283H34.851L34.089 19.6557L34.1558 19.7344L34.9557 18.9988H36.2322L37.0675 19.7386L37.1368 19.6557Z" fill="#8A14F6"/>
<path d="M33.8609 15.312H35.3847L36.1467 16.2412L35.3847 17.1704H33.8609L33.0989 16.2412L33.8609 15.312Z" fill="#8A14F6"/>
<path d="M36.1467 16.2394L35.3847 15.312H33.8609L33.0989 16.2394L33.1657 16.3181L33.9656 15.5825H35.2421L36.0774 16.3223L36.1467 16.2394Z" fill="#8A14F6"/>
<path d="M32.1408 24.0278H33.6646L34.4266 24.957L33.6646 25.8862H32.1408L31.3788 24.957L32.1408 24.0278Z" fill="#8A14F6"/>
<path d="M34.4266 24.9557L33.6646 24.0283H32.1408L31.3788 24.9557L31.4456 25.0344L32.2455 24.2988H33.522L34.3573 25.0386L34.4266 24.9557Z" fill="#8A14F6"/>
<path d="M28.2986 28.0327H29.2429L29.715 28.6085L29.2429 29.1843H28.2986L27.8264 28.6085L28.2986 28.0327Z" fill="#8A14F6"/>
<path d="M29.7157 28.6074L29.2436 28.0327H28.2992L27.827 28.6074L27.8685 28.6562L28.3642 28.2004H29.1551L29.6728 28.6588L29.7157 28.6074Z" fill="#8A14F6"/>
<path d="M37.5839 15.6643H38.5282L39.0003 16.2401L38.5282 16.8159H37.5839L37.1117 16.2401L37.5839 15.6643Z" fill="#8A14F6"/>
<path d="M39.0004 16.239L38.5282 15.6643H37.5839L37.1117 16.239L37.1531 16.2878L37.6488 15.832H38.4398L38.9574 16.2904L39.0004 16.239Z" fill="#8A14F6"/>
<path d="M28.4175 3.17627H29.3618L29.8339 3.75207L29.3618 4.32787H28.4175L27.9453 3.75207L28.4175 3.17627Z" fill="#8A14F6"/>
<path d="M29.834 3.75095L29.3618 3.17627H28.4175L27.9453 3.75095L27.9867 3.79971L28.4825 3.344H29.2734L29.791 3.80232L29.834 3.75095Z" fill="#8A14F6"/>
</svg>
