<svg width="17" height="17" viewBox="0 0 17 17" fill="none" xmlns="http://www.w3.org/2000/svg">
<path d="M16.8329 8.49984C16.8329 3.9165 13.0829 0.166504 8.49959 0.166504C3.91626 0.166504 0.16626 3.9165 0.16626 8.49984C0.16626 13.0832 3.91626 16.8332 8.49959 16.8332C13.0829 16.8332 16.8329 13.0832 16.8329 8.49984ZM3.24959 4.4165L12.5829 13.7498C11.4996 14.6665 10.0829 15.1665 8.49959 15.1665C4.83293 15.1665 1.83293 12.1665 1.83293 8.49984C1.83293 6.9165 2.33293 5.49984 3.24959 4.4165ZM15.1663 8.49984C15.1663 10.0832 14.6663 11.4998 13.7496 12.5832L4.41626 3.24984C5.49959 2.33317 6.91626 1.83317 8.49959 1.83317C12.1663 1.83317 15.1663 4.83317 15.1663 8.49984Z" fill="#D2D2D3"/>
</svg>
