<svg width="29" height="29" viewBox="0 0 29 29" fill="none" xmlns="http://www.w3.org/2000/svg">
<path d="M14.7952 7.09317C10.8537 7.09317 7.71285 10.2956 7.71285 14.1755C7.71285 18.117 10.8537 21.2579 14.7952 21.2579C18.6751 21.2579 21.8776 18.117 21.8776 14.1755C21.8776 10.2956 18.6751 7.09317 14.7952 7.09317ZM14.7952 18.7945C12.2702 18.7945 10.1763 16.7621 10.1763 14.1755C10.1763 11.6505 12.2086 9.61819 14.7952 9.61819C17.3202 9.61819 19.3526 11.6505 19.3526 14.1755C19.3526 16.7621 17.3202 18.7945 14.7952 18.7945ZM23.7867 6.84683C23.7867 7.77061 23.0477 8.50964 22.1239 8.50964C21.2001 8.50964 20.4611 7.77061 20.4611 6.84683C20.4611 5.92304 21.2001 5.18401 22.1239 5.18401C23.0477 5.18401 23.7867 5.92304 23.7867 6.84683ZM28.4673 8.50964C28.3441 6.29255 27.8514 4.32181 26.2502 2.72058C24.6489 1.11935 22.6782 0.626663 20.4611 0.503492C18.1824 0.38032 11.3464 0.38032 9.06774 0.503492C6.85065 0.626663 4.94149 1.11935 3.27867 2.72058C1.67744 4.32181 1.18476 6.29255 1.06159 8.50964C0.938414 10.7883 0.938414 17.6243 1.06159 19.903C1.18476 22.1201 1.67744 24.0293 3.27867 25.6921C4.94149 27.2933 6.85065 27.786 9.06774 27.9092C11.3464 28.0323 18.1824 28.0323 20.4611 27.9092C22.6782 27.786 24.6489 27.2933 26.2502 25.6921C27.8514 24.0293 28.3441 22.1201 28.4673 19.903C28.5904 17.6243 28.5904 10.7883 28.4673 8.50964ZM25.5111 22.3049C25.08 23.5366 24.0947 24.4604 22.9245 24.953C21.077 25.6921 16.766 25.5073 14.7952 25.5073C12.7629 25.5073 8.45188 25.6921 6.66589 24.953C5.43418 24.4604 4.51039 23.5366 4.0177 22.3049C3.27867 20.5189 3.46343 16.2079 3.46343 14.1755C3.46343 12.2048 3.27867 7.89378 4.0177 6.04621C4.51039 4.87608 5.43418 3.95229 6.66589 3.45961C8.45188 2.72058 12.7629 2.90534 14.7952 2.90534C16.766 2.90534 21.077 2.72058 22.9245 3.45961C24.0947 3.89071 25.0184 4.87608 25.5111 6.04621C26.2502 7.89378 26.0654 12.2048 26.0654 14.1755C26.0654 16.2079 26.2502 20.5189 25.5111 22.3049Z" fill="#FED136"/>
</svg>
