<svg width="29" height="28" viewBox="0 0 29 28" fill="none" xmlns="http://www.w3.org/2000/svg">
<path d="M26.3853 0.38032H2.67478C1.62783 0.38032 0.765625 1.30411 0.765625 2.41265V26C0.765625 27.1085 1.62783 27.9707 2.67478 27.9707H26.3853C27.4323 27.9707 28.356 27.1085 28.356 26V2.41265C28.356 1.30411 27.4323 0.38032 26.3853 0.38032ZM9.0797 24.0293H5.01504V10.9115H9.0797V24.0293ZM7.04737 9.06391C5.69249 9.06391 4.64553 8.01696 4.64553 6.72365C4.64553 5.43035 5.69249 4.32181 7.04737 4.32181C8.34067 4.32181 9.38763 5.43035 9.38763 6.72365C9.38763 8.01696 8.34067 9.06391 7.04737 9.06391ZM24.4146 24.0293H20.2883V17.6243C20.2883 16.1463 20.2883 14.1755 18.1944 14.1755C16.0389 14.1755 15.731 15.8383 15.731 17.5627V24.0293H11.6663V10.9115H15.5462V12.6975H15.6078C16.1621 11.6505 17.517 10.542 19.4877 10.542C23.6139 10.542 24.4146 13.3133 24.4146 16.8237V24.0293Z" fill="#FED136"/>
</svg>
