<svg width="30" height="28" viewBox="0 0 30 28" fill="none" xmlns="http://www.w3.org/2000/svg">
<path d="M25.4115 10.1644H29.2232V19.6937H25.4115V10.1644ZM19.0586 7.62329H22.8703V12.7056H19.0586V7.62329Z" fill="#8A14F6"/>
<path d="M12.7056 3.17651H16.5174V10.1647H12.7056V3.17651ZM6.35278 10.1647H10.1645V20.9645H6.35278V10.1647Z" fill="#8A14F6"/>
<path d="M0 19.6943H3.81171V24.7766H0V19.6943Z" fill="#8A14F6"/>
<path d="M1.58123 22.1821V19.6937H0V24.776H3.81171V23.4527H2.8518C2.51482 23.4527 2.19165 23.3188 1.95337 23.0806C1.71509 22.8423 1.58123 22.5191 1.58123 22.1821ZM20.6398 10.1117V7.62329H19.0586V12.7056H22.8703V11.3823H21.9104C21.5734 11.3823 21.2502 11.2484 21.0119 11.0101C20.7737 10.7719 20.6398 10.4487 20.6398 10.1117Z" fill="#8A14F6"/>
<path d="M14.2869 7.57078V3.17651H12.7056V10.1647H16.5174V8.84136H15.5574C15.2205 8.84136 14.8973 8.70749 14.659 8.46921C14.4207 8.23094 14.2869 7.90776 14.2869 7.57078V7.57078ZM7.93401 18.3706V10.1647H6.35278V20.9645H10.1645V19.6412H9.20458C8.8676 19.6412 8.54443 19.5074 8.30615 19.2691C8.06787 19.0308 7.93401 18.7076 7.93401 18.3706Z" fill="#8A14F6"/>
<path d="M26.9926 17.0997V10.1643H25.4114V19.6936H29.2231V18.3703H28.2632C27.9262 18.3703 27.603 18.2364 27.3647 17.9982C27.1265 17.7599 26.9926 17.4367 26.9926 17.0997Z" fill="#8A14F6"/>
<path d="M1.90602 27.9526C1.82178 27.9526 1.74098 27.9191 1.68141 27.8595C1.62185 27.8 1.58838 27.7192 1.58838 27.6349V24.7761C1.58838 24.6919 1.62185 24.6111 1.68141 24.5515C1.74098 24.492 1.82178 24.4585 1.90602 24.4585C1.99027 24.4585 2.07106 24.492 2.13063 24.5515C2.1902 24.6111 2.22366 24.6919 2.22366 24.7761V27.6349C2.22366 27.7192 2.1902 27.8 2.13063 27.8595C2.07106 27.9191 1.99027 27.9526 1.90602 27.9526ZM1.90602 20.0115C1.82178 20.0115 1.74098 19.978 1.68141 19.9185C1.62185 19.8589 1.58838 19.7781 1.58838 19.6939V16.8351C1.58838 16.7508 1.62185 16.67 1.68141 16.6105C1.74098 16.5509 1.82178 16.5174 1.90602 16.5174C1.99027 16.5174 2.07106 16.5509 2.13063 16.6105C2.1902 16.67 2.22366 16.7508 2.22366 16.8351V19.6939C2.22366 19.7781 2.1902 19.8589 2.13063 19.9185C2.07106 19.978 1.99027 20.0115 1.90602 20.0115ZM8.25888 10.4822C8.17464 10.4822 8.09384 10.4488 8.03427 10.3892C7.9747 10.3296 7.94124 10.2488 7.94124 10.1646V7.30579C7.94124 7.22154 7.9747 7.14075 8.03427 7.08118C8.09384 7.02161 8.17464 6.98814 8.25888 6.98814C8.34312 6.98814 8.42392 7.02161 8.48349 7.08118C8.54306 7.14075 8.57652 7.22154 8.57652 7.30579V10.1646C8.57652 10.2488 8.54306 10.3296 8.48349 10.3892C8.42392 10.4488 8.34312 10.4822 8.25888 10.4822ZM8.25888 24.1409C8.17464 24.1409 8.09384 24.1074 8.03427 24.0478C7.9747 23.9883 7.94124 23.9075 7.94124 23.8232V20.9644C7.94124 20.8802 7.9747 20.7994 8.03427 20.7398C8.09384 20.6803 8.17464 20.6468 8.25888 20.6468C8.34312 20.6468 8.42392 20.6803 8.48349 20.7398C8.54306 20.7994 8.57652 20.8802 8.57652 20.9644V23.8232C8.57652 23.9075 8.54306 23.9883 8.48349 24.0478C8.42392 24.1074 8.34312 24.1409 8.25888 24.1409ZM27.3175 10.4822C27.2332 10.4822 27.1524 10.4488 27.0928 10.3892C27.0333 10.3296 26.9998 10.2488 26.9998 10.1646V7.30579C26.9998 7.22154 27.0333 7.14075 27.0928 7.08118C27.1524 7.02161 27.2332 6.98814 27.3175 6.98814C27.4017 6.98814 27.4825 7.02161 27.5421 7.08118C27.6016 7.14075 27.6351 7.22154 27.6351 7.30579V10.1646C27.6351 10.2488 27.6016 10.3296 27.5421 10.3892C27.4825 10.4488 27.4017 10.4822 27.3175 10.4822ZM27.3175 22.8703C27.2332 22.8703 27.1524 22.8368 27.0928 22.7773C27.0333 22.7177 26.9998 22.6369 26.9998 22.5526V19.6939C26.9998 19.6096 27.0333 19.5288 27.0928 19.4693C27.1524 19.4097 27.2332 19.3762 27.3175 19.3762C27.4017 19.3762 27.4825 19.4097 27.5421 19.4693C27.6016 19.5288 27.6351 19.6096 27.6351 19.6939V22.5526C27.6351 22.6369 27.6016 22.7177 27.5421 22.7773C27.4825 22.8368 27.4017 22.8703 27.3175 22.8703ZM20.9646 7.94107C20.8804 7.94107 20.7996 7.90761 20.74 7.84804C20.6804 7.78847 20.647 7.70767 20.647 7.62343V4.76464C20.647 4.6804 20.6804 4.59961 20.74 4.54004C20.7996 4.48047 20.8804 4.447 20.9646 4.447C21.0488 4.447 21.1296 4.48047 21.1892 4.54004C21.2488 4.59961 21.2822 4.6804 21.2822 4.76464V7.62343C21.2822 7.70767 21.2488 7.78847 21.1892 7.84804C21.1296 7.90761 21.0488 7.94107 20.9646 7.94107ZM20.9646 15.8821C20.8804 15.8821 20.7996 15.8487 20.74 15.7891C20.6804 15.7295 20.647 15.6487 20.647 15.5645V12.7057C20.647 12.6215 20.6804 12.5407 20.74 12.4811C20.7996 12.4215 20.8804 12.3881 20.9646 12.3881C21.0488 12.3881 21.1296 12.4215 21.1892 12.4811C21.2488 12.5407 21.2822 12.6215 21.2822 12.7057V15.5645C21.2822 15.6487 21.2488 15.7295 21.1892 15.7891C21.1296 15.8487 21.0488 15.8821 20.9646 15.8821ZM14.6117 3.49407C14.5275 3.49407 14.4467 3.46061 14.3871 3.40104C14.3276 3.34147 14.2941 3.26067 14.2941 3.17643V0.317643C14.2941 0.233399 14.3276 0.152605 14.3871 0.0930352C14.4467 0.0334656 14.5275 0 14.6117 0C14.696 0 14.7768 0.0334656 14.8363 0.0930352C14.8959 0.152605 14.9294 0.233399 14.9294 0.317643V3.17643C14.9294 3.26067 14.8959 3.34147 14.8363 3.40104C14.7768 3.46061 14.696 3.49407 14.6117 3.49407ZM14.6117 13.341C14.5275 13.341 14.4467 13.3075 14.3871 13.248C14.3276 13.1884 14.2941 13.1076 14.2941 13.0234V10.1646C14.2941 10.0803 14.3276 9.99953 14.3871 9.93997C14.4467 9.8804 14.5275 9.84693 14.6117 9.84693C14.696 9.84693 14.7768 9.8804 14.8363 9.93997C14.8959 9.99953 14.9294 10.0803 14.9294 10.1646V13.0234C14.9294 13.1076 14.8959 13.1884 14.8363 13.248C14.7768 13.3075 14.696 13.341 14.6117 13.341Z" fill="#8A14F6"/>
</svg>
