<svg width="55" height="55" viewBox="0 0 55 55" fill="none" xmlns="http://www.w3.org/2000/svg">
<rect x="0.5" y="0.5" width="54" height="54" rx="3.5" fill="#05050E" stroke="#212130"/>
<path d="M35.6843 24.631H40.4212V36.4731H35.6843V24.631ZM27.7896 21.4731H32.5265V27.7889H27.7896V21.4731Z" fill="#8A14F6"/>
<path d="M19.8947 15.9478H24.6316V24.632H19.8947V15.9478ZM12 24.632H16.7368V38.053H12V24.632Z" fill="#8A14F6"/>
<path d="M21.8597 21.4085V15.9478H19.8947V24.632H24.6316V22.9875H23.4387C23.0199 22.9875 22.6183 22.8211 22.3222 22.525C22.0261 22.2289 21.8597 21.8273 21.8597 21.4085V21.4085ZM13.965 34.8296V24.632H12V38.053H16.7368V36.4085H15.5439C15.1252 36.4085 14.7236 36.2422 14.4275 35.9461C14.1314 35.65 13.965 35.2484 13.965 34.8296Z" fill="#8A14F6"/>
<path d="M37.6493 33.2495V24.6309H35.6843V36.473H40.4211V34.8285H39.2282C38.8094 34.8285 38.4078 34.6621 38.1117 34.366C37.8156 34.0699 37.6493 33.6683 37.6493 33.2495Z" fill="#8A14F6"/>
<path d="M14.3686 25.0263C14.2639 25.0263 14.1635 24.9847 14.0895 24.9107C14.0155 24.8367 13.9739 24.7363 13.9739 24.6316V21.0789C13.9739 20.9743 14.0155 20.8739 14.0895 20.7998C14.1635 20.7258 14.2639 20.6842 14.3686 20.6842C14.4733 20.6842 14.5737 20.7258 14.6477 20.7998C14.7218 20.8739 14.7634 20.9743 14.7634 21.0789V24.6316C14.7634 24.7363 14.7218 24.8367 14.6477 24.9107C14.5737 24.9847 14.4733 25.0263 14.3686 25.0263ZM14.3686 42C14.2639 42 14.1635 41.9584 14.0895 41.8844C14.0155 41.8104 13.9739 41.71 13.9739 41.6053V38.0526C13.9739 37.9479 14.0155 37.8475 14.0895 37.7735C14.1635 37.6995 14.2639 37.6579 14.3686 37.6579C14.4733 37.6579 14.5737 37.6995 14.6477 37.7735C14.7218 37.8475 14.7634 37.9479 14.7634 38.0526V41.6053C14.7634 41.71 14.7218 41.8104 14.6477 41.8844C14.5737 41.9584 14.4733 42 14.3686 42ZM38.0528 25.0263C37.9481 25.0263 37.8477 24.9847 37.7737 24.9107C37.6997 24.8367 37.6581 24.7363 37.6581 24.6316V21.0789C37.6581 20.9743 37.6997 20.8739 37.7737 20.7998C37.8477 20.7258 37.9481 20.6842 38.0528 20.6842C38.1575 20.6842 38.2579 20.7258 38.3319 20.7998C38.406 20.8739 38.4476 20.9743 38.4476 21.0789V24.6316C38.4476 24.7363 38.406 24.8367 38.3319 24.9107C38.2579 24.9847 38.1575 25.0263 38.0528 25.0263ZM38.0528 40.4211C37.9481 40.4211 37.8477 40.3795 37.7737 40.3054C37.6997 40.2314 37.6581 40.131 37.6581 40.0263V36.4737C37.6581 36.369 37.6997 36.2686 37.7737 36.1946C37.8477 36.1205 37.9481 36.0789 38.0528 36.0789C38.1575 36.0789 38.2579 36.1205 38.3319 36.1946C38.406 36.2686 38.4476 36.369 38.4476 36.4737V40.0263C38.4476 40.131 38.406 40.2314 38.3319 40.3054C38.2579 40.3795 38.1575 40.4211 38.0528 40.4211ZM30.1581 21.8684C30.0534 21.8684 29.953 21.8268 29.879 21.7528C29.8049 21.6788 29.7634 21.5784 29.7634 21.4737V17.9211C29.7634 17.8164 29.8049 17.716 29.879 17.6419C29.953 17.5679 30.0534 17.5263 30.1581 17.5263C30.2628 17.5263 30.3632 17.5679 30.4372 17.6419C30.5112 17.716 30.5528 17.8164 30.5528 17.9211V21.4737C30.5528 21.5784 30.5112 21.6788 30.4372 21.7528C30.3632 21.8268 30.2628 21.8684 30.1581 21.8684ZM30.1581 31.7368C30.0534 31.7368 29.953 31.6953 29.879 31.6212C29.8049 31.5472 29.7634 31.4468 29.7634 31.3421V27.7895C29.7634 27.6848 29.8049 27.5844 29.879 27.5104C29.953 27.4363 30.0534 27.3947 30.1581 27.3947C30.2628 27.3947 30.3632 27.4363 30.4372 27.5104C30.5112 27.5844 30.5528 27.6848 30.5528 27.7895V31.3421C30.5528 31.4468 30.5112 31.5472 30.4372 31.6212C30.3632 31.6953 30.2628 31.7368 30.1581 31.7368ZM22.2634 16.3421C22.1587 16.3421 22.0583 16.3005 21.9842 16.2265C21.9102 16.1525 21.8686 16.0521 21.8686 15.9474V12.3947C21.8686 12.29 21.9102 12.1896 21.9842 12.1156C22.0583 12.0416 22.1587 12 22.2634 12C22.368 12 22.4684 12.0416 22.5425 12.1156C22.6165 12.1896 22.6581 12.29 22.6581 12.3947V15.9474C22.6581 16.0521 22.6165 16.1525 22.5425 16.2265C22.4684 16.3005 22.368 16.3421 22.2634 16.3421ZM22.2634 28.5789C22.1587 28.5789 22.0583 28.5374 21.9842 28.4633C21.9102 28.3893 21.8686 28.2889 21.8686 28.1842V24.6316C21.8686 24.5269 21.9102 24.4265 21.9842 24.3525C22.0583 24.2784 22.1587 24.2368 22.2634 24.2368C22.368 24.2368 22.4684 24.2784 22.5425 24.3525C22.6165 24.4265 22.6581 24.5269 22.6581 24.6316V28.1842C22.6581 28.2889 22.6165 28.3893 22.5425 28.4633C22.4684 28.5374 22.368 28.5789 22.2634 28.5789Z" fill="#57189C"/>
</svg>
