<svg width="32" height="26" viewBox="0 0 32 26" fill="none" xmlns="http://www.w3.org/2000/svg">
<path d="M28.6507 6.77061C28.6507 7.07854 28.6507 7.32488 28.6507 7.63281C28.6507 16.1932 22.1842 25.9854 10.2981 25.9854C6.60298 25.9854 3.21576 24.9384 0.382812 23.0908C0.875499 23.1524 1.36818 23.214 1.92246 23.214C4.94016 23.214 7.71152 22.1671 9.92861 20.4427C7.09566 20.3811 4.69382 18.5335 3.8932 15.9469C4.3243 16.0085 4.69382 16.0701 5.12492 16.0701C5.67919 16.0701 6.29505 15.9469 6.78773 15.8237C3.83162 15.2079 1.61453 12.6213 1.61453 9.48039V9.4188C2.47673 9.91149 3.52369 10.1578 4.57064 10.2194C2.78466 9.04929 1.67611 7.07854 1.67611 4.86145C1.67611 3.62974 1.98404 2.52119 2.53831 1.59741C5.74077 5.47731 10.5445 8.06391 15.9024 8.37184C15.7793 7.87916 15.7177 7.38647 15.7177 6.89378C15.7177 3.32181 18.6122 0.427278 22.1842 0.427278C24.0317 0.427278 25.6946 1.16631 26.9263 2.45961C28.3428 2.15168 29.7592 1.59741 30.9909 0.858379C30.4983 2.39802 29.5129 3.62974 28.158 4.43035C29.4513 4.30718 30.7446 3.93767 31.8531 3.44498C30.9909 4.73828 29.8824 5.84683 28.6507 6.77061Z" fill="#FED136"/>
</svg>
