<svg width="6" height="9" viewBox="0 0 6 9" fill="none" xmlns="http://www.w3.org/2000/svg">
<path fill-rule="evenodd" clip-rule="evenodd" d="M0.543607 5.16H2.10361C2.10361 5.16 2.15361 5.14 2.15361 5.11C2.15361 4.83 2.06361 4.46 1.93361 4.19C1.29361 2.81 0.653607 1.44 0.0036068 0.07C-0.0063932 0.04 0.0036068 0 0.0436068 0H1.50361C1.50361 0 1.53361 0.01 1.54361 0.03C1.89361 0.77 2.24361 1.52 2.58361 2.26C2.58361 2.28 2.60361 2.29 2.62361 2.29H3.06361C3.06361 2.29 3.09361 2.29 3.10361 2.26C3.45361 1.52 3.81361 0.77 4.16361 0.03C4.16361 0.01 4.18361 0 4.20361 0H5.65361C5.65361 0 5.71361 0.04 5.69361 0.07C5.04361 1.44 4.40361 2.81 3.75361 4.18C3.59361 4.52 3.50361 4.73 3.49361 5.11C3.49361 5.14 3.51361 5.16 3.54361 5.16H5.03361C5.03361 5.16 5.06361 5.18 5.06361 5.21V5.77C5.06361 5.77 5.05361 5.82 5.03361 5.82H3.54361C3.54361 5.82 3.49361 5.84 3.49361 5.87V6.49C3.49361 6.49 3.51361 6.54 3.54361 6.54H5.01361C5.01361 6.54 5.04361 6.56 5.04361 6.59V7.15C5.04361 7.15 5.03361 7.2 5.01361 7.2H3.54361C3.54361 7.2 3.49361 7.22 3.49361 7.25V8.08C3.49361 8.08 3.47361 8.11 3.45361 8.11H2.19361C2.19361 8.11 2.15361 8.1 2.15361 8.08V7.25C2.15361 7.25 2.13361 7.2 2.10361 7.2H0.523607C0.523607 7.2 0.493607 7.18 0.493607 7.15V6.59C0.493607 6.59 0.503607 6.54 0.523607 6.54H2.10361C2.10361 6.54 2.15361 6.52 2.15361 6.49V5.87C2.15361 5.87 2.13361 5.82 2.10361 5.82H0.543607C0.543607 5.82 0.513607 5.8 0.513607 5.77V5.21C0.513607 5.21 0.523607 5.16 0.543607 5.16Z" fill="#E6E6E7"/>
</svg>
